SplineFontDB: 3.0
FontName: HiBd
FullName: Hi. Bold
FamilyName: Hi.
Weight: Bold
Copyright: Copyright (c) 2015, Mew Too/Cannot Into Space Fonts, All Rights Reserved.
Version: 1.996
ItalicAngle: 0
UnderlinePosition: -100
UnderlineWidth: 50
Ascent: 800
Descent: 200
InvalidEm: 0
sfntRevision: 0x0001fefa
LayerCount: 2
Layer: 0 0 "Back" 1
Layer: 1 0 "Fore" 0
PreferredKerning: 4
XUID: [1021 604 120746000 7060]
StyleMap: 0x0000
FSType: 0
OS2Version: 4
OS2_WeightWidthSlopeOnly: 0
OS2_UseTypoMetrics: 1
CreationTime: 1421008990
ModificationTime: 1424210954
PfmFamily: 17
TTFWeight: 400
TTFWidth: 5
LineGap: 90
VLineGap: 0
Panose: 2 0 5 3 0 0 0 0 0 0
OS2TypoAscent: 800
OS2TypoAOffset: 0
OS2TypoDescent: -200
OS2TypoDOffset: 0
OS2TypoLinegap: 90
OS2WinAscent: 813
OS2WinAOffset: 0
OS2WinDescent: 184
OS2WinDOffset: 0
HheadAscent: 813
HheadAOffset: 0
HheadDescent: -184
HheadDOffset: 0
OS2SubXSize: 650
OS2SubYSize: 699
OS2SubXOff: 0
OS2SubYOff: 140
OS2SupXSize: 650
OS2SupYSize: 699
OS2SupXOff: 0
OS2SupYOff: 479
OS2StrikeYSize: 49
OS2StrikeYPos: 258
OS2CapHeight: 616
OS2XHeight: 585
OS2FamilyClass: 2063
OS2Vendor: 'CiSf'
OS2CodePages: 00000001.00000000
OS2UnicodeRanges: 0000002f.10000000.00000000.00000000
Lookup: 3 0 0 "'salt' Stylistic Alternatives in Latin lookup 0" { "'salt' Stylistic Alternatives in Latin lookup 0 subtable"  } ['salt' ('DFLT' <'dflt' > 'latn' <'dflt' > ) ]
Lookup: 4 0 1 "'liga' Standard Ligatures lookup 1" { "'liga' Standard Ligatures lookup 1 subtable"  } ['liga' ('DFLT' <'dflt' > ) ]
Lookup: 258 0 0 "'kern' Horizontal Kerning lookup 0" { "'kern' Horizontal Kerning lookup 0 subtable"  } ['kern' ('DFLT' <'dflt' > 'arab' <'dflt' > 'latn' <'dflt' > ) ]
MarkAttachClasses: 1
DEI: 91125

StartChar: .notdef
Encoding: 65536 -1 0
GlifName: _notdef
Width: 533
Flags: MW
HStem: -5 60<121.5 411.5 121.5 471.5> 478 60<121.5 411.5 121.5 121.5>
VStem: 61.5 60<55 55 55 478> 411.5 60<55 478 478 478>
LayerCount: 2
Back
Fore
SplineSet
61.5 -5 m 1
 61.5 538 l 1
 471.5 538 l 1
 471.5 -5 l 1
 61.5 -5 l 1
121.5 55 m 1
 411.5 55 l 1
 411.5 478 l 1
 121.5 478 l 1
 121.5 55 l 1
EndSplineSet
EndChar

StartChar: space
Encoding: 32 32 1
GlifName: space
Width: 119
GlyphClass: 2
Flags: MW
HStem: 397 10<54.5 64.5 54.5 64.5>
VStem: 54.5 10<397 407 397 407>
LayerCount: 2
Back
Fore
SplineSet
54.5 407 m 1
 64.5 407 l 1
 64.5 397 l 1
 54.5 397 l 1
 54.5 407 l 1
EndSplineSet
EndChar

StartChar: exclam
Encoding: 33 33 2
GlifName: exclam
Width: 210
GlyphClass: 2
Flags: MW
HStem: -5.25 102.5<90.3423 118.341>
VStem: 55.625 98.75<32.2866 59.7134> 62.9961 84.0996<155.997 156 156 156.037>
LayerCount: 2
Back
Fore
SplineSet
55.625 46 m 0xc0
 55.625 73.4267578125 76.3095703125 97.25 104.375 97.25 c 0
 132.307617188 97.25 154.375 73.619140625 154.375 46 c 0
 154.375 18.380859375 132.307617188 -5.25 104.375 -5.25 c 0
 76.3095703125 -5.25 55.625 18.5732421875 55.625 46 c 0xc0
147.095703125 552.071289062 m 2xa0
 147.095703125 156 l 2
 147.095703125 137.125 127.584960938 123 105.045898438 123 c 0
 82.4716796875 123 62.9951171875 137.333984375 62.99609375 155.997070312 c 0
 62.99609375 156.076171875 62.943359375 551.6953125 62.982421875 552.098632812 c 0
 63.7236328125 572.094726562 82.857421875 585 105.045898438 585 c 0
 127.6953125 585 146.565429688 570.7421875 147.095703125 552.071289062 c 2xa0
EndSplineSet
EndChar

StartChar: quotedbl
Encoding: 34 34 3
GlifName: quotedbl
Width: 342
GlyphClass: 2
Flags: MW
HStem: 548.48 13.5273 602.5 102.5<96.8145 113.646 217.814 234.646>
VStem: 62.0967 107.208 183.097 107.208
LayerCount: 2
Back
Fore
SplineSet
290.3046875 582.061523438 m 0
 284.760742188 565.430664062 235.064453125 556.971679688 201.24609375 552.541992188 c 2
 170.233398438 548.48046875 l 1
 198.434570312 562.0078125 l 2
 225.7734375 575.122070312 244.672851562 580.522460938 247.73828125 605.17578125 c 1
 242.322265625 603.32421875 237.446289062 602.5 231.846679688 602.5 c 0
 203.782226562 602.5 183.096679688 626.323242188 183.096679688 653.75 c 0
 183.096679688 681.176757812 203.782226562 705 231.846679688 705 c 0
 260.166015625 705 281.328125 680.848632812 281.844726562 654.36328125 c 1
 286.94140625 633.740234375 297.56640625 600.943359375 290.3046875 582.061523438 c 0
169.3046875 582.061523438 m 0
 163.760742188 565.430664062 114.064453125 556.971679688 80.24609375 552.541992188 c 2
 49.2333984375 548.48046875 l 1
 77.4345703125 562.0078125 l 2
 104.7734375 575.122070312 123.672851562 580.522460938 126.73828125 605.17578125 c 1
 121.322265625 603.32421875 116.446289062 602.5 110.846679688 602.5 c 0
 82.7822265625 602.5 62.0966796875 626.323242188 62.0966796875 653.75 c 0
 62.0966796875 681.176757812 82.7822265625 705 110.846679688 705 c 0
 139.166015625 705 160.328125 680.848632812 160.844726562 654.36328125 c 1
 165.94140625 633.740234375 176.56640625 600.943359375 169.3046875 582.061523438 c 0
EndSplineSet
EndChar

StartChar: numbersign
Encoding: 35 35 4
GlifName: numbersign
Width: 800
GlyphClass: 2
Flags: MW
HStem: 166.963 79.5195<200.468 229.714> 338.668 79.4814<566.463 595.716>
LayerCount: 2
Back
Fore
SplineSet
658.3515625 588.33203125 m 2
 595.715820312 418.149414062 l 1
 709.938476562 417.73828125 l 2
 728.748046875 417.670898438 749.390625 400.78125 757.125976562 379.526367188 c 0
 759.05859375 374.217773438 759.994140625 369.091796875 759.979492188 364.3046875 c 0
 759.934570312 349.4140625 750.083984375 338.052734375 735.247070312 338.107421875 c 2
 566.462890625 338.66796875 l 1
 532.133789062 245.395507812 l 1
 663.616210938 244.921875 l 2
 682.42578125 244.854492188 703.068359375 227.96484375 710.803710938 206.709960938 c 0
 712.736328125 201.401367188 713.671875 196.275390625 713.657226562 191.48828125 c 0
 713.612304688 176.59765625 703.76171875 165.236328125 688.924804688 165.291015625 c 2
 502.87890625 165.909179688 l 1
 451.486328125 26.2734375 l 2
 444.989257812 8.6201171875 422.05859375 -5 399.439453125 -5 c 0
 393.790039062 -5 388.65234375 -4.1259765625 384.16015625 -2.4755859375 c 0
 370.182617188 2.66015625 362.876953125 15.802734375 368.001953125 29.7255859375 c 2
 418.185546875 166.196289062 l 1
 371.5546875 166.35546875 326.741210938 166.510742188 285.154296875 166.657226562 c 1
 233.486328125 26.2734375 l 2
 226.989257812 8.6201171875 204.05859375 -5 181.439453125 -5 c 0
 175.790039062 -5 170.65234375 -4.1259765625 166.16015625 -2.4755859375 c 0
 152.182617188 2.66015625 144.876953125 15.802734375 150.001953125 29.7255859375 c 2
 200.467773438 166.962890625 l 1
 132.28125 167.215820312 91.12109375 167.366210938 90.1923828125 167.427734375 c 0
 69.6962890625 168.120117188 50.5478515625 184.600585938 42.8837890625 205.657226562 c 0
 41.091796875 210.579101562 40.15234375 215.327148438 40.033203125 219.791992188 c 0
 39.6220703125 235.149414062 49.4853515625 246.747070312 64.701171875 247.076171875 c 2
 229.713867188 246.482421875 l 1
 264.009765625 339.716796875 l 1
 186.82421875 339.998046875 137.344726562 340.184570312 136.46875 340.245117188 c 0
 116.057617188 340.935546875 96.8681640625 357.422851562 89.2060546875 378.473632812 c 0
 87.4140625 383.395507812 86.474609375 388.143554688 86.35546875 392.608398438 c 0
 85.9443359375 407.965820312 95.8076171875 419.563476562 111.0234375 419.892578125 c 2
 293.268554688 419.237304688 l 1
 329.647460938 518.091796875 356.388671875 590.756835938 356.836914062 591.741210938 c 0
 364.40625 610.538085938 386.500976562 623 408.892578125 623 c 0
 414.130859375 623 418.9140625 622.258789062 423.150390625 620.844726562 c 0
 437.720703125 615.977539062 445.247070312 602.743164062 440.3515625 588.33203125 c 2
 378.004882812 418.932617188 l 1
 510.98046875 418.454101562 l 1
 547.491210938 517.66796875 574.389648438 590.759765625 574.836914062 591.741210938 c 0
 582.40625 610.538085938 604.500976562 623 626.892578125 623 c 0
 632.130859375 623 636.9140625 622.258789062 641.150390625 620.844726562 c 0
 655.720703125 615.977539062 663.21484375 602.650390625 658.3515625 588.33203125 c 2
348.737304688 339.413085938 m 1
 314.422851562 246.178710938 l 1
 447.426757812 245.69921875 l 1
 481.729492188 338.954101562 l 1
 435.83203125 339.110351562 390.90625 339.265625 348.737304688 339.413085938 c 1
EndSplineSet
AlternateSubs2: "'salt' Stylistic Alternatives in Latin lookup 0 subtable" uniE008
EndChar

StartChar: dollar
Encoding: 36 36 5
GlifName: dollar
Width: 560
GlyphClass: 2
Flags: MW
HStem: 72.4688 65.5742<67.938 75.4834> 260.777 66.3076<319.82 319.82> 447 64.6709<319.82 319.82>
VStem: 47.5498 70.4316 231.768 88.0527 440.597 71.8535<190.032 216.778>
LayerCount: 2
Back
Fore
SplineSet
319.8203125 260.77734375 m 1
 319.8203125 139.2109375 l 1
 391.248046875 144.158203125 440.596679688 164.782226562 440.596679688 215.28125 c 0
 440.596679688 218.274414062 441.998046875 220.405273438 442.0234375 226.634765625 c 0
 442.07421875 239.004882812 437.2734375 261.111328125 385.96875 261.037109375 c 2
 385.219726562 261.036132812 l 2
 382.434570312 261.810546875 355.328125 260.915039062 319.8203125 260.77734375 c 1
231.719726562 326.861328125 m 1
 231.711914062 370.55859375 231.711914062 411.524414062 231.711914062 447.751953125 c 1
 163.405273438 441.442382812 119.403320312 420.612304688 119.403320312 372.349609375 c 0
 119.403320312 369.385742188 118.08203125 367.450195312 117.981445312 361.467773438 c 0
 117.774414062 349.086914062 122.146484375 326.455078125 174.00390625 326.59375 c 2
 174.00390625 326.59375 196.489257812 326.732421875 231.719726562 326.861328125 c 1
319.8203125 557.071289062 m 2
 319.8203125 511.670898438 l 1
 424.306640625 511.56640625 483.336914062 511.16796875 484.516601562 511.16015625 c 0
 499.609375 511.16015625 510.5 496.022460938 510.5 479.071289062 c 0
 510.5 462.118164062 499.625 446.981445312 484.499023438 446.981445312 c 2
 484.499023438 446.981445312 398.57421875 446.995117188 319.8203125 447 c 1
 319.8203125 327.084960938 l 1
 341.4609375 327.1171875 362.211914062 327.134765625 385.961914062 327.134765625 c 0
 395.6484375 327.134765625 405.506835938 327.5078125 415.416015625 327.509765625 c 0
 463.592773438 327.515625 512.450195312 316.75 512.450195312 215.28125 c 0
 512.450195312 105.184570312 426.932617188 77.0263671875 319.8203125 72.6123046875 c 1
 319.8203125 28 l 2
 319.8203125 9.125 299.401367188 -5 275.813476562 -5 c 0
 252.189453125 -5 231.806640625 9.333984375 231.807617188 27.998046875 c 2
 231.791015625 71.95703125 l 1
 134.580078125 72.072265625 75.779296875 72.466796875 75.4833984375 72.46875 c 0
 60.390625 72.46875 49.5 87.935546875 49.5 105.255859375 c 0
 49.5 122.578125 60.375 138.04296875 75.5009765625 138.04296875 c 2
 231.767578125 138.024414062 l 1
 231.732421875 260.540039062 l 1
 212.34765625 260.51171875 194.609375 260.49609375 174.038085938 260.49609375 c 0
 164.3515625 260.49609375 154.493164062 260.123046875 144.583984375 260.12109375 c 0
 96.4072265625 260.115234375 47.5498046875 270.702148438 47.5498046875 370.489257812 c 0
 47.5498046875 475.935546875 128.759765625 504.985351562 231.727539062 510.404296875 c 1
 231.744140625 541.001953125 231.755859375 556.169921875 231.755859375 556.169921875 c 2
 232.598632812 577.873046875 252.58203125 590 275.813476562 590 c 0
 299.517578125 590 319.265625 575.7421875 319.8203125 557.071289062 c 2
EndSplineSet
EndChar

StartChar: percent
Encoding: 37 37 6
GlifName: percent
Width: 630
GlyphClass: 2
Flags: MW
HStem: -5.44043 68.2041<446.184 479.369 446.184 498.106> 170.436 68.2041<446.185 479.37> 378.92 68.2041<150.63 183.815 150.63 203.175> 549.796 68.2041<150.631 183.816>
VStem: 39.4678 68.7363<485.041 511.879 485.041 531.544> 227.526 71.0195<485.041 511.879> 331.454 71.0195<102.526 130.673 102.526 150.375> 521.796 68.7363<102.526 130.673>
LayerCount: 2
Back
Fore
SplineSet
167.013671875 447.124023438 m 0
 200.6171875 447.124023438 227.526367188 471.62109375 227.526367188 498.459960938 c 0
 227.526367188 525.298828125 200.619140625 549.795898438 167.013671875 549.795898438 c 0
 134.249023438 549.795898438 108.204101562 525.298828125 108.204101562 498.459960938 c 0
 108.204101562 471.62109375 134.247070312 447.124023438 167.013671875 447.124023438 c 0
167.013671875 618 m 0
 239.3359375 618 298.545898438 564.627929688 298.545898438 498.459960938 c 0
 298.545898438 432.291992188 239.3359375 378.919921875 167.013671875 378.919921875 c 0
 96.7744140625 378.919921875 39.4677734375 432.291992188 39.4677734375 498.459960938 c 0
 39.4677734375 564.627929688 96.7744140625 618 167.013671875 618 c 0
462.986328125 170.435546875 m 0
 429.3828125 170.435546875 402.473632812 144.74609375 402.473632812 116.599609375 c 0
 402.473632812 88.453125 429.380859375 62.763671875 462.986328125 62.763671875 c 0
 495.750976562 62.763671875 521.795898438 88.453125 521.795898438 116.599609375 c 0
 521.795898438 144.74609375 495.752929688 170.435546875 462.986328125 170.435546875 c 0
462.986328125 -5.4404296875 m 0
 390.6640625 -5.4404296875 331.454101562 49.046875 331.454101562 116.599609375 c 0
 331.454101562 184.151367188 390.6640625 238.639648438 462.986328125 238.639648438 c 0
 533.225585938 238.639648438 590.532226562 184.15234375 590.532226562 116.599609375 c 0
 590.532226562 49.0478515625 533.225585938 -5.4404296875 462.986328125 -5.4404296875 c 0
530.071289062 614.057617188 m 0
 541.6484375 607.65625 543.345703125 594.424804688 536.189453125 582.3984375 c 2
 176.353515625 20.3544921875 l 2
 165.499023438 3.5029296875 139.717773438 -10 117.0625 -10 c 0
 109.672851562 -10 103.375 -8.5205078125 98.466796875 -5.560546875 c 0
 87.4931640625 1.056640625 85.9716796875 14.0126953125 93.2236328125 25.6435546875 c 0
 93.259765625 25.701171875 452.741210938 587.3125 453.051757812 587.719726562 c 0
 465.12109375 605.52734375 489.82421875 618 512.32421875 618 c 0
 519.317382812 618 525.302734375 616.6953125 530.071289062 614.057617188 c 0
EndSplineSet
EndChar

StartChar: ampersand
Encoding: 38 38 7
GlifName: ampersand
Width: 801
GlyphClass: 2
Flags: MW
HStem: -5 84.0996<74.5254 557.399> 247.633 84.167 358.984 84.1152<374 374> 500.426 84.7959<344.358 447.485>
VStem: 557.399 84.126<79.0996 79.0996>
LayerCount: 2
Back
Fore
SplineSet
229.672851562 331.799804688 m 2
 236.336914062 332.288085938 243.032226562 332.521484375 250.125 332.521484375 c 0
 402.706054688 332.521484375 412.514648438 331.895507812 413.306640625 331.810546875 c 0
 433.151367188 331.075195312 446.125 311.936523438 446.125 289.75 c 0
 446.125 266.700195312 431.901367188 248.37890625 413.250976562 247.6875 c 0
 411.889648438 247.551757812 322.743164062 247.59765625 244.413085938 247.6328125 c 0
 158.412109375 244.810546875 173.11328125 175.66015625 145.12109375 79.099609375 c 1
 557.399414062 79.099609375 l 1
 557.362304688 142.392578125 557.306640625 264.7109375 557.34765625 358.913085938 c 1
 457.986328125 358.897460938 375.466796875 358.889648438 374.415039062 358.984375 c 0
 354.346679688 359.728515625 341.474609375 378.860351562 341.474609375 401.049804688 c 0
 341.474609375 423.69921875 355.732421875 442.569335938 374.403320312 443.099609375 c 2
 585.158203125 443.099609375 l 2
 590.323242188 444.521484375 594.358398438 445.049804688 599.474609375 445.049804688 c 0
 604.403320312 445.049804688 610.666015625 443.952148438 613.744140625 443.099609375 c 2
 726.474609375 443.099609375 l 2
 745.349609375 443.099609375 759.474609375 423.588867188 759.474609375 401.049804688 c 0
 759.474609375 378.475585938 745.139648438 358.999023438 726.478515625 359 c 2
 641.525390625 358.935546875 l 1
 641.525390625 37.0498046875 l 2
 641.525390625 14 627.32421875 -4.3203125 608.622070312 -5.0146484375 c 0
 606.252929688 -5.2412109375 74.5751953125 -5 74.525390625 -5 c 0
 55.859375 -5.0009765625 41.525390625 14.4814453125 41.525390625 37.0498046875 c 0
 41.525390625 129.80078125 56.1083984375 213.876953125 99.05078125 267.706054688 c 1
 95.5478515625 275.120117188 94.125 281.57421875 94.125 289.75 c 0
 94.125 452.674804688 227.491210938 585.221679688 391.724609375 585.221679688 c 0
 514.415039062 585.221679688 529.276367188 585.3046875 532.475585938 584.353515625 c 0
 551.69921875 582.217773438 562.724609375 563.931640625 562.724609375 542.450195312 c 0
 562.724609375 519.904296875 548.606445312 500.400390625 529.719726562 500.400390625 c 2
 529.719726562 500.400390625 503.245117188 500.42578125 391.724609375 500.42578125 c 0
 296.991210938 500.42578125 228.853515625 426.045898438 197.844726562 331.799804688 c 1
 229.672851562 331.799804688 l 2
EndSplineSet
EndChar

StartChar: quotesingle
Encoding: 39 39 8
GlifName: quotesingle
Width: 221
GlyphClass: 2
Flags: MW
HStem: 548.48 13.5273 602.5 102.5<96.8145 113.646>
VStem: 62.0967 107.208
LayerCount: 2
Back
Fore
SplineSet
169.3046875 582.061523438 m 0
 163.760742188 565.430664062 114.064453125 556.971679688 80.24609375 552.541992188 c 2
 49.2333984375 548.48046875 l 1
 77.4345703125 562.0078125 l 2
 104.7734375 575.122070312 123.672851562 580.522460938 126.73828125 605.17578125 c 1
 121.322265625 603.32421875 116.446289062 602.5 110.846679688 602.5 c 0
 82.7822265625 602.5 62.0966796875 626.323242188 62.0966796875 653.75 c 0
 62.0966796875 681.176757812 82.7822265625 705 110.846679688 705 c 0
 139.166015625 705 160.328125 680.848632812 160.844726562 654.36328125 c 1
 165.94140625 633.740234375 176.56640625 600.943359375 169.3046875 582.061523438 c 0
EndSplineSet
EndChar

StartChar: parenleft
Encoding: 40 40 9
GlifName: parenleft
Width: 405
GlyphClass: 2
Flags: MW
HStem: -5.17188 10.5947 575.177 10.5947
VStem: 42.3115 92.4707<231.213 349.387 231.213 371.057>
LayerCount: 2
Back
Fore
SplineSet
307.18359375 5.4228515625 m 1
 320.302734375 5.35546875 336.557617188 5.263671875 347.022460938 5.171875 c 0
 348.22265625 5.1611328125 362.688476562 8.806640625 362.688476562 0.0087890625 c 0
 362.688476562 -9.2705078125 333.8984375 -5.171875 285.911132812 -5.171875 c 0
 120.74609375 -5.171875 42.3115234375 128.78515625 42.3115234375 290.299804688 c 0
 42.3115234375 451.814453125 120.74609375 585.771484375 285.911132812 585.771484375 c 0
 339.614257812 585.771484375 356.334960938 586.331054688 359.291015625 585.329101562 c 0
 366.983398438 582.719726562 347.022460938 575.427734375 347.022460938 575.427734375 c 1
 336.557617188 575.3359375 320.302734375 575.244140625 307.18359375 575.176757812 c 1
 314.299804688 567.2890625 318.911132812 555.685546875 318.911132812 543.025390625 c 0
 318.911132812 520.479492188 304.7890625 500.975585938 285.911132812 500.975585938 c 0
 178.557617188 500.975585938 134.782226562 408.473632812 134.782226562 290.299804688 c 0
 134.782226562 172.126953125 178.560546875 79.6240234375 285.911132812 79.6240234375 c 0
 304.786132812 79.6240234375 318.911132812 60.1142578125 318.911132812 37.57421875 c 0
 318.911132812 24.9140625 314.299804688 13.310546875 307.18359375 5.4228515625 c 1
EndSplineSet
EndChar

StartChar: parenright
Encoding: 41 41 10
GlifName: parenright
Width: 407
GlyphClass: 2
Flags: MW
HStem: -5.17188 10.5947 575.177 10.5947
VStem: 271.218 92.4707<231.213 349.386>
LayerCount: 2
Back
Fore
SplineSet
98.8173828125 5.4228515625 m 1
 90.5009765625 14.640625 87.0888671875 24.607421875 87.0888671875 37.57421875 c 0
 87.0888671875 60.1201171875 101.2109375 79.6240234375 120.088867188 79.6240234375 c 0
 227.442382812 79.6240234375 271.217773438 172.125976562 271.217773438 290.299804688 c 0
 271.217773438 408.47265625 227.440429688 500.975585938 120.088867188 500.975585938 c 0
 101.213867188 500.975585938 87.0888671875 520.485351562 87.0888671875 543.025390625 c 0
 87.0888671875 555.685546875 91.701171875 567.2890625 98.8173828125 575.176757812 c 1
 82.951171875 575.2578125 43.3115234375 571.729492188 43.3115234375 580.590820312 c 0
 43.3115234375 589.870117188 72.1015625 585.771484375 120.088867188 585.771484375 c 0
 285.25390625 585.771484375 363.688476562 451.814453125 363.688476562 290.299804688 c 0
 363.688476562 128.78515625 285.254882812 -5.171875 120.088867188 -5.171875 c 0
 66.38671875 -5.171875 49.666015625 -5.7314453125 46.708984375 -4.7294921875 c 0
 39.0166015625 -2.1201171875 58.978515625 5.171875 58.978515625 5.171875 c 1
 69.4423828125 5.263671875 85.6982421875 5.35546875 98.8173828125 5.4228515625 c 1
EndSplineSet
EndChar

StartChar: asterisk
Encoding: 42 42 11
GlifName: asterisk
Width: 341
GlyphClass: 2
Flags: MW
HStem: 602.58 39.6777<218.402 237.642 218.386 282.972 218.402 218.402>
VStem: 150.643 39.6777<670.315 689.564>
LayerCount: 2
Back
Fore
SplineSet
190.3203125 734.872070312 m 2
 190.3203125 670.302734375 l 1
 217.571289062 697.555664062 234.712890625 714.731445312 236.6796875 716.56640625 c 0
 244.576171875 723.396484375 254.330078125 719.2578125 260.009765625 714.126953125 c 0
 266.41796875 708.338867188 272.38671875 696.744140625 264.043945312 687.915039062 c 2
 218.385742188 642.2578125 l 1
 256.8984375 642.2578125 281.258789062 642.280273438 283.819335938 642.193359375 c 0
 293.6171875 641.278320312 299.099609375 632.040039062 299.099609375 622.400390625 c 0
 299.099609375 612.290039062 292.75390625 602.858398438 282.971679688 602.580078125 c 2
 218.40234375 602.580078125 l 1
 245.655273438 575.329101562 262.831054688 558.1875 264.666015625 556.220703125 c 0
 271.49609375 548.32421875 267.357421875 538.5703125 262.2265625 532.890625 c 0
 256.438476562 526.482421875 244.84375 520.513671875 236.014648438 528.856445312 c 2
 190.3203125 574.55078125 l 1
 190.3203125 510 l 2
 190.3203125 500.124023438 180.50390625 493.80078125 170.5 493.80078125 c 0
 160.465820312 493.80078125 150.6796875 500.2109375 150.6796875 509.998046875 c 2
 150.6796875 509.998046875 150.668945312 538.9453125 150.66015625 574.530273438 c 1
 105.036132812 528.907226562 l 2
 97 520.870117188 86.0498046875 525.745117188 80.1904296875 531.438476562 c 0
 74.177734375 537.280273438 68.720703125 548.65234375 77.0048828125 556.934570312 c 2
 77.0048828125 556.934570312 97.4658203125 577.411132812 122.622070312 602.580078125 c 1
 58.099609375 602.580078125 l 2
 48.2236328125 602.580078125 41.900390625 612.396484375 41.900390625 622.400390625 c 0
 41.900390625 632.434570312 48.310546875 642.220703125 58.09765625 642.220703125 c 2
 58.09765625 642.220703125 87.044921875 642.231445312 122.629882812 642.240234375 c 1
 77.0068359375 687.864257812 l 2
 68.9697265625 695.900390625 73.8447265625 706.850585938 79.5380859375 712.709960938 c 0
 85.3798828125 718.72265625 96.751953125 724.1796875 105.034179688 715.895507812 c 2
 105.034179688 715.895507812 125.497070312 695.448242188 150.642578125 670.315429688 c 1
 150.642578125 708.8125 150.620117188 733.159179688 150.70703125 735.720703125 c 0
 151.622070312 745.517578125 160.860351562 751 170.5 751 c 0
 180.609375 751 190.044921875 744.541992188 190.3203125 734.872070312 c 2
EndSplineSet
AlternateSubs2: "'salt' Stylistic Alternatives in Latin lookup 0 subtable" uniE006
EndChar

StartChar: plus
Encoding: 43 43 12
GlifName: plus
Width: 576
GlyphClass: 2
Flags: MW
HStem: 266.904 84.0996<76.998 76.998 76.998 77 76.998 245.95>
VStem: 245.95 84.1152<97 97>
LayerCount: 2
Back
Fore
SplineSet
499.071289062 266.904296875 m 2
 330.13671875 266.904296875 l 1
 330.15234375 174.571289062 330.16015625 98.9541015625 330.065429688 97.8984375 c 0
 329.321289062 77.8232421875 310.189453125 64.9541015625 288 64.9541015625 c 0
 265.349609375 64.9541015625 246.483398438 79.103515625 245.950195312 97.8828125 c 2
 245.950195312 266.904296875 l 1
 77 266.904296875 l 2
 58.125 266.904296875 44 286.415039062 44 308.954101562 c 0
 44 331.528320312 58.333984375 351.004882812 76.998046875 351.00390625 c 2
 76.998046875 351.00390625 156.509765625 351.041992188 245.950195312 351.0703125 c 1
 245.950195312 519.954101562 l 2
 245.950195312 538.829101562 265.4609375 552.954101562 288 552.954101562 c 0
 310.57421875 552.954101562 330.05078125 538.620117188 330.049804688 519.956054688 c 2
 330.049804688 519.956054688 330.087890625 440.490234375 330.115234375 351.090820312 c 1
 422.420898438 351.106445312 498 351.114257812 499.056640625 351.01953125 c 0
 519.130859375 350.275390625 532 331.143554688 532 308.954101562 c 0
 532 286.3046875 517.7421875 267.434570312 499.071289062 266.904296875 c 2
EndSplineSet
AlternateSubs2: "'salt' Stylistic Alternatives in Latin lookup 0 subtable" uniE005
EndChar

StartChar: comma
Encoding: 44 44 13
GlifName: comma
Width: 225
GlyphClass: 2
Flags: MW
HStem: -59.2695 13.5273 -5.25 102.5<98.8145 115.646>
VStem: 64.0967 107.208
LayerCount: 2
Back
Fore
SplineSet
171.3046875 -25.6884765625 m 0
 165.760742188 -42.3193359375 116.064453125 -50.7783203125 82.24609375 -55.2080078125 c 2
 51.2333984375 -59.26953125 l 1
 79.4345703125 -45.7421875 l 2
 106.7734375 -32.6279296875 125.672851562 -27.2275390625 128.73828125 -2.57421875 c 1
 123.322265625 -4.42578125 118.446289062 -5.25 112.846679688 -5.25 c 0
 84.7822265625 -5.25 64.0966796875 18.5732421875 64.0966796875 46 c 0
 64.0966796875 73.4267578125 84.7822265625 97.25 112.846679688 97.25 c 0
 141.166015625 97.25 162.328125 73.0986328125 162.844726562 46.61328125 c 1
 167.94140625 25.990234375 178.56640625 -6.806640625 171.3046875 -25.6884765625 c 0
EndSplineSet
EndChar

StartChar: hyphen
Encoding: 45 45 14
GlifName: hyphen
Width: 601
GlyphClass: 2
Flags: MW
HStem: 266.904 84.0996<89.4971 89.5 89.5 89.5381 89.4971 511.571>
LayerCount: 2
Back
Fore
SplineSet
511.571289062 266.904296875 m 2
 89.5 266.904296875 l 2
 70.625 266.904296875 56.5 286.415039062 56.5 308.954101562 c 0
 56.5 331.528320312 70.833984375 351.004882812 89.4970703125 351.00390625 c 0
 89.5791015625 351.00390625 511.192382812 351.056640625 511.598632812 351.017578125 c 0
 531.595703125 350.276367188 544.5 331.142578125 544.5 308.954101562 c 0
 544.5 286.3046875 530.2421875 267.434570312 511.571289062 266.904296875 c 2
EndSplineSet
EndChar

StartChar: period
Encoding: 46 46 15
GlifName: period
Width: 207
GlyphClass: 2
Flags: MW
HStem: -5.25 102.5<88.8423 116.841>
VStem: 54.125 98.75<32.2866 59.7134>
LayerCount: 2
Back
Fore
SplineSet
54.125 46 m 0
 54.125 73.4267578125 74.8095703125 97.25 102.875 97.25 c 0
 130.807617188 97.25 152.875 73.619140625 152.875 46 c 0
 152.875 18.380859375 130.807617188 -5.25 102.875 -5.25 c 0
 74.8095703125 -5.25 54.125 18.5732421875 54.125 46 c 0
EndSplineSet
EndChar

StartChar: slash
Encoding: 47 47 16
GlifName: slash
Width: 368
GlyphClass: 2
Flags: MW
VStem: 38.9053 290.35
LayerCount: 2
Back
Fore
SplineSet
329.254882812 588.33203125 m 2
 122.389648438 26.2734375 l 2
 115.892578125 8.6201171875 92.9619140625 -5 70.3427734375 -5 c 0
 64.693359375 -5 59.5556640625 -4.1259765625 55.0634765625 -2.4755859375 c 0
 41.0859375 2.66015625 33.779296875 15.802734375 38.9052734375 29.7255859375 c 0
 38.9306640625 29.796875 245.568359375 591.38671875 245.771484375 591.819335938 c 0
 253.282226562 610.469726562 275.4140625 623 297.795898438 623 c 0
 303.034179688 623 307.817382812 622.258789062 312.053710938 620.844726562 c 0
 326.624023438 615.977539062 334.118164062 602.650390625 329.254882812 588.33203125 c 2
EndSplineSet
EndChar

StartChar: zero
Encoding: 48 48 17
GlifName: zero
Width: 727
GlyphClass: 2
Flags: MW
HStem: -10 92.4707<300.575 426.424 300.575 451.309> 492.729 92.4707<300.576 426.425>
VStem: 47.7402 88.7324<233.379 341.82 233.379 369.826> 590.527 88.7324<233.379 341.82>
LayerCount: 2
Back
Fore
SplineSet
363.5 492.728515625 m 0
 237.65234375 492.728515625 136.47265625 396.040039062 136.47265625 287.599609375 c 0
 136.47265625 179.158203125 237.650390625 82.470703125 363.5 82.470703125 c 0
 489.34765625 82.470703125 590.52734375 179.158203125 590.52734375 287.599609375 c 0
 590.52734375 396.040039062 489.349609375 492.728515625 363.5 492.728515625 c 0
363.5 -10 m 0
 187.881835938 -10 47.740234375 123.146484375 47.740234375 287.599609375 c 0
 47.740234375 452.052734375 187.881835938 585.19921875 363.5 585.19921875 c 0
 539.118164062 585.19921875 679.259765625 452.052734375 679.259765625 287.599609375 c 0
 679.259765625 123.146484375 539.118164062 -10 363.5 -10 c 0
EndSplineSet
AlternateSubs2: "'salt' Stylistic Alternatives in Latin lookup 0 subtable" uniE019
EndChar

StartChar: one
Encoding: 49 49 18
GlifName: one
Width: 308
GlyphClass: 2
Flags: MW
VStem: 174.401 84.0996<27.999 27.999>
LayerCount: 2
Back
Fore
SplineSet
216.646484375 590 m 0
 239.296875 590 257.967773438 577.938476562 258.500976562 561.928710938 c 2
 258.500976562 28 l 2
 258.500976562 11.984375 238.990234375 0 216.451171875 0 c 0
 193.876953125 0 174.400390625 12.162109375 174.401367188 27.9990234375 c 2
 174.401367188 27.9990234375 174.294921875 290.365234375 174.310546875 449.509765625 c 1
 117.024414062 395.759765625 l 2
 103.677734375 382.413085938 79.89453125 386.221679688 63.95703125 402.158203125 c 0
 47.9931640625 417.057617188 44.357421875 439.372070312 57.5556640625 451.690429688 c 0
 57.619140625 451.752929688 167.543945312 561.609375 167.995117188 562.0390625 c 0
 177.827148438 571.712890625 188.322265625 592.11328125 216.646484375 590 c 0
EndSplineSet
EndChar

StartChar: two
Encoding: 50 50 19
GlifName: two
Width: 711
GlyphClass: 2
Flags: MW
HStem: -5.29199 85.4902 205.55 84.7959<179.488 217.27> 493.976 84.7959<298.24 413.819>
VStem: 49.4004 92.4707<110.327 140.49 110.327 219.405> 569.129 92.4707<360.04 446.256>
LayerCount: 2
Back
Fore
SplineSet
660 38.173828125 m 0
 660 15.62890625 645.89453125 -3.8759765625 627.016601562 -3.8759765625 c 2
 627.016601562 -3.8759765625 517.889648438 -4.59765625 351.903320312 -4.59765625 c 0
 320.10546875 -4.59765625 289.393554688 -5.2861328125 260.475585938 -5.2919921875 c 0
 140.28515625 -5.318359375 49.400390625 7.392578125 49.400390625 137.874023438 c 0
 49.400390625 300.936523438 142.9765625 290.345703125 216 290.345703125 c 0
 378.850585938 290.345703125 493.450195312 289.624023438 493.450195312 289.624023438 c 2
 546.487304688 289.624023438 569.12890625 329.256835938 569.12890625 390.823242188 c 0
 569.12890625 501.688476562 473.638671875 493.975585938 354 493.975585938 c 0
 242.479492188 493.975585938 84.001953125 493.950195312 84 493.950195312 c 0
 65.125 493.950195312 51 513.459960938 51 536 c 0
 51 558.544921875 65.134765625 578.049804688 83.9833984375 578.049804688 c 2
 83.9833984375 578.049804688 192.473632812 578.771484375 354 578.771484375 c 0
 524.208007812 578.771484375 661.599609375 553.44140625 661.599609375 390.813476562 c 0
 661.599609375 244.319335938 593.6171875 204.828125 494.741210938 204.828125 c 0
 328.754882812 204.828125 217.26953125 205.549804688 217.26953125 205.549804688 c 2
 109.178710938 205.549804688 141.87109375 143.106445312 141.87109375 137.874023438 c 0
 141.87109375 82.779296875 234.447265625 80.1982421875 351.903320312 80.1982421875 c 0
 466.502929688 80.1982421875 626.998046875 80.2236328125 627 80.2236328125 c 0
 645.875 80.2236328125 660 60.7138671875 660 38.173828125 c 0
EndSplineSet
EndChar

StartChar: three
Encoding: 51 51 20
GlifName: three
Width: 787
GlyphClass: 2
Flags: MW
HStem: -10.1719 84.7959<382.527 495.09 382.527 523.5> 247.937 84.1133<78 78> 495.976 84.7959<382.526 495.09>
VStem: 648.656 92.4707<227.222 343.377>
LayerCount: 2
Back
Fore
SplineSet
45.873046875 290 m 0
 45.873046875 312.649414062 60.130859375 331.51953125 78.8017578125 332.049804688 c 2
 479.767578125 332.049804688 l 2
 499.250976562 332.049804688 513.508789062 311.399414062 513.508789062 289 c 0
 513.508789062 266.288085938 498.659179688 247.94921875 479.770507812 247.950195312 c 0
 479.690429688 247.950195312 79.1787109375 247.897460938 78.7744140625 247.936523438 c 0
 58.7783203125 248.677734375 45.873046875 267.811523438 45.873046875 290 c 0
130.52734375 538 m 0
 130.52734375 560.544921875 144.6328125 580.049804688 163.510742188 580.049804688 c 2
 163.510742188 580.049804688 274.384765625 580.771484375 439.5390625 580.771484375 c 0
 607.4609375 580.771484375 741.126953125 448.224609375 741.126953125 285.299804688 c 0
 741.126953125 122.375 607.4609375 -10.171875 439.5390625 -10.171875 c 0
 274.384765625 -10.171875 163.510742188 -9.4501953125 163.510742188 -9.4501953125 c 2
 144.666015625 -9.4501953125 130.52734375 10.060546875 130.52734375 32.599609375 c 0
 130.52734375 55.1455078125 144.6484375 74.6494140625 163.528320312 74.6494140625 c 2
 163.528320312 74.6494140625 325.514648438 74.6240234375 439.5390625 74.6240234375 c 0
 550.640625 74.6240234375 648.65625 169.14453125 648.65625 285.299804688 c 0
 648.65625 401.455078125 550.640625 495.975585938 439.5390625 495.975585938 c 0
 325.513671875 495.975585938 163.529296875 495.950195312 163.52734375 495.950195312 c 0
 144.65234375 495.950195312 130.52734375 515.459960938 130.52734375 538 c 0
EndSplineSet
EndChar

StartChar: four
Encoding: 52 52 21
GlifName: four
Width: 665
GlyphClass: 2
Flags: MW
HStem: 234.229 84.7959<365 365> 510.376 79.791<365 365>
VStem: 423.999 86.4072<27.998 27.998>
LayerCount: 2
Back
Fore
SplineSet
451.868164062 587.63671875 m 0
 509.547851562 579.501953125 511.21875 557.223632812 510.431640625 551.986328125 c 2
 510.431640625 318.328125 l 1
 589.431640625 318.328125 l 2
 608.306640625 318.328125 622.431640625 298.817382812 622.431640625 276.278320312 c 0
 622.431640625 253.704101562 608.094726562 234.227539062 589.4375 234.228515625 c 2
 589.4375 234.228515625 556.880859375 234.189453125 510.40625 234.163085938 c 1
 510.40625 28 l 2
 510.40625 9.125 490.545898438 -5 467.323242188 -5 c 0
 444.064453125 -5 423.997070312 9.333984375 423.999023438 27.998046875 c 2
 423.999023438 27.998046875 423.955078125 120.615234375 423.927734375 234.135742188 c 1
 389.934570312 234.137695312 365.73046875 234.188476562 365.184570312 234.228515625 c 0
 269.740234375 234.22265625 224.80859375 233.399414062 72.3359375 234.014648438 c 2
 71.7958984375 234.016601562 l 1
 71.26953125 234.133789062 l 2
 63.619140625 235.837890625 57.607421875 238.12890625 52.98046875 241.254882812 c 0
 28.2685546875 257.948242188 52.734375 288.407226562 72.7080078125 317.528320312 c 0
 175.672851562 464.387695312 268.78515625 586.056640625 365.168945312 590.166992188 c 0
 403.250976562 591.8203125 431.216796875 590.538085938 451.868164062 587.63671875 c 0
423.911132812 319.041992188 m 1
 423.899414062 396.254882812 423.909179688 467.4375 423.94140625 510.899414062 c 1
 408.001953125 510.838867188 389.879882812 510.690429688 365.467773438 510.375976562 c 0
 325.669921875 509.864257812 279.231445312 468.4765625 179.9375 327.873046875 c 0
 178.890625 326.390625 178.661132812 325.43359375 178.643554688 325.288085938 c 0
 184.130859375 318.9921875 240.305664062 319.024414062 365.391601562 319.024414062 c 2
 365.391601562 319.024414062 373.505859375 319.03515625 423.911132812 319.041992188 c 1
EndSplineSet
AlternateSubs2: "'salt' Stylistic Alternatives in Latin lookup 0 subtable" uniE012
EndChar

StartChar: five
Encoding: 53 53 22
GlifName: five
Width: 710
GlyphClass: 2
Flags: MW
HStem: -5.29199 84.7959<301.297 365.494 301.297 441.388> 288.855 84.7959<494.258 520.122> 493.281 84.7959<292.678 408.703>
VStem: 48.9004 88.1035 568.629 92.4707<135.172 216.716>
LayerCount: 2
Back
Fore
SplineSet
351.403320312 578.077148438 m 0
 517.376953125 578.077148438 626.508789062 577.35546875 626.516601562 577.35546875 c 0
 645.361328125 577.35546875 659.5 557.844726562 659.5 535.305664062 c 0
 659.5 512.759765625 645.37890625 493.255859375 626.499023438 493.255859375 c 2
 626.499023438 493.255859375 466.001953125 493.28125 351.403320312 493.28125 c 0
 233.952148438 493.28125 141.37109375 490.801757812 141.37109375 437.90625 c 0
 141.37109375 433.659179688 137.198242188 427.88671875 137.00390625 416.516601562 c 0
 136.706054688 399.0078125 145.595703125 372.9296875 216.76953125 372.9296875 c 2
 216.76953125 372.9296875 328.254882812 373.651367188 494.241210938 373.651367188 c 0
 593.1171875 373.651367188 661.099609375 333.6328125 661.099609375 185.1796875 c 0
 661.099609375 20.3798828125 524.178710938 -5.2919921875 358.596679688 -5.2919921875 c 0
 192.610351562 -5.2919921875 83.4833984375 -4.5703125 83.4833984375 -4.5703125 c 2
 64.638671875 -4.5703125 50.5 14.9404296875 50.5 37.4794921875 c 0
 50.5 60.025390625 64.62109375 79.529296875 83.5009765625 79.529296875 c 2
 83.5009765625 79.529296875 243.998046875 79.50390625 358.596679688 79.50390625 c 0
 372.391601562 79.50390625 385.967773438 79.3857421875 399.166992188 79.3828125 c 0
 496.717773438 79.3623046875 568.62890625 85.1650390625 568.62890625 185.1796875 c 0
 568.62890625 248.252929688 545.986328125 288.85546875 494.2578125 288.85546875 c 2
 494.2578125 288.85546875 382.772460938 288.133789062 216.786132812 288.133789062 c 0
 207.326171875 288.133789062 197.557617188 287.948242188 187.69921875 287.943359375 c 0
 120.145507812 287.91015625 48.900390625 298.364257812 48.900390625 438.020507812 c 0
 48.900390625 596.952148438 187.677734375 578.077148438 351.403320312 578.077148438 c 0
EndSplineSet
EndChar

StartChar: six
Encoding: 54 54 23
GlifName: six
Width: 712
GlyphClass: 2
Flags: MW
HStem: -5 84.7979<356.288 358.377 356.288 361.188 353.482 358.377> 246.743 85.0342 493.573 84.7959<297.708 412.76>
VStem: 52 92.4707<144.636 186.557 144.636 208.378> 570.129 92.4707<144.636 186.01>
LayerCount: 2
Back
Fore
SplineSet
431.634765625 -2.8115234375 m 1
 429.815429688 -3.98828125 l 2
 425.315429688 -6.7333984375 412.359375 -4.9931640625 361.1875 -5 c 2
 353.482421875 -5 l 2
 302.750976562 -4.9931640625 286.880859375 -5.2236328125 282.9140625 -2.8037109375 c 0
 149.399414062 6.3486328125 52 47.6025390625 52 184.471679688 c 0
 52 232.284179688 60.166015625 265.221679688 73.203125 287.134765625 c 1
 57.8984375 309.883789062 49.400390625 342.731445312 49.400390625 392.665039062 c 0
 49.400390625 550.283203125 186.73828125 578.369140625 357 578.369140625 c 0
 518.526367188 578.369140625 627.016601562 577.647460938 627.016601562 577.647460938 c 2
 645.861328125 577.647460938 660 558.13671875 660 535.59765625 c 0
 660 513.051757812 645.87890625 493.547851562 626.999023438 493.547851562 c 2
 626.999023438 493.547851562 468.51953125 493.573242188 357 493.573242188 c 0
 238.416992188 493.573242188 141.87109375 470.125976562 141.87109375 392.038085938 c 0
 141.87109375 389.344726562 140.938476562 388.174804688 140.361328125 383.4609375 c 0
 138.611328125 369.166992188 139.083984375 338.29296875 196.712890625 332.259765625 c 0
 205.1484375 332.118164062 213.250976562 331.943359375 221.370117188 331.943359375 c 0
 274.444335938 331.943359375 322.165039062 331.873046875 362.287109375 331.77734375 c 0
 400.610351562 331.873046875 445.73828125 331.943359375 496 331.943359375 c 0
 508.57421875 331.943359375 521.717773438 332.430664062 534.888671875 332.432617188 c 0
 598.672851562 332.44140625 662.599609375 318.840820312 662.599609375 184.471679688 c 0
 662.599609375 47.6240234375 563.264648438 6.212890625 431.634765625 -2.8115234375 c 1
217.283203125 246.42578125 m 0
 211.565429688 246.42578125 205.947265625 246.333007812 200.048828125 246.224609375 c 0
 125.8046875 238.6875 144.470703125 188.641601562 144.470703125 184.471679688 c 0
 144.470703125 104.80078125 237.217773438 80.2958984375 351.018554688 79.8037109375 c 0
 353.134765625 79.8037109375 355.240234375 79.7978515625 357.3359375 79.7978515625 c 0
 359.418945312 79.7978515625 361.563476562 79.8037109375 363.62890625 79.8037109375 c 0
 477.47265625 80.2958984375 570.12890625 104.80078125 570.12890625 184.471679688 c 0
 570.12890625 187.548828125 571.778320312 190.627929688 572.0078125 198.22265625 c 0
 572.543945312 216.022460938 566.54296875 244.896484375 499.25 246.74609375 c 0
 494.86328125 246.759765625 450.219726562 246.573242188 392.575195312 246.743164062 c 0
 346.498046875 246.577148438 286.674804688 246.42578125 217.283203125 246.42578125 c 0
EndSplineSet
EndChar

StartChar: seven
Encoding: 55 55 24
GlifName: seven
Width: 706
GlyphClass: 2
Flags: MW
HStem: 495.976 84.7959<298.466 411.609>
VStem: 565.826 83.7207 565.826 92.4766<285.38 285.38 285.38 343.377>
LayerCount: 2
Back
Fore
SplineSet
565.447265625 22.9833984375 m 2xc0
 565.44140625 28.015625 l 2
 565.534179688 54.4775390625 565.826171875 179.551757812 565.826171875 285.299804688 c 0
 565.826171875 401.455078125 467.446289062 495.975585938 355.772460938 495.975585938 c 0
 241.159179688 495.975585938 80.69921875 495.950195312 80.697265625 495.950195312 c 0
 61.822265625 495.950195312 47.697265625 515.459960938 47.697265625 538 c 0
 47.697265625 560.544921875 61.83203125 580.049804688 80.6806640625 580.049804688 c 2
 80.6806640625 580.049804688 189.766601562 580.771484375 355.772460938 580.771484375 c 0
 524.779296875 580.771484375 647.658203125 447.671875 658.286132812 285.626953125 c 2
 658.302734375 285.379882812 l 1xa0
 649.546875 22.908203125 l 2
 649.484375 4.197265625 630.048828125 -10 607.497070312 -10 c 0
 584.938476562 -10 565.509765625 4.1318359375 565.447265625 22.9833984375 c 2xc0
EndSplineSet
EndChar

StartChar: eight
Encoding: 56 56 25
GlifName: eight
Width: 715
GlyphClass: 2
Flags: MW
HStem: -10 89.7988<353.117 358.845 356.148 358.845 356.148 361.61> 246.625 85.1484<357 357> 493.57 84.7988<356.155 358.852>
VStem: 50.9004 92.4707<144.694 186.559 144.694 204.13 390.677 430.622> 571.629 92.4707<144.695 185.877 390.01 430.622>
LayerCount: 2
Back
Fore
SplineSet
218.783203125 246.42578125 m 0
 212.01171875 246.42578125 205.302734375 246.293945312 198.291015625 246.1640625 c 0
 124.802734375 238.419921875 143.37109375 188.646484375 143.37109375 184.471679688 c 0
 143.37109375 104.916992188 235.771484375 80.365234375 349.360351562 79.8056640625 c 0
 352.08203125 79.8056640625 354.795898438 79.798828125 357.5 79.798828125 c 0
 360.189453125 79.798828125 362.950195312 79.8056640625 365.614257812 79.8056640625 c 0
 479.249023438 80.3662109375 571.62890625 104.91796875 571.62890625 184.471679688 c 0
 571.62890625 187.282226562 572.6171875 188.62109375 573.186523438 193.711914062 c 0
 574.8515625 208.623046875 573.93359375 240.151367188 516.708984375 246.1640625 c 0
 510.21484375 246.284179688 502.841796875 246.42578125 496.216796875 246.42578125 c 0
 443.958984375 246.42578125 397.078125 246.51171875 357.514648438 246.625 c 0
 317.8828125 246.51171875 271.060546875 246.42578125 218.783203125 246.42578125 c 0
664.099609375 179.471679688 m 0
 664.099609375 41.8046875 563.336914062 0.7177734375 430.374023438 -7.99609375 c 0
 425.713867188 -11.6943359375 411.921875 -9.990234375 363.223632812 -9.9990234375 c 0
 362.692382812 -9.9990234375 362.154296875 -10 361.610351562 -10 c 2
 353.389648438 -10 l 2
 352.844726562 -10 352.30859375 -9.9990234375 351.775390625 -9.9990234375 c 0
 303.322265625 -9.990234375 288.915039062 -11.3994140625 284.625976562 -7.99609375 c 0
 149.986328125 0.830078125 50.900390625 41.7822265625 50.900390625 179.471679688 c 0
 50.900390625 228.7890625 59.57421875 262.25 73.3681640625 284.184570312 c 1
 58.87890625 307.225585938 50.900390625 339.887695312 50.900390625 388.897460938 c 0
 50.900390625 526.564453125 151.663085938 567.651367188 284.625976562 576.365234375 c 0
 289.286132812 580.063476562 303.078125 578.359375 351.776367188 578.368164062 c 0
 352.307617188 578.368164062 352.845703125 578.369140625 353.389648438 578.369140625 c 2
 361.610351562 578.369140625 l 2
 362.155273438 578.369140625 362.69140625 578.368164062 363.224609375 578.368164062 c 0
 411.677734375 578.359375 426.084960938 579.768554688 430.374023438 576.365234375 c 0
 565.013671875 567.5390625 664.099609375 526.586914062 664.099609375 388.897460938 c 0
 664.099609375 339.580078125 655.42578125 306.119140625 641.631835938 284.184570312 c 1
 656.12109375 261.143554688 664.099609375 228.481445312 664.099609375 179.471679688 c 0
141.81640625 383.078125 m 0
 140.1484375 368.607421875 141.052734375 338.046875 198.015625 332.203125 c 0
 205.123046875 332.075195312 211.923828125 331.943359375 218.783203125 331.943359375 c 0
 271.013671875 331.943359375 317.8359375 331.872070312 357.5 331.7734375 c 0
 397.1640625 331.872070312 443.986328125 331.943359375 496.216796875 331.943359375 c 0
 503.076171875 331.943359375 509.876953125 332.075195312 516.984375 332.203125 c 0
 590.14453125 339.73046875 571.62890625 387.982421875 571.62890625 392.038085938 c 0
 571.62890625 469.206054688 479.228515625 493.020507812 365.639648438 493.563476562 c 0
 362.91796875 493.563476562 360.204101562 493.5703125 357.5 493.5703125 c 0
 354.810546875 493.5703125 352.049804688 493.563476562 349.385742188 493.563476562 c 0
 235.750976562 493.020507812 143.37109375 469.205078125 143.37109375 392.038085938 c 0
 143.37109375 389.31640625 142.384765625 388.015625 141.81640625 383.078125 c 0
EndSplineSet
EndChar

StartChar: nine
Encoding: 57 57 26
GlifName: nine
Width: 725
GlyphClass: 2
Flags: MW
HStem: -5 84.7959<307.78 425.829 307.78 451.637> 246.592 85.0342 493.571 84.7979<360.081 362.114>
VStem: 50.7949 90.5918 578.924 92.4707<390.016 430.678>
LayerCount: 2
Back
Fore
SplineSet
284.903320312 576.180664062 m 1
 286.7734375 577.357421875 l 2
 291.401367188 580.102539062 304.724609375 578.362304688 357.345703125 578.369140625 c 2
 364.844726562 578.369140625 l 2
 416.969726562 578.362304688 433.274414062 578.592773438 437.3515625 576.172851562 c 0
 573.995117188 567.157226562 671.39453125 526.51953125 671.39453125 391.694335938 c 0
 671.39453125 343.418945312 674.198242188 290.672851562 674.198242188 290.672851562 c 1
 674.205078125 290.5390625 l 1
 674.205078125 290.40625 l 2
 673.994140625 184.446289062 673.994140625 236.307617188 673.994140625 184.471679688 c 0
 673.994140625 23.65625 536.665039062 -5 366.608398438 -5 c 0
 196.193359375 -5 86.3779296875 -4.2783203125 86.3779296875 -4.2783203125 c 2
 67.533203125 -4.2783203125 53.39453125 15.232421875 53.39453125 37.771484375 c 0
 53.39453125 60.3173828125 67.515625 79.8212890625 86.3955078125 79.8212890625 c 2
 86.3955078125 79.8212890625 248.952148438 79.7958984375 366.608398438 79.7958984375 c 0
 485.048828125 79.7958984375 581.5234375 103.96875 581.5234375 184.471679688 c 0
 581.5234375 187.249023438 582.456054688 188.454101562 583.033203125 193.314453125 c 0
 584.783203125 208.05078125 584.310546875 239.879882812 526.703125 246.099609375 c 0
 518.27734375 246.245117188 510.185546875 246.42578125 502.075195312 246.42578125 c 0
 449.065429688 246.42578125 401.40234375 246.49609375 361.03125 246.591796875 c 0
 320.598632812 246.49609375 272.987304688 246.42578125 219.958984375 246.42578125 c 0
 206.693359375 246.42578125 192.826171875 245.927734375 178.930664062 245.926757812 c 0
 114.721679688 245.91796875 50.794921875 259.317382812 50.794921875 391.694335938 c 0
 50.794921875 526.498046875 150.129882812 567.291015625 284.903320312 576.180664062 c 1
504.78515625 331.943359375 m 0
 510.659179688 331.943359375 516.431640625 332.033203125 522.4921875 332.138671875 c 0
 597.58984375 339.44921875 578.923828125 387.994140625 578.923828125 392.038085938 c 0
 578.923828125 469.318359375 484.302734375 493.087890625 367.375976562 493.565429688 c 0
 365.201171875 493.565429688 363.133789062 493.571289062 361.094726562 493.571289062 c 0
 359.067382812 493.571289062 356.959960938 493.565429688 354.834960938 493.565429688 c 0
 237.766601562 493.087890625 143.265625 469.318359375 143.265625 392.038085938 c 0
 143.265625 389.053710938 141.616210938 386.067382812 141.38671875 378.700195312 c 0
 140.850585938 361.430664062 146.8515625 333.416992188 215.373046875 331.623046875 c 0
 219.883789062 331.609375 265.791015625 331.795898438 325.069335938 331.625976562 c 0
 372.020507812 331.791992188 433.487304688 331.943359375 504.78515625 331.943359375 c 0
EndSplineSet
EndChar

StartChar: colon
Encoding: 58 58 27
GlifName: colon
Width: 211
GlyphClass: 2
Flags: MW
HStem: -5.5 102.5<90.8423 118.841> 177 102.5<90.8423 118.841>
VStem: 56.125 98.75<32.0366 59.4634 214.537 241.963>
LayerCount: 2
Back
Fore
SplineSet
56.125 228.25 m 0
 56.125 255.676757812 76.8095703125 279.5 104.875 279.5 c 0
 132.807617188 279.5 154.875 255.869140625 154.875 228.25 c 0
 154.875 200.630859375 132.807617188 177 104.875 177 c 0
 76.8095703125 177 56.125 200.823242188 56.125 228.25 c 0
56.125 45.75 m 0
 56.125 73.1767578125 76.8095703125 97 104.875 97 c 0
 132.807617188 97 154.875 73.369140625 154.875 45.75 c 0
 154.875 18.130859375 132.807617188 -5.5 104.875 -5.5 c 0
 76.8095703125 -5.5 56.125 18.3232421875 56.125 45.75 c 0
EndSplineSet
EndChar

StartChar: semicolon
Encoding: 59 59 28
GlifName: semicolon
Width: 224
GlyphClass: 2
Flags: MW
HStem: -59.5195 13.5273 -5.5 102.5<98.3145 115.146> 177 102.5<98.3145 126.313>
VStem: 63.5967 98.75<214.537 241.963> 63.5967 107.208
LayerCount: 2
Back
Fore
SplineSet
170.8046875 -25.9384765625 m 0xe8
 165.260742188 -42.5693359375 115.564453125 -51.0283203125 81.74609375 -55.4580078125 c 2
 50.7333984375 -59.51953125 l 1
 78.9345703125 -45.9921875 l 2
 106.2734375 -32.8779296875 125.172851562 -27.4775390625 128.23828125 -2.82421875 c 1
 122.822265625 -4.67578125 117.946289062 -5.5 112.346679688 -5.5 c 0
 84.2822265625 -5.5 63.5966796875 18.3232421875 63.5966796875 45.75 c 0
 63.5966796875 73.1767578125 84.2822265625 97 112.346679688 97 c 0
 140.666015625 97 161.828125 72.8486328125 162.344726562 46.36328125 c 1
 167.44140625 25.740234375 178.06640625 -7.056640625 170.8046875 -25.9384765625 c 0xe8
63.5966796875 228.25 m 0xf0
 63.5966796875 255.676757812 84.2822265625 279.5 112.346679688 279.5 c 0
 140.279296875 279.5 162.346679688 255.869140625 162.346679688 228.25 c 0
 162.346679688 200.630859375 140.279296875 177 112.346679688 177 c 0
 84.2822265625 177 63.5966796875 200.823242188 63.5966796875 228.25 c 0xf0
EndSplineSet
EndChar

StartChar: less
Encoding: 60 60 29
GlifName: less
Width: 373
GlyphClass: 2
Flags: MW
HStem: 147.532 64.9297<292.169 295.805> 473.538 64.9297<292.169 295.805>
VStem: 46.5 280<162.807 354.48>
LayerCount: 2
Back
Fore
SplineSet
46.5 343 m 0
 46.5 365.959960938 60.7392578125 388.202148438 77.1513671875 394.811523438 c 0
 88.419921875 402.498046875 290.694335938 537.787109375 290.720703125 537.8046875 c 2
 291.391601562 538.252929688 l 1
 292.168945312 538.467773438 l 2
 309.607421875 543.282226562 326.5 532.795898438 326.5 513.58984375 c 0
 326.5 495.053710938 311.077148438 478.227539062 295.8046875 473.538085938 c 1
 126.360351562 343 l 1
 295.8046875 212.461914062 l 1
 312.5078125 207.333007812 326.5 190.333007812 326.5 172.41015625 c 0
 326.5 153.203125 309.607421875 142.717773438 292.168945312 147.532226562 c 2
 291.391601562 147.747070312 l 1
 290.720703125 148.1953125 l 1
 290.720703125 148.1953125 86.6845703125 284.685546875 77.1513671875 291.188476562 c 0
 59.4892578125 298.301757812 46.5 320.685546875 46.5 343 c 0
EndSplineSet
EndChar

StartChar: equal
Encoding: 61 61 30
GlifName: equal
Width: 524
GlyphClass: 2
Flags: MW
HStem: 129 82<93.0996 97.9873 97.9873 424.28> 273 82<93.0996 93.9873 93.9873 97.9873 97.9873 148.938 93.0996 424.343>
LayerCount: 2
Back
Fore
SplineSet
424.280273438 129 m 1
 97.9873046875 129 l 2
 72.078125 129 58.9873046875 147.15625 58.9873046875 168 c 0
 58.9873046875 188.3046875 70.9130859375 202.865234375 92.265625 210.694335938 c 2
 93.099609375 211 l 1
 424.521484375 211 l 1
 425.043945312 210.88671875 l 2
 451.08203125 205.2578125 465.499023438 190.516601562 463.981445312 167.75 c 0
 463.234375 145.326171875 448.944335938 131.90234375 424.571289062 129.034179688 c 2
 424.280273438 129 l 1
424.342773438 273 m 1
 97.9873046875 273 l 2
 72.078125 273 58.9873046875 291.15625 58.9873046875 312 c 0
 58.9873046875 332.3046875 70.9130859375 346.865234375 92.265625 354.694335938 c 2
 93.099609375 355 l 1
 93.9873046875 355 l 2
 203.888671875 355 314.200195312 358.263671875 424.135742188 354.998046875 c 0
 451.69921875 354.1796875 465.728515625 335.899414062 464.984375 312.833007812 c 0
 464.229492188 290.200195312 449.610351562 276.609375 424.694335938 273.049804688 c 2
 424.342773438 273 l 1
EndSplineSet
EndChar

StartChar: greater
Encoding: 62 62 31
GlifName: greater
Width: 376
GlyphClass: 2
Flags: MW
HStem: 147.532 64.9297<78.6953 82.3311> 473.538 64.9297<78.6953 82.3311>
VStem: 48 280<162.807 354.157 331.52 523.193>
LayerCount: 2
Back
Fore
SplineSet
328 343 m 0
 328 320.040039062 313.760742188 297.797851562 297.348632812 291.188476562 c 0
 286.080078125 283.501953125 83.8056640625 148.212890625 83.779296875 148.1953125 c 2
 83.1083984375 147.747070312 l 1
 82.3310546875 147.532226562 l 2
 64.892578125 142.717773438 48 153.204101562 48 172.41015625 c 0
 48 190.946289062 63.4228515625 207.772460938 78.6953125 212.461914062 c 1
 248.139648438 343 l 1
 78.6953125 473.538085938 l 1
 61.9921875 478.666992188 48 495.666992188 48 513.58984375 c 0
 48 532.796875 64.892578125 543.282226562 82.3310546875 538.467773438 c 2
 83.1083984375 538.252929688 l 1
 83.779296875 537.8046875 l 1
 83.779296875 537.8046875 287.815429688 401.314453125 297.348632812 394.811523438 c 0
 315.010742188 387.698242188 328 365.314453125 328 343 c 0
EndSplineSet
EndChar

StartChar: question
Encoding: 63 63 32
GlifName: question
Width: 607
GlyphClass: 2
Flags: MW
HStem: -5 89.5498<245.638 270.136 245.632 270.138> 293.847 73.8018<294.224 294.224> 511.267 74.3242<257.868 345.917>
VStem: 215.295 86.3252<27.813 51.7378> 220.498 73.7256<132.98 132.985 132.985 133.001>
LayerCount: 2
Back
Fore
SplineSet
294.223632812 293.846679688 m 1xe8
 294.223632812 132.985351562 l 2
 294.223632812 116.2109375 276.978515625 103.905273438 257.360351562 103.905273438 c 0
 237.712890625 103.905273438 220.497070312 116.39453125 220.498046875 132.98046875 c 0
 220.498046875 133.022460938 220.461914062 330.572265625 220.484375 330.840820312 c 0
 221.014648438 352.109375 233.140625 367.18359375 249.506835938 367.6484375 c 2
 471.590820312 367.6484375 l 1
 443.78125 450.428710938 386.01171875 511.266601562 305.822265625 511.266601562 c 0
 209.9140625 511.266601562 73.6240234375 511.245117188 73.6220703125 511.245117188 c 0
 56.8466796875 511.245117188 44.5419921875 528.489257812 44.5419921875 548.107421875 c 0
 44.5419921875 567.7265625 56.859375 584.970703125 73.60546875 584.970703125 c 2
 73.60546875 584.970703125 166.90625 585.590820312 305.822265625 585.590820312 c 0
 447.4453125 585.590820312 562.458007812 471.291992188 562.458007812 330.78515625 c 0
 562.458007812 311.137695312 549.969726562 293.921875 533.380859375 293.922851562 c 2
 533.380859375 293.922851562 373.952148438 293.823242188 294.223632812 293.846679688 c 1xe8
215.294921875 39.7744140625 m 0xf0
 215.294921875 63.701171875 233.344726562 84.5498046875 257.919921875 84.5498046875 c 0
 282.352539062 84.5498046875 301.620117188 63.888671875 301.620117188 39.7744140625 c 0
 301.620117188 15.65625 282.35546875 -5 257.919921875 -5 c 0
 233.35546875 -5 215.294921875 15.8515625 215.294921875 39.7744140625 c 0xf0
EndSplineSet
EndChar

StartChar: at
Encoding: 64 64 33
GlifName: at
Width: 690
GlyphClass: 2
Flags: MW
HStem: -0.163086 84.793<342 342> 107.771 59.4824<346.563 419.135 346.563 435.018> 409.408 59.4824<346.564 410.062 330.995 419.136> 505.982 84.7979<394.209 400.758>
VStem: 44.7002 92.4707<237.289 353.08 237.289 376.771> 194.394 57.2393<256.415 320.248 256.415 338.257>
LayerCount: 2
Back
Fore
SplineSet
251.6328125 288.331054688 m 0
 251.6328125 224.498046875 310.276367188 167.25390625 382.849609375 167.25390625 c 0
 455.420898438 167.25390625 514.06640625 224.498046875 514.06640625 288.331054688 c 0
 514.06640625 352.1640625 455.422851562 409.408203125 382.849609375 409.408203125 c 0
 310.278320312 409.408203125 251.6328125 352.1640625 251.6328125 288.331054688 c 0
633.88671875 134.469726562 m 1
 636.44140625 123.692382812 543.931640625 -1.3330078125 342.270507812 -0.1630859375 c 0
 178.086914062 0.7900390625 44.7001953125 132.364257812 44.7001953125 295.30859375 c 0
 44.7001953125 458.233398438 178.06640625 590.780273438 342.299804688 590.780273438 c 0
 503.826171875 590.780273438 612.31640625 590.05859375 612.31640625 590.05859375 c 2
 631.161132812 590.05859375 645.299804688 570.547851562 645.299804688 548.008789062 c 0
 645.299804688 526.495117188 632.778320312 509.311523438 616.439453125 506.284179688 c 1
 571.202148438 287.319335938 l 2
 551.383789062 191.392578125 487.185546875 107.771484375 382.849609375 107.771484375 c 0
 279.140625 107.771484375 194.393554688 188.477539062 194.393554688 288.331054688 c 0
 194.393554688 388.18359375 279.140625 468.890625 382.849609375 468.890625 c 0
 437.2734375 468.890625 486.171875 446.474609375 520.442382812 411.627929688 c 1
 533.931640625 444.474609375 489.549804688 487.905273438 433.501953125 505.98046875 c 1
 420.404296875 505.98046875 407.306640625 505.982421875 394.208984375 505.982421875 c 0
 364.333007812 505.311523438 345.602539062 504.723632812 340.622070312 505.9765625 c 0
 232.6015625 504.993164062 137.170898438 410.8515625 137.170898438 295.30859375 c 0
 137.170898438 179.268554688 233.598632812 88.41015625 342.473632812 84.6298828125 c 0
 484.6171875 79.6943359375 566.512695312 180.3359375 570.124023438 184.767578125 c 0
 582.625976562 200.107421875 606.064453125 192.870117188 623.09765625 180.362304688 c 0
 642.123046875 166.392578125 637.20703125 144.305664062 633.88671875 134.469726562 c 1
EndSplineSet
EndChar

StartChar: A
Encoding: 65 65 34
GlifName: A_
Width: 740
GlyphClass: 2
Flags: MW
HStem: 0 92.4707<307.075 415.64> 492.729 92.4707<307.076 432.925>
VStem: 54.2402 88.7324<239.701 345.498 239.701 373.444> 601.15 84.0996<7.87988 14.4707>
LayerCount: 2
Back
Fore
SplineSet
685.759765625 292.580078125 m 2
 685.25 15.185546875 l 2
 685.25 0.57421875 658.36328125 -1.28515625 641.41015625 -1.2919921875 c 0
 625.619140625 -1.298828125 601.150390625 0.177734375 601.150390625 14.470703125 c 2
 601.157226562 93.640625 l 1
 543.174804688 35.4912109375 461.279296875 0 370 0 c 0
 194.381835938 0 54.240234375 130.91015625 54.240234375 292.599609375 c 0
 54.240234375 454.2890625 194.381835938 585.19921875 370 585.19921875 c 0
 545.618164062 585.19921875 685.759765625 454.291992188 685.759765625 292.580078125 c 2
370 492.728515625 m 0
 244.15234375 492.728515625 142.97265625 398.396484375 142.97265625 292.599609375 c 0
 142.97265625 186.801757812 244.150390625 92.470703125 370 92.470703125 c 0
 495.84765625 92.470703125 597.02734375 186.801757812 597.02734375 292.599609375 c 0
 597.02734375 398.396484375 495.849609375 492.728515625 370 492.728515625 c 0
EndSplineSet
EndChar

StartChar: B
Encoding: 66 66 35
GlifName: B_
Width: 743
GlyphClass: 2
Flags: MW
HStem: 0 92.4707<308.575 434.424 308.575 459.309> 492.729 92.4707<325.86 434.425>
VStem: 55.7402 84.6025 598.527 88.7324<239.701 345.499>
LayerCount: 2
Back
Fore
SplineSet
55.740234375 293.493164062 m 2
 56.25 713.731445312 l 2
 56.25 728.591796875 83.13671875 730.483398438 100.08984375 730.491210938 c 0
 115.880859375 730.498046875 140.349609375 729.021484375 140.349609375 714.728515625 c 2
 140.342773438 491.557617188 l 1
 198.325195312 549.708007812 280.219726562 585.19921875 371.5 585.19921875 c 0
 547.118164062 585.19921875 687.259765625 454.2890625 687.259765625 292.599609375 c 0
 687.259765625 130.91015625 547.118164062 0 371.5 0 c 0
 195.881835938 0 55.740234375 131.302734375 55.740234375 293.493164062 c 2
371.5 92.470703125 m 0
 497.34765625 92.470703125 598.52734375 186.802734375 598.52734375 292.599609375 c 0
 598.52734375 398.397460938 497.349609375 492.728515625 371.5 492.728515625 c 0
 245.65234375 492.728515625 144.47265625 398.397460938 144.47265625 292.599609375 c 0
 144.47265625 186.802734375 245.650390625 92.470703125 371.5 92.470703125 c 0
EndSplineSet
EndChar

StartChar: C
Encoding: 67 67 36
GlifName: C_
Width: 704
GlyphClass: 2
Flags: MW
HStem: -0.171875 84.7959<296.91 410.06 296.91 435.063> 505.976 84.7959<296.91 410.06>
VStem: 46.7002 92.4707<237.222 353.377 237.222 376.762>
LayerCount: 2
Back
Fore
SplineSet
354.299804688 590.771484375 m 0
 515.814453125 590.771484375 624.30859375 590.049804688 624.31640625 590.049804688 c 0
 643.161132812 590.049804688 657.299804688 570.5390625 657.299804688 548 c 0
 657.299804688 525.454101562 643.178710938 505.950195312 624.298828125 505.950195312 c 2
 624.298828125 505.950195312 465.819335938 505.975585938 354.299804688 505.975585938 c 0
 239.520507812 505.975585938 139.170898438 411.455078125 139.170898438 295.299804688 c 0
 139.170898438 179.14453125 239.520507812 84.6240234375 354.299804688 84.6240234375 c 0
 465.8203125 84.6240234375 624.297851562 84.6494140625 624.299804688 84.6494140625 c 0
 643.174804688 84.6494140625 657.299804688 65.1396484375 657.299804688 42.599609375 c 0
 657.299804688 20.0546875 643.165039062 0.5498046875 624.31640625 0.5498046875 c 2
 624.31640625 0.5498046875 515.826171875 -0.171875 354.299804688 -0.171875 c 0
 180.819335938 -0.171875 46.7001953125 132.375 46.7001953125 295.299804688 c 0
 46.7001953125 458.224609375 180.819335938 590.771484375 354.299804688 590.771484375 c 0
EndSplineSet
EndChar

StartChar: D
Encoding: 68 68 37
GlifName: D_
Width: 741
GlyphClass: 2
Flags: MW
HStem: 0 92.4707<307.575 433.424 307.575 458.309> 492.729 92.4707<307.576 416.276 282.691 433.425>
VStem: 54.7402 88.7324<239.701 345.499 239.701 373.444> 601.657 84.6025
LayerCount: 2
Back
Fore
SplineSet
640.673828125 730.486328125 m 0
 657.953125 730.629882812 685.75 728.827148438 685.75 713.731445312 c 2
 686.259765625 293.487304688 l 2
 686.259765625 131.307617188 546.118164062 0 370.5 0 c 0
 194.881835938 0 54.740234375 130.91015625 54.740234375 292.599609375 c 0
 54.740234375 454.2890625 194.881835938 585.19921875 370.5 585.19921875 c 0
 462.052734375 585.19921875 544.727539062 548.668945312 601.657226562 491.557617188 c 1
 601.650390625 714.728515625 l 2
 601.650390625 728.784179688 625.268554688 730.357421875 640.673828125 730.486328125 c 0
370.5 492.728515625 m 0
 244.65234375 492.728515625 143.47265625 398.397460938 143.47265625 292.599609375 c 0
 143.47265625 186.802734375 244.650390625 92.470703125 370.5 92.470703125 c 0
 496.34765625 92.470703125 597.52734375 186.802734375 597.52734375 292.599609375 c 0
 597.52734375 398.397460938 496.349609375 492.728515625 370.5 492.728515625 c 0
EndSplineSet
EndChar

StartChar: E
Encoding: 69 69 38
GlifName: E_
Width: 697
GlyphClass: 2
Flags: W
LayerCount: 2
Back
Fore
SplineSet
645.840820312 156.776367188 m 0
 583.7578125 96.041015625 598.458984375 95.4453125 509.05078125 40.6015625 c 0
 372.880859375 -40.2822265625 164.016601562 -3.9462890625 81.650390625 136.120117188 c 0
 -0.576171875 276.185546875 53.771484375 458.247070312 203.05078125 542.3984375 c 0
 327.548828125 611.032226562 478.94140625 593.752929688 575.1484375 508.848632812 c 0
 585.248046875 499.702148438 603.677734375 485.99609375 616.896484375 471.669921875 c 0
 629.404296875 457.903320312 640.302734375 439.547851562 625.197265625 425.66015625 c 0
 562.66796875 366.740234375 495.786132812 311.201171875 425.967773438 258.077148438 c 0
 412.349609375 247.723632812 385.775390625 243.049804688 370.16796875 262.48828125 c 0
 355.755859375 280.4375 355.916015625 303.525390625 370.036132812 315.737304688 c 0
 396.8359375 338.110351562 512.827148438 423.563476562 515.004882812 441.385742188 c 1
 431.345703125 480.16796875 338.249023438 512.02734375 250.568359375 462.31640625 c 0
 142.0078125 402.450195312 104.275390625 272.176757812 158.495117188 180.486328125 c 0
 163.168945312 172.610351562 168.666015625 165.046875 174.772460938 157.848632812 c 0
 239.803710938 80.41796875 372.158203125 46.2666015625 460.725585938 114.796875 c 2
 585.2421875 210.07421875 l 2
 598.489257812 220.793945312 618.991210938 223.81640625 636.975585938 208.842773438 c 0
 654.56640625 195.135742188 659.524414062 169.37890625 645.840820312 156.776367188 c 0
EndSplineSet
AlternateSubs2: "'salt' Stylistic Alternatives in Latin lookup 0 subtable" uniE00A
EndChar

StartChar: F
Encoding: 70 70 39
GlifName: F_
Width: 705
GlyphClass: 2
Flags: MW
HStem: 274 84.0996<181.963 192.383 192.34 192.383 192.34 576.073> 505.976 84.7959<297.413 410.562>
VStem: 47.2061 92.4678<295.132 295.132> 55.9824 84.0703
LayerCount: 2
Back
Fore
SplineSet
609.002929688 316.049804688 m 0xc0
 609.002929688 293.400390625 594.744140625 274.530273438 576.073242188 274 c 2
 191.663085938 274 l 2
 172.263671875 274 158.002929688 293.510742188 158.002929688 316.049804688 c 0
 158.002929688 338.624023438 172.625976562 358.100585938 192.33984375 358.099609375 c 0
 192.42578125 358.099609375 575.694335938 358.15234375 576.1015625 358.11328125 c 0
 596.09765625 357.372070312 609.002929688 338.23828125 609.002929688 316.049804688 c 0xc0
140.047851562 38.0302734375 m 0
 140.041992188 36.29296875 140.057617188 34.671875 140.052734375 32.9833984375 c 0
 139.990234375 14.1337890625 120.555664062 0 98.0029296875 0 c 0
 74.955078125 0 56.6572265625 15.0224609375 55.982421875 31.81640625 c 0xd0
 55.7666015625 40.302734375 47.23046875 294.381835938 47.2060546875 295.131835938 c 2
 47.197265625 295.379882812 l 1
 47.2138671875 295.626953125 l 2
 57.8408203125 457.672851562 181.095703125 590.771484375 354.802734375 590.771484375 c 0
 516.329101562 590.771484375 624.819335938 590.049804688 624.819335938 590.049804688 c 2
 643.6640625 590.049804688 657.802734375 570.5390625 657.802734375 548 c 0
 657.802734375 525.454101562 643.680664062 505.950195312 624.801757812 505.950195312 c 2
 624.801757812 505.950195312 466.322265625 505.975585938 354.802734375 505.975585938 c 0
 240.0234375 505.975585938 139.673828125 411.455078125 139.673828125 295.299804688 c 0xe0
 139.673828125 189.293945312 139.959960938 63.0078125 140.047851562 38.0302734375 c 0
EndSplineSet
EndChar

StartChar: G
Encoding: 71 71 40
GlifName: G_
Width: 721
GlyphClass: 2
Flags: MW
HStem: -0.171875 84.7959<305.41 398.635 305.41 443.563> 505.976 84.7959<305.41 418.56>
VStem: 55.2002 92.4707<237.222 353.377 237.222 376.762> 581.696 84.1035<42.5967 84.6416>
LayerCount: 2
Back
Fore
SplineSet
362.799804688 590.771484375 m 0
 524.314453125 590.771484375 632.80859375 590.049804688 632.81640625 590.049804688 c 0
 651.661132812 590.049804688 665.799804688 570.5390625 665.799804688 548 c 0
 665.799804688 525.454101562 651.678710938 505.950195312 632.798828125 505.950195312 c 2
 632.798828125 505.950195312 474.319335938 505.975585938 362.799804688 505.975585938 c 0
 248.020507812 505.975585938 147.670898438 411.455078125 147.670898438 295.299804688 c 0
 147.670898438 179.14453125 248.020507812 84.6240234375 362.799804688 84.6240234375 c 0
 434.469726562 84.6240234375 526.86328125 84.634765625 581.696289062 84.6416015625 c 1
 581.674804688 313.599609375 l 2
 581.673828125 332.474609375 601.184570312 346.599609375 623.724609375 346.599609375 c 0
 646.26953125 346.599609375 665.774414062 332.477539062 665.774414062 313.599609375 c 2
 665.799804688 42.5966796875 l 2
 665.787109375 20.041015625 651.658203125 0.5498046875 632.81640625 0.5498046875 c 2
 632.81640625 0.5498046875 524.326171875 -0.171875 362.799804688 -0.171875 c 0
 189.319335938 -0.171875 55.2001953125 132.375 55.2001953125 295.299804688 c 0
 55.2001953125 458.224609375 189.319335938 590.771484375 362.799804688 590.771484375 c 0
EndSplineSet
AlternateSubs2: "'salt' Stylistic Alternatives in Latin lookup 0 subtable" uniE003
EndChar

StartChar: H
Encoding: 72 72 41
GlifName: H_
Width: 683
GlyphClass: 2
Flags: MW
HStem: 400.129 84.1924<297.008 399.171>
VStem: 57.9395 84.1562 541.176 84.7959<139.24 249.561>
LayerCount: 2
Back
Fore
SplineSet
339.4375 400.12890625 m 0
 223.745117188 400.12890625 147.674804688 310.233398438 142.095703125 205.099609375 c 1
 142.095703125 33 l 2
 142.095703125 14.125 122.333007812 0 99.66796875 0 c 0
 76.6201171875 0 58.4267578125 14.044921875 57.7392578125 32.287109375 c 0
 57.62109375 33.408203125 57.0283203125 44.7314453125 57.0283203125 191.89453125 c 0
 57.0283203125 199.743164062 57.326171875 207.328125 57.939453125 215.022460938 c 0
 57.8974609375 375.397460938 57.95703125 584.954101562 57.95703125 584.954101562 c 2
 58.744140625 605.860351562 77.849609375 618 100.045898438 618 c 0
 122.696289062 618 141.5625 603.850585938 142.095703125 585.071289062 c 2
 142.095703125 397.15625 l 1
 194.440429688 450.836914062 254.579101562 484.321289062 339.4375 484.321289062 c 0
 507.657226562 484.321289062 625.971679688 352.868164062 625.971679688 191.72265625 c 0
 625.971679688 43.708984375 625.36328125 33.228515625 625.260742188 32.2578125 c 0
 624.525390625 12.763671875 605.38671875 0 583.200195312 0 c 0
 560.654296875 0 541.150390625 14.1201171875 541.150390625 33.0029296875 c 2
 541.150390625 33.0029296875 541.17578125 83.4794921875 541.17578125 195 c 0
 541.17578125 304.12109375 458.905273438 400.12890625 339.4375 400.12890625 c 0
EndSplineSet
AlternateSubs2: "'salt' Stylistic Alternatives in Latin lookup 0 subtable" uniE004
EndChar

StartChar: I
Encoding: 73 73 42
GlifName: I_
Width: 207
GlyphClass: 2
Flags: MW
VStem: 61.4639 84.0996<28 28.041>
LayerCount: 2
Back
Fore
SplineSet
145.563476562 561.928710938 m 2
 145.563476562 28 l 2
 145.563476562 11.984375 126.052734375 0 103.513671875 0 c 0
 80.939453125 0 61.462890625 12.1630859375 61.4638671875 28 c 0
 61.4638671875 28.08203125 61.4111328125 561.21484375 61.4501953125 561.619140625 c 0
 62.19140625 578.870117188 81.3251953125 590 103.513671875 590 c 0
 126.1640625 590 145.034179688 577.845703125 145.563476562 561.928710938 c 2
EndSplineSet
EndChar

StartChar: J
Encoding: 74 74 43
GlifName: J_
Width: 711
GlyphClass: 2
Flags: MW
HStem: 0 84.7959<297.438 410.587 297.438 440.051>
VStem: 567.952 84.0654 568.326 92.4766<295.392 295.392 295.392 348.475>
LayerCount: 2
Back
Fore
SplineSet
567.952148438 552.741210938 m 0xc0
 567.958007812 554.478515625 567.94140625 556.099609375 567.947265625 557.788085938 c 0
 568.009765625 576.637695312 587.444335938 590.771484375 609.997070312 590.771484375 c 0
 633.044921875 590.771484375 651.342773438 575.749023438 652.017578125 558.955078125 c 0xc0
 652.232421875 550.46875 660.768554688 296.389648438 660.793945312 295.639648438 c 2
 660.802734375 295.391601562 l 1
 660.786132812 295.14453125 l 2
 650.158203125 133.098632812 526.904296875 0 353.197265625 0 c 0
 191.670898438 0 83.1806640625 0.7216796875 83.1806640625 0.7216796875 c 2
 64.3359375 0.7216796875 50.197265625 20.232421875 50.197265625 42.771484375 c 0
 50.197265625 65.3173828125 64.318359375 84.8212890625 83.1982421875 84.8212890625 c 2
 83.1982421875 84.8212890625 241.677734375 84.7958984375 353.197265625 84.7958984375 c 0
 467.9765625 84.7958984375 568.326171875 179.31640625 568.326171875 295.471679688 c 0xa0
 568.326171875 401.477539062 568.040039062 527.763671875 567.952148438 552.741210938 c 0xc0
EndSplineSet
EndChar

StartChar: K
Encoding: 75 75 44
GlifName: K_
Width: 592
GlyphClass: 2
Flags: MW
VStem: 48.0996 84.0996
LayerCount: 2
Back
Fore
SplineSet
540.336914062 33.1298828125 m 0
 542.547851562 28.6748046875 543.845703125 23.845703125 543.924804688 19.1142578125 c 0
 544.236328125 6.861328125 527.708984375 0 506.603515625 0 c 0
 479.202148438 0 449.555664062 12.080078125 439.107421875 28.0341796875 c 2
 301.0390625 254.661132812 l 1
 157.625976562 28 l 2
 147.181640625 12.0537109375 117.510742188 0 90.1494140625 0 c 0
 72.6416015625 0 59.7529296875 5.255859375 54.9072265625 13.21484375 c 0
 50.181640625 18.0927734375 48.099609375 22.54296875 48.099609375 28 c 0
 48.099609375 28.08203125 48.046875 589.21484375 48.0859375 589.619140625 c 0
 48.8271484375 606.870117188 67.9609375 618 90.1494140625 618 c 0
 112.799804688 618 131.666992188 605.938476562 132.19921875 589.928710938 c 2
 132.19921875 158.904296875 l 1
 166.120117188 214.424804688 208.784179688 281.649414062 248.744140625 344.483398438 c 1
 247.329101562 354.418945312 253.654296875 361.88671875 262.439453125 366.314453125 c 1
 337.421875 484.377929688 404.021484375 589.098632812 404.412109375 589.650390625 c 0
 416.764648438 606.885742188 445.508789062 618 472.7578125 618 c 0
 482.84375 618 491.24609375 616.416992188 497.655273438 613.372070312 c 0
 509.291015625 607.509765625 513.278320312 596.111328125 506.504882812 584.893554688 c 2
 355.952148438 342.1796875 l 1
 375.200195312 311.37109375 538.466796875 36.3193359375 540.336914062 33.1298828125 c 0
EndSplineSet
EndChar

StartChar: L
Encoding: 76 76 45
GlifName: L_
Width: 701
GlyphClass: 2
Flags: MW
HStem: 0 84.7959<295.413 408.562 295.413 433.566>
VStem: 45.1973 92.4766<295.392 295.392> 53.9531 84.1055<552.756 557.863>
LayerCount: 2
Back
Fore
SplineSet
138.052734375 557.788085938 m 2xa0
 138.05859375 552.755859375 l 2xa0
 137.965820312 526.293945312 137.673828125 401.219726562 137.673828125 295.471679688 c 0
 137.673828125 179.31640625 238.0234375 84.7958984375 352.802734375 84.7958984375 c 0
 464.322265625 84.7958984375 622.80078125 84.8212890625 622.802734375 84.8212890625 c 0
 641.677734375 84.8212890625 655.802734375 65.3115234375 655.802734375 42.771484375 c 0
 655.802734375 20.2265625 641.66796875 0.7216796875 622.819335938 0.7216796875 c 2
 622.819335938 0.7216796875 514.329101562 0 352.802734375 0 c 0
 179.095703125 0 55.8408203125 133.099609375 45.2138671875 295.14453125 c 2
 45.197265625 295.391601562 l 1xc0
 53.953125 557.86328125 l 2
 54.0146484375 576.57421875 73.451171875 590.771484375 96.0029296875 590.771484375 c 0
 118.560546875 590.771484375 137.989257812 576.639648438 138.052734375 557.788085938 c 2xa0
EndSplineSet
EndChar

StartChar: M
Encoding: 77 77 46
GlifName: M_
Width: 1086
GlyphClass: 2
Flags: MW
HStem: 498.129 92.4707<263.913 377.051 239.661 380.867 710.124 823.089>
VStem: 58.9551 84.7949<242.374 350.883 242.374 378.286> 500.519 85.9775<242.375 350.902> 942.25 84.7949<242.375 350.902>
LayerCount: 2
Back
Fore
SplineSet
1027.04492188 297.955078125 m 0
 1027.04492188 139.129882812 1026.32421875 32.4423828125 1026.32421875 32.4345703125 c 0
 1026.32421875 13.9033203125 1006.81347656 0 984.2734375 0 c 0
 961.727539062 0 942.224609375 13.84375 942.224609375 32.3515625 c 2
 942.224609375 32.3515625 942.25 187.711914062 942.25 297.037109375 c 0
 942.25 404.767578125 881.559570312 498.12890625 764.618164062 498.12890625 c 0
 647.674804688 498.12890625 586.49609375 404.767578125 586.49609375 297.037109375 c 0
 586.49609375 187.7109375 586.521484375 32.3525390625 586.521484375 32.3505859375 c 0
 586.521484375 13.8466796875 567.3125 0 543.12890625 0 c 0
 520.268554688 0 500.4921875 13.84375 500.4921875 32.3515625 c 2
 500.4921875 32.3515625 500.518554688 187.711914062 500.518554688 297.037109375 c 0
 500.518554688 404.767578125 439.337890625 498.12890625 322.395507812 498.12890625 c 0
 205.4296875 498.12890625 143.75 404.729492188 143.75 297.037109375 c 0
 143.75 187.7109375 143.775390625 32.3525390625 143.775390625 32.3505859375 c 0
 143.775390625 13.8466796875 124.266601562 0 101.7265625 0 c 0
 79.1806640625 0 59.67578125 13.8994140625 59.67578125 32.4345703125 c 2
 59.67578125 32.4345703125 58.955078125 139.118164062 58.955078125 297.955078125 c 0
 58.955078125 458.6171875 156.92578125 590.599609375 322.395507812 590.599609375 c 0
 431.70703125 590.599609375 493.823242188 531.235351562 543.506835938 446.670898438 c 1
 593.909179688 532.458007812 655.62890625 590.599609375 764.618164062 590.599609375 c 0
 930.091796875 590.599609375 1027.04492188 458.590820312 1027.04492188 297.955078125 c 0
EndSplineSet
EndChar

StartChar: N
Encoding: 78 78 47
GlifName: N_
Width: 719
GlyphClass: 2
Flags: MW
HStem: 498.129 92.4707<299.768 419.232>
VStem: 59.0283 84.7959<242.374 350.298 242.374 378.705> 575.176 84.7959<242.375 350.298>
LayerCount: 2
Back
Fore
SplineSet
659.971679688 297.955078125 m 0
 659.971679688 139.129882812 659.25 32.4423828125 659.25 32.4345703125 c 0
 659.25 13.9033203125 639.739257812 0 617.200195312 0 c 0
 594.654296875 0 575.150390625 13.84375 575.150390625 32.3515625 c 2
 575.150390625 32.3515625 575.17578125 187.711914062 575.17578125 297.037109375 c 0
 575.17578125 403.559570312 478.96484375 498.12890625 359.5 498.12890625 c 0
 240.03515625 498.12890625 143.82421875 403.559570312 143.82421875 297.037109375 c 0
 143.82421875 187.7109375 143.849609375 32.3525390625 143.849609375 32.3505859375 c 0
 143.849609375 13.8466796875 124.33984375 0 101.799804688 0 c 0
 79.2548828125 0 59.75 13.8994140625 59.75 32.4345703125 c 2
 59.75 32.4345703125 59.0283203125 139.118164062 59.0283203125 297.955078125 c 0
 59.0283203125 459.454101562 191.932617188 590.599609375 359.5 590.599609375 c 0
 527.067382812 590.599609375 659.971679688 459.454101562 659.971679688 297.955078125 c 0
EndSplineSet
EndChar

StartChar: O
Encoding: 79 79 48
GlifName: O_
Width: 736
GlyphClass: 2
Flags: MW
HStem: 0 92.4707<305.075 430.924 305.075 455.809> 492.729 92.4707<305.076 430.925>
VStem: 52.2402 88.7324<239.701 345.498 239.701 373.444> 595.027 88.7324<239.701 345.498>
LayerCount: 2
Back
Fore
SplineSet
368 492.728515625 m 0
 242.15234375 492.728515625 140.97265625 398.396484375 140.97265625 292.599609375 c 0
 140.97265625 186.801757812 242.150390625 92.470703125 368 92.470703125 c 0
 493.84765625 92.470703125 595.02734375 186.801757812 595.02734375 292.599609375 c 0
 595.02734375 398.396484375 493.849609375 492.728515625 368 492.728515625 c 0
368 0 m 0
 192.381835938 0 52.240234375 130.91015625 52.240234375 292.599609375 c 0
 52.240234375 454.2890625 192.381835938 585.19921875 368 585.19921875 c 0
 543.618164062 585.19921875 683.759765625 454.2890625 683.759765625 292.599609375 c 0
 683.759765625 130.91015625 543.618164062 0 368 0 c 0
EndSplineSet
EndChar

StartChar: P
Encoding: 80 80 49
GlifName: P_
Width: 746
GlyphClass: 2
Flags: MW
HStem: 0 92.4707<327.224 435.924 310.075 460.809> 492.729 92.4707<310.076 435.925>
VStem: 57.75 84.0996<-98.0801 -91.5293 -98.5571 -90.5322> 600.027 88.7324<239.701 345.498>
LayerCount: 2
Back
Fore
SplineSet
102.826171875 -107.287109375 m 0
 85.546875 -107.430664062 57.75 -105.627929688 57.75 -90.5322265625 c 2
 57.240234375 291.939453125 l 2
 57.240234375 453.994140625 197.381835938 585.19921875 373 585.19921875 c 0
 548.618164062 585.19921875 688.759765625 454.2890625 688.759765625 292.599609375 c 0
 688.759765625 130.91015625 548.618164062 0 373 0 c 0
 281.447265625 0 198.772460938 36.53125 141.842773438 93.640625 c 1
 141.849609375 -91.529296875 l 2
 141.849609375 -105.584960938 118.231445312 -107.158203125 102.826171875 -107.287109375 c 0
373 92.470703125 m 0
 498.84765625 92.470703125 600.02734375 186.801757812 600.02734375 292.599609375 c 0
 600.02734375 398.396484375 498.849609375 492.728515625 373 492.728515625 c 0
 247.15234375 492.728515625 145.97265625 398.396484375 145.97265625 292.599609375 c 0
 145.97265625 186.801757812 247.150390625 92.470703125 373 92.470703125 c 0
EndSplineSet
EndChar

StartChar: Q
Encoding: 81 81 50
GlifName: Q_
Width: 740
GlyphClass: 2
Flags: MW
HStem: 0 92.4707<307.075 415.64> 492.729 92.4707<307.076 432.925>
VStem: 54.2402 88.7324<239.701 345.498 239.701 373.444> 601.15 84.0996<-97.9624 -91.5293>
LayerCount: 2
Back
Fore
SplineSet
685.759765625 291.932617188 m 2
 685.25 -90.5322265625 l 2
 685.25 -105.392578125 658.36328125 -107.284179688 641.41015625 -107.291992188 c 0
 625.619140625 -107.298828125 601.150390625 -105.822265625 601.150390625 -91.529296875 c 2
 601.157226562 93.640625 l 1
 543.174804688 35.4912109375 461.280273438 0 370 0 c 0
 194.381835938 0 54.240234375 130.91015625 54.240234375 292.599609375 c 0
 54.240234375 454.2890625 194.381835938 585.19921875 370 585.19921875 c 0
 545.618164062 585.19921875 685.759765625 453.999023438 685.759765625 291.932617188 c 2
370 492.728515625 m 0
 244.15234375 492.728515625 142.97265625 398.396484375 142.97265625 292.599609375 c 0
 142.97265625 186.801757812 244.150390625 92.470703125 370 92.470703125 c 0
 495.84765625 92.470703125 597.02734375 186.801757812 597.02734375 292.599609375 c 0
 597.02734375 398.396484375 495.849609375 492.728515625 370 492.728515625 c 0
EndSplineSet
EndChar

StartChar: R
Encoding: 82 82 51
GlifName: R_
Width: 706
GlyphClass: 2
Flags: MW
HStem: 505.976 84.7959<297.913 411.062>
VStem: 47.7061 92.4678<295.132 295.132> 56.4824 84.0654
LayerCount: 2
Back
Fore
SplineSet
140.547851562 38.0302734375 m 0xa0
 140.541992188 36.29296875 140.557617188 34.671875 140.552734375 32.9833984375 c 0
 140.490234375 14.1337890625 121.055664062 0 98.5029296875 0 c 0
 75.455078125 0 57.1572265625 15.0224609375 56.482421875 31.81640625 c 0xa0
 56.2666015625 40.302734375 47.73046875 294.381835938 47.7060546875 295.131835938 c 2
 47.697265625 295.379882812 l 1
 47.7138671875 295.626953125 l 2
 58.3408203125 457.672851562 181.595703125 590.771484375 355.302734375 590.771484375 c 0
 516.829101562 590.771484375 625.319335938 590.049804688 625.319335938 590.049804688 c 2
 644.1640625 590.049804688 658.302734375 570.5390625 658.302734375 548 c 0
 658.302734375 525.454101562 644.180664062 505.950195312 625.301757812 505.950195312 c 2
 625.301757812 505.950195312 466.822265625 505.975585938 355.302734375 505.975585938 c 0
 240.5234375 505.975585938 140.173828125 411.455078125 140.173828125 295.299804688 c 0xc0
 140.173828125 189.293945312 140.459960938 63.0078125 140.547851562 38.0302734375 c 0xa0
EndSplineSet
EndChar

StartChar: S
Encoding: 83 83 52
GlifName: S_
Width: 717
GlyphClass: 2
Flags: MW
HStem: 0 84.7959<301.74 416.792 301.74 442.631> 247.146 84.7969<495.132 495.132> 498.573 84.7959<296.713 411.685>
VStem: 51.9004 90.5703 572.629 92.4707<147.287 187.863>
LayerCount: 2
Back
Fore
SplineSet
219.749023438 331.221679688 m 0
 219.756835938 331.221679688 331.254882812 331.943359375 497.216796875 331.943359375 c 0
 510.137695312 331.943359375 523.642578125 332.44140625 537.176757812 332.442382812 c 0
 601.172851562 332.451171875 665.099609375 319.05078125 665.099609375 186.66015625 c 0
 665.099609375 28.23046875 527.76171875 0 357.5 0 c 0
 195.973632812 0 87.4833984375 0.7216796875 87.4833984375 0.7216796875 c 2
 68.638671875 0.7216796875 54.5 20.232421875 54.5 42.771484375 c 0
 54.5 65.3173828125 68.62109375 84.8212890625 87.5009765625 84.8212890625 c 2
 87.5009765625 84.8212890625 245.98046875 84.7958984375 357.5 84.7958984375 c 0
 476.083007812 84.7958984375 572.62890625 108.243164062 572.62890625 186.331054688 c 0
 572.62890625 189.395507812 574.536132812 193.029296875 574.53125 201.23828125 c 0
 574.5234375 218.104492188 566.928710938 247.243164062 495.883789062 247.147460938 c 2
 495.131835938 247.146484375 l 2
 486.711914062 249.450195312 372.5234375 246.42578125 218.5 246.42578125 c 0
 205.92578125 246.42578125 192.782226562 245.927734375 179.611328125 245.926757812 c 0
 115.827148438 245.91796875 51.900390625 259.51953125 51.900390625 393.897460938 c 0
 51.900390625 554.712890625 188.766601562 583.369140625 354.389648438 583.369140625 c 0
 520.36328125 583.369140625 629.516601562 582.647460938 629.516601562 582.647460938 c 2
 648.361328125 582.647460938 662.5 563.13671875 662.5 540.59765625 c 0
 662.5 518.051757812 648.37890625 498.547851562 629.499023438 498.547851562 c 2
 629.499023438 498.547851562 468.979492188 498.573242188 354.389648438 498.573242188 c 0
 239.037109375 498.573242188 144.37109375 474.400390625 144.37109375 393.897460938 c 0
 144.37109375 390.756835938 142.545898438 387.229492188 142.470703125 379.010742188 c 0
 142.311523438 361.625976562 149.484375 331.037109375 219.749023438 331.221679688 c 0
EndSplineSet
AlternateSubs2: "'salt' Stylistic Alternatives in Latin lookup 0 subtable" uniE016
EndChar

StartChar: T
Encoding: 84 84 53
GlifName: T_
Width: 606
GlyphClass: 2
Flags: MW
HStem: 507.337 82.7129<72 72>
VStem: 259.427 87.1465<32.4482 32.4482>
LayerCount: 2
Back
Fore
SplineSet
40 548.701171875 m 0
 40 570.973632812 54.2578125 589.528320312 72.9287109375 590.049804688 c 2
 288.1640625 590.049804688 l 2
 293.516601562 591.471679688 297.698242188 592 303 592 c 0
 308.107421875 592 314.596679688 590.90234375 317.78515625 590.049804688 c 2
 533 590.049804688 l 2
 551.875 590.049804688 566 570.864257812 566 548.701171875 c 0
 566 526.502929688 551.666015625 507.350585938 533.001953125 507.3515625 c 2
 533.001953125 507.3515625 446.567382812 507.3125 346.573242188 507.286132812 c 1
 346.573242188 32.4501953125 l 2
 346.573242188 13.8896484375 326.35546875 0 303 0 c 0
 279.607421875 0 259.42578125 14.0947265625 259.426757812 32.4482421875 c 2
 259.426757812 32.4482421875 259.286132812 371.899414062 259.346679688 507.266601562 c 1
 156.510742188 507.250976562 73.9921875 507.243164062 72.9404296875 507.336914062 c 0
 52.8720703125 508.068359375 40 526.881835938 40 548.701171875 c 0
EndSplineSet
EndChar

StartChar: U
Encoding: 85 85 54
GlifName: U_
Width: 716
GlyphClass: 2
Flags: MW
HStem: 0 92.4707<298.268 417.732 298.268 441.784>
VStem: 57.5283 84.7959<240.301 348.225 240.301 372.063> 573.676 84.7959<240.301 348.226>
LayerCount: 2
Back
Fore
SplineSet
615.700195312 590.599609375 m 0
 638.245117188 590.599609375 657.75 576.729492188 657.75 558.165039062 c 2
 657.75 558.165039062 658.471679688 451.481445312 658.471679688 292.64453125 c 0
 658.471679688 131.145507812 525.567382812 0 358 0 c 0
 190.432617188 0 57.5283203125 131.145507812 57.5283203125 292.64453125 c 0
 57.5283203125 451.481445312 58.25 558.165039062 58.25 558.165039062 c 2
 58.25 576.696289062 77.7607421875 590.599609375 100.299804688 590.599609375 c 0
 122.845703125 590.599609375 142.349609375 576.755859375 142.349609375 558.248046875 c 2
 142.349609375 558.248046875 142.32421875 402.887695312 142.32421875 293.5625 c 0
 142.32421875 187.040039062 238.53515625 92.470703125 358 92.470703125 c 0
 477.46484375 92.470703125 573.67578125 187.040039062 573.67578125 293.5625 c 0
 573.67578125 402.888671875 573.650390625 558.247070312 573.650390625 558.249023438 c 0
 573.650390625 576.752929688 593.16015625 590.599609375 615.700195312 590.599609375 c 0
EndSplineSet
EndChar

StartChar: V
Encoding: 86 86 55
GlifName: V_
Width: 611
GlyphClass: 2
Flags: MW
VStem: 470.679 84.0654 471.053 92.4766<294.67 294.67 294.67 347.753>
LayerCount: 2
Back
Fore
SplineSet
209.395507812 31.2734375 m 2x40
 209.344726562 31.41015625 l 1
 48.96484375 555.470703125 l 2
 42.54296875 574.377929688 57.5166015625 590 80.470703125 590 c 0
 103.573242188 590 125.276367188 576.74609375 132.748046875 558.19140625 c 0
 132.912109375 557.801757812 239.782226562 213.776367188 280.186523438 85.158203125 c 1
 384.448242188 96.0966796875 471.052734375 185.9453125 471.052734375 294.75 c 0x40
 471.052734375 400.755859375 470.766601562 527.041992188 470.678710938 552.01953125 c 0
 470.684570312 553.756835938 470.668945312 555.377929688 470.673828125 557.06640625 c 0
 470.736328125 575.916015625 490.170898438 590.049804688 512.723632812 590.049804688 c 0
 535.771484375 590.049804688 554.069335938 575.02734375 554.744140625 558.233398438 c 0x80
 554.959960938 549.747070312 563.49609375 295.66796875 563.520507812 294.91796875 c 2
 563.529296875 294.669921875 l 1
 563.512695312 294.422851562 l 2
 552.885742188 132.376953125 429.877929688 -0.7216796875 259.249023438 -0.7216796875 c 0
 215.546875 -0.7216796875 214.896484375 21.87109375 209.395507812 31.2734375 c 2x40
EndSplineSet
AlternateSubs2: "'salt' Stylistic Alternatives in Latin lookup 0 subtable" uniE015
EndChar

StartChar: W
Encoding: 87 87 56
GlifName: W_
Width: 1084
GlyphClass: 2
Flags: MW
HStem: 0 92.4707<261.911 374.876 707.949 821.087>
VStem: 57.9551 84.7949<239.697 348.225 239.697 372.057> 498.504 85.9775<239.697 348.225 239.697 348.226> 941.25 84.7949<239.716 348.226>
LayerCount: 2
Back
Fore
SplineSet
57.955078125 292.64453125 m 0
 57.955078125 451.469726562 58.67578125 558.157226562 58.67578125 558.165039062 c 0
 58.67578125 576.696289062 78.1865234375 590.599609375 100.7265625 590.599609375 c 0
 123.272460938 590.599609375 142.775390625 576.755859375 142.775390625 558.248046875 c 2
 142.775390625 558.248046875 142.75 402.887695312 142.75 293.5625 c 0
 142.75 185.83203125 203.440429688 92.470703125 320.381835938 92.470703125 c 0
 437.325195312 92.470703125 498.50390625 185.83203125 498.50390625 293.5625 c 0
 498.50390625 402.888671875 498.478515625 558.247070312 498.478515625 558.249023438 c 0
 498.478515625 576.752929688 517.6875 590.599609375 541.87109375 590.599609375 c 0
 564.731445312 590.599609375 584.5078125 576.755859375 584.5078125 558.248046875 c 2
 584.5078125 558.248046875 584.481445312 402.887695312 584.481445312 293.5625 c 0
 584.481445312 185.83203125 645.662109375 92.470703125 762.604492188 92.470703125 c 0
 879.5703125 92.470703125 941.25 185.870117188 941.25 293.5625 c 0
 941.25 402.888671875 941.224609375 558.247070312 941.224609375 558.249023438 c 0
 941.224609375 576.752929688 960.733398438 590.599609375 983.2734375 590.599609375 c 0
 1005.81933594 590.599609375 1025.32421875 576.700195312 1025.32421875 558.165039062 c 2
 1025.32421875 558.165039062 1026.04492188 451.481445312 1026.04492188 292.64453125 c 0
 1026.04492188 131.982421875 928.07421875 0 762.604492188 0 c 0
 653.29296875 0 591.176757812 59.3642578125 541.493164062 143.928710938 c 1
 491.090820312 58.1416015625 429.37109375 0 320.381835938 0 c 0
 154.908203125 0 57.955078125 132.008789062 57.955078125 292.64453125 c 0
EndSplineSet
EndChar

StartChar: X
Encoding: 88 88 57
GlifName: X_
Width: 651
GlyphClass: 2
Flags: W
LayerCount: 2
Back
Fore
SplineSet
606.431640625 555.869140625 m 1
 379.991210938 295.049804688 l 1
 495.56640625 163.809570312 606.038085938 34.5947265625 606.159179688 34.4521484375 c 2
 606.390625 34.1787109375 l 1
 606.580078125 33.2998046875 l 2
 609.032226562 28.5341796875 610.408203125 23.5185546875 610.442382812 18.515625 c 0
 610.567382812 6.5869140625 594.310546875 0 573.5234375 0 c 0
 545.766601562 0 516.630859375 12.6533203125 505.65625 28.283203125 c 2
 325.438476562 232.438476562 l 1
 145.22265625 28.283203125 l 2
 133.553710938 11.6640625 104.506835938 0 77.35546875 0 c 0
 66.587890625 0 57.7041015625 1.8125 51.171875 5.287109375 c 0
 40.41796875 11.431640625 37.298828125 22.712890625 44.298828125 33.2998046875 c 1
 44.48828125 34.1787109375 l 1
 44.71875 34.4521484375 l 1
 44.71875 34.4521484375 156.840820312 165.599609375 270.883789062 295.049804688 c 1
 44.4462890625 555.869140625 l 1
 44.2314453125 556.921875 l 2
 42.0185546875 561.446289062 40.740234375 566.147460938 40.6103515625 570.834960938 c 0
 40.0927734375 583.157226562 56.2470703125 590 77.35546875 590 c 0
 105.109375 590 134.265625 577.306640625 145.193359375 561.7265625 c 0
 149.465820312 556.840820312 233.012695312 462.096679688 325.438476562 357.673828125 c 1
 420.193359375 464.73046875 501.422851562 556.852539062 505.685546875 561.7265625 c 0
 517.296875 578.282226562 546.380859375 590 573.5234375 590 c 0
 584.0234375 590 592.6796875 588.299804688 599.125976562 585.001953125 c 0
 610.176757812 578.967773438 613.391601562 567.680664062 606.646484375 556.921875 c 1
 606.431640625 555.869140625 l 1
EndSplineSet
EndChar

StartChar: Y
Encoding: 89 89 58
GlifName: Y_
Width: 681
GlyphClass: 2
Flags: MW
HStem: -65.3223 84.7959<273.86 386.999 272.318 411.341> 106.477 83.9941<282.829 384.992>
VStem: 56.0283 84.7959<341.039 451.36 341.039 472.932> 539.904 84.1104<187 187>
LayerCount: 2
Back
Fore
SplineSet
342.5625 190.470703125 m 0
 458.254882812 190.470703125 534.325195312 280.366210938 539.904296875 385.5 c 1
 539.904296875 557.599609375 l 2
 539.904296875 576.474609375 559.666992188 590.599609375 582.33203125 590.599609375 c 0
 605.379882812 590.599609375 623.573242188 576.541992188 624.260742188 558.283203125 c 0
 624.37890625 557.161132812 624.971679688 545.826171875 624.971679688 398.528320312 c 0
 624.971679688 390.671875 624.673828125 383.081054688 624.060546875 375.37890625 c 0
 624.1015625 217.466796875 624.12890625 188.181640625 624.014648438 186.658203125 c 0
 624.307617188 180.219726562 624.380859375 176.83203125 624.396484375 171.708007812 c 0
 624.916015625 2.98828125 492.852539062 -65.322265625 329.830078125 -65.322265625 c 0
 217.890625 -65.322265625 200.016601562 -66.677734375 195.376953125 -63.5380859375 c 0
 178.098632812 -58.5517578125 169.154296875 -42.2333984375 169.154296875 -22.55078125 c 0
 169.154296875 -0.0048828125 183.495117188 19.4990234375 202.984375 19.4990234375 c 2
 202.984375 19.4990234375 214.805664062 19.4736328125 329.830078125 19.4736328125 c 0
 444.166992188 19.4736328125 540.283203125 56.7392578125 540.283203125 169.522460938 c 2
 540.28125 183.67578125 l 2
 539.826171875 186.979492188 539.954101562 185.845703125 539.904296875 187.5859375 c 2
 539.904296875 193.606445312 l 1
 487.559570312 139.948242188 427.420898438 106.4765625 342.5625 106.4765625 c 0
 174.342773438 106.4765625 56.0283203125 237.875976562 56.0283203125 398.955078125 c 0
 56.0283203125 546.909179688 56.63671875 557.384765625 56.7392578125 558.354492188 c 0
 57.474609375 577.841796875 76.61328125 590.599609375 98.7998046875 590.599609375 c 0
 121.345703125 590.599609375 140.849609375 576.479492188 140.849609375 557.596679688 c 2
 140.849609375 557.596679688 140.82421875 507.120117188 140.82421875 395.599609375 c 0
 140.82421875 286.478515625 223.094726562 190.470703125 342.5625 190.470703125 c 0
EndSplineSet
AlternateSubs2: "'salt' Stylistic Alternatives in Latin lookup 0 subtable" uniE00D
EndChar

StartChar: Z
Encoding: 90 90 59
GlifName: Z_
Width: 718
GlyphClass: 2
Flags: MW
HStem: 0 84.7959<300.708 415.76 300.708 440.763> 247.147 84.7959 498.573 84.7959<305.815 420.787>
VStem: 52.4004 92.4707<147.287 188.191 147.287 267.046> 573.129 92.4707<391.978 434.149>
LayerCount: 2
Back
Fore
SplineSet
52.400390625 186.66015625 m 0
 52.400390625 347.431640625 146.291015625 331.943359375 220.283203125 331.943359375 c 0
 386.260742188 331.943359375 497.731445312 331.221679688 497.731445312 331.221679688 c 2
 595.030273438 330.96484375 573.12890625 390.05859375 573.12890625 393.897460938 c 0
 573.12890625 474.400390625 478.462890625 498.573242188 363.110351562 498.573242188 c 0
 248.51953125 498.573242188 88.001953125 498.547851562 88 498.547851562 c 0
 69.125 498.547851562 55 518.057617188 55 540.59765625 c 0
 55 563.142578125 69.134765625 582.647460938 87.9833984375 582.647460938 c 2
 87.9833984375 582.647460938 197.13671875 583.369140625 363.110351562 583.369140625 c 0
 528.734375 583.369140625 665.599609375 554.71484375 665.599609375 393.897460938 c 0
 665.599609375 230.704101562 571.708984375 246.42578125 499 246.42578125 c 0
 364.311523438 246.42578125 261.424804688 247.014648438 230.999023438 247.134765625 c 0
 228.079101562 247.138671875 224.955078125 247.142578125 221.616210938 247.147460938 c 0
 122.965820312 247.28125 144.87109375 190.051757812 144.87109375 186.331054688 c 0
 144.87109375 108.243164062 241.416992188 84.7958984375 360 84.7958984375 c 0
 471.520507812 84.7958984375 629.998046875 84.8212890625 630 84.8212890625 c 0
 648.875 84.8212890625 663 65.3115234375 663 42.771484375 c 0
 663 20.2265625 648.865234375 0.7216796875 630.016601562 0.7216796875 c 2
 630.016601562 0.7216796875 521.526367188 0 360 0 c 0
 189.737304688 0 52.400390625 28.2294921875 52.400390625 186.66015625 c 0
222.438476562 247.154296875 m 2
 222.438476562 247.154296875 224.560546875 247.146484375 227.887695312 247.146484375 c 1
 225.194335938 247.155273438 223.364257812 247.154296875 222.438476562 247.154296875 c 2
EndSplineSet
AlternateSubs2: "'salt' Stylistic Alternatives in Latin lookup 0 subtable" uniE017
EndChar

StartChar: bracketleft
Encoding: 91 91 60
GlifName: bracketleft
Width: 332
GlyphClass: 2
Flags: MW
HStem: -5.17188 84.7959<197.16 250.3> 500.976 84.7959<197.16 250.3 167.328 259.739>
VStem: 48.7002 92.4707<230.181 350.419 230.181 370.379>
LayerCount: 2
Back
Fore
SplineSet
250.299804688 585.771484375 m 1
 84.35546875 585.771484375 48.7001953125 450.458984375 48.7001953125 290.299804688 c 0
 48.7001953125 130.141601562 84.359375 -5.171875 250.299804688 -5.171875 c 1
 279.388671875 0 283.299804688 24.9140625 283.299804688 37.57421875 c 0
 283.299804688 60.1142578125 269.174804688 79.6240234375 250.299804688 79.6240234375 c 0
 144.01953125 79.6240234375 141.170898438 170.061523438 141.170898438 290.299804688 c 0
 141.170898438 410.538085938 144.01953125 500.975585938 250.299804688 500.975585938 c 0
 269.177734375 500.975585938 283.299804688 520.479492188 283.299804688 543.025390625 c 0
 283.299804688 555.685546875 280.388671875 577 250.299804688 585.771484375 c 1
EndSplineSet
EndChar

StartChar: backslash
Encoding: 92 92 61
GlifName: backslash
Width: 370
GlyphClass: 2
Flags: MW
VStem: 39.7441 290.35
LayerCount: 2
Back
Fore
SplineSet
39.744140625 588.33203125 m 2
 33.234375 607.497070312 48.2626953125 623 71.203125 623 c 0
 94.228515625 623 116.223632812 609.2109375 123.227539062 591.819335938 c 0
 124.274414062 589.591796875 330.076171875 29.7763671875 330.09375 29.7275390625 c 0
 337.091796875 10.7158203125 321.517578125 -5 298.65625 -5 c 0
 276.037109375 -5 253.106445312 8.6201171875 246.609375 26.2734375 c 2
 39.744140625 588.33203125 l 2
EndSplineSet
EndChar

StartChar: bracketright
Encoding: 93 93 62
GlifName: bracketright
Width: 333
GlyphClass: 2
Flags: MW
HStem: -5.17188 84.7959<82.2002 135.34 72.7627 165.17> 500.976 84.7959<82.2002 135.34>
VStem: 191.329 92.4707<230.181 350.419>
LayerCount: 2
Back
Fore
SplineSet
82.2001953125 585.771484375 m 1
 248.14453125 585.771484375 283.799804688 450.458984375 283.799804688 290.299804688 c 0
 283.799804688 130.141601562 248.140625 -5.171875 82.2001953125 -5.171875 c 1
 53.111328125 0 49.2001953125 24.9140625 49.2001953125 37.57421875 c 0
 49.2001953125 60.1142578125 63.3251953125 79.6240234375 82.2001953125 79.6240234375 c 0
 188.48046875 79.6240234375 191.329101562 170.061523438 191.329101562 290.299804688 c 0
 191.329101562 410.538085938 188.48046875 500.975585938 82.2001953125 500.975585938 c 0
 63.322265625 500.975585938 49.2001953125 520.479492188 49.2001953125 543.025390625 c 0
 49.2001953125 555.685546875 52.111328125 577 82.2001953125 585.771484375 c 1
EndSplineSet
EndChar

StartChar: asciicircum
Encoding: 94 94 63
GlifName: asciicircum
Width: 489
GlyphClass: 2
Flags: MW
HStem: 489 280<64.3071 255.98 233.343 424.693>
VStem: 49.0322 64.9297<519.695 523.331> 375.038 64.9307<519.695 523.331>
LayerCount: 2
Back
Fore
SplineSet
244.5 769 m 0
 267.4609375 769 289.702148438 754.760742188 296.311523438 738.348632812 c 0
 303.999023438 727.080078125 439.287109375 524.805664062 439.3046875 524.779296875 c 2
 439.75390625 524.108398438 l 1
 439.96875 523.331054688 l 2
 444.783203125 505.892578125 434.296875 489 415.08984375 489 c 0
 396.553710938 489 379.727539062 504.422851562 375.038085938 519.6953125 c 1
 244.5 689.139648438 l 1
 113.961914062 519.6953125 l 1
 108.833007812 502.9921875 91.8330078125 489 73.91015625 489 c 0
 54.7041015625 489 44.2177734375 505.892578125 49.0322265625 523.331054688 c 2
 49.2470703125 524.108398438 l 1
 49.6962890625 524.779296875 l 1
 49.6962890625 524.779296875 186.185546875 728.815429688 192.688476562 738.348632812 c 0
 199.801757812 756.010742188 222.186523438 769 244.5 769 c 0
EndSplineSet
EndChar

StartChar: underscore
Encoding: 95 95 64
GlifName: underscore
Width: 874
GlyphClass: 2
Flags: MW
HStem: -138.019 84.1143<100 100>
LayerCount: 2
Back
Fore
SplineSet
100.928710938 -53.904296875 m 2
 773 -53.904296875 l 2
 791.875 -53.904296875 806 -73.4150390625 806 -95.9541015625 c 0
 806 -118.528320312 791.666992188 -138.004882812 773.001953125 -138.00390625 c 0
 772.919921875 -138.00390625 101.307617188 -138.056640625 100.904296875 -138.018554688 c 0
 80.90234375 -137.276367188 68 -118.142578125 68 -95.9541015625 c 0
 68 -73.3046875 82.2578125 -54.4345703125 100.928710938 -53.904296875 c 2
EndSplineSet
EndChar

StartChar: grave
Encoding: 96 96 65
GlifName: grave
Width: 236
GlyphClass: 2
Flags: MW
HStem: 602.5 102.5<67.5439 123.825>
VStem: 45.3574 103.168
LayerCount: 2
Back
Fore
SplineSet
190.548828125 584.283203125 m 0
 193.083007812 565.223632812 143.264648438 556.69921875 113.506835938 552.547851562 c 2
 89.978515625 549.265625 l 1
 110.188476562 561.75390625 l 2
 132.672851562 575.646484375 147.779296875 578.716796875 137.1484375 605.875976562 c 1
 131.9140625 603.473632812 126.899414062 602.5 120.750976562 602.5 c 0
 93.1875 602.5 63.2783203125 625.096679688 50.9033203125 651.63671875 c 0
 47.2392578125 659.493164062 45.3671875 667.176757812 45.357421875 674.291992188 c 0
 45.33203125 691.962890625 57.470703125 705 77.6171875 705 c 0
 105.366210938 705 136.038085938 682.069335938 148.525390625 656.2734375 c 1
 163.569335938 635.178710938 188.975585938 603.5390625 190.548828125 584.283203125 c 0
EndSplineSet
EndChar

StartChar: a
Encoding: 97 97 66
GlifName: a
Width: 740
GlyphClass: 2
Flags: MW
HStem: 0 92.4707<307.075 415.64> 492.729 92.4707<307.076 432.925>
VStem: 54.2402 88.7324<239.701 345.498 239.701 373.444> 601.15 84.0996<7.87988 14.4707>
LayerCount: 2
Back
Fore
SplineSet
685.759765625 292.580078125 m 2
 685.25 15.185546875 l 2
 685.25 0.57421875 658.36328125 -1.28515625 641.41015625 -1.2919921875 c 0
 625.619140625 -1.298828125 601.150390625 0.177734375 601.150390625 14.470703125 c 2
 601.157226562 93.640625 l 1
 543.174804688 35.4912109375 461.279296875 0 370 0 c 0
 194.381835938 0 54.240234375 130.91015625 54.240234375 292.599609375 c 0
 54.240234375 454.2890625 194.381835938 585.19921875 370 585.19921875 c 0
 545.618164062 585.19921875 685.759765625 454.291992188 685.759765625 292.580078125 c 2
370 492.728515625 m 0
 244.15234375 492.728515625 142.97265625 398.396484375 142.97265625 292.599609375 c 0
 142.97265625 186.801757812 244.150390625 92.470703125 370 92.470703125 c 0
 495.84765625 92.470703125 597.02734375 186.801757812 597.02734375 292.599609375 c 0
 597.02734375 398.396484375 495.849609375 492.728515625 370 492.728515625 c 0
EndSplineSet
EndChar

StartChar: b
Encoding: 98 98 67
GlifName: b
Width: 743
GlyphClass: 2
Flags: MW
HStem: 0 92.4707<308.575 434.424 308.575 459.309> 492.729 92.4707<325.86 434.425>
VStem: 55.7402 84.6025 598.527 88.7324<239.701 345.499>
LayerCount: 2
Back
Fore
SplineSet
55.740234375 293.493164062 m 2
 56.25 713.731445312 l 2
 56.25 728.591796875 83.13671875 730.483398438 100.08984375 730.491210938 c 0
 115.880859375 730.498046875 140.349609375 729.021484375 140.349609375 714.728515625 c 2
 140.342773438 491.557617188 l 1
 198.325195312 549.708007812 280.219726562 585.19921875 371.5 585.19921875 c 0
 547.118164062 585.19921875 687.259765625 454.2890625 687.259765625 292.599609375 c 0
 687.259765625 130.91015625 547.118164062 0 371.5 0 c 0
 195.881835938 0 55.740234375 131.302734375 55.740234375 293.493164062 c 2
371.5 92.470703125 m 0
 497.34765625 92.470703125 598.52734375 186.802734375 598.52734375 292.599609375 c 0
 598.52734375 398.397460938 497.349609375 492.728515625 371.5 492.728515625 c 0
 245.65234375 492.728515625 144.47265625 398.397460938 144.47265625 292.599609375 c 0
 144.47265625 186.802734375 245.650390625 92.470703125 371.5 92.470703125 c 0
EndSplineSet
EndChar

StartChar: c
Encoding: 99 99 68
GlifName: c
Width: 704
GlyphClass: 2
Flags: MW
HStem: -0.171875 84.7959<296.91 410.06 296.91 435.063> 495.976 84.7959<293.388 406.531>
VStem: 46.7002 92.4707<233.601 346.999 233.601 370.383>
LayerCount: 2
Back
Fore
SplineSet
349.224609375 580.771484375 m 0
 515.21875 580.771484375 624.30859375 580.049804688 624.31640625 580.049804688 c 0
 643.161132812 580.049804688 657.299804688 560.5390625 657.299804688 538 c 0
 657.299804688 515.454101562 643.178710938 495.950195312 624.298828125 495.950195312 c 2
 624.298828125 495.950195312 463.836914062 495.975585938 349.224609375 495.975585938 c 0
 237.55078125 495.975585938 139.170898438 403.698242188 139.170898438 290.299804688 c 0
 139.170898438 176.901367188 239.520507812 84.6240234375 354.299804688 84.6240234375 c 0
 465.8203125 84.6240234375 624.297851562 84.6494140625 624.299804688 84.6494140625 c 0
 643.174804688 84.6494140625 657.299804688 65.1396484375 657.299804688 42.599609375 c 0
 657.299804688 20.0546875 643.165039062 0.5498046875 624.31640625 0.5498046875 c 2
 624.31640625 0.5498046875 515.826171875 -0.171875 354.299804688 -0.171875 c 0
 180.819335938 -0.171875 46.7001953125 130.1328125 46.7001953125 290.299804688 c 0
 46.7001953125 450.466796875 180.4375 580.771484375 349.224609375 580.771484375 c 0
EndSplineSet
EndChar

StartChar: d
Encoding: 100 100 69
GlifName: d
Width: 741
GlyphClass: 2
Flags: MW
HStem: 0 92.4707<307.575 433.424 307.575 458.309> 492.729 92.4707<307.576 416.276 282.691 433.425>
VStem: 54.7402 88.7324<239.701 345.499 239.701 373.444> 601.657 84.6025
LayerCount: 2
Back
Fore
SplineSet
640.673828125 730.486328125 m 0
 657.953125 730.629882812 685.75 728.827148438 685.75 713.731445312 c 2
 686.259765625 293.487304688 l 2
 686.259765625 131.307617188 546.118164062 0 370.5 0 c 0
 194.881835938 0 54.740234375 130.91015625 54.740234375 292.599609375 c 0
 54.740234375 454.2890625 194.881835938 585.19921875 370.5 585.19921875 c 0
 462.052734375 585.19921875 544.727539062 548.668945312 601.657226562 491.557617188 c 1
 601.650390625 714.728515625 l 2
 601.650390625 728.784179688 625.268554688 730.357421875 640.673828125 730.486328125 c 0
370.5 492.728515625 m 0
 244.65234375 492.728515625 143.47265625 398.397460938 143.47265625 292.599609375 c 0
 143.47265625 186.802734375 244.650390625 92.470703125 370.5 92.470703125 c 0
 496.34765625 92.470703125 597.52734375 186.802734375 597.52734375 292.599609375 c 0
 597.52734375 398.397460938 496.349609375 492.728515625 370.5 492.728515625 c 0
EndSplineSet
EndChar

StartChar: e
Encoding: 101 101 70
GlifName: e
Width: 697
GlyphClass: 2
Flags: W
LayerCount: 2
Back
Fore
SplineSet
645.840820312 156.776367188 m 0
 583.7578125 96.041015625 598.458984375 95.4453125 509.05078125 40.6015625 c 0
 372.880859375 -40.2822265625 164.016601562 -3.9462890625 81.650390625 136.120117188 c 0
 -0.576171875 276.185546875 53.771484375 458.247070312 203.05078125 542.3984375 c 0
 327.548828125 611.032226562 478.94140625 593.752929688 575.1484375 508.848632812 c 0
 585.248046875 499.702148438 603.677734375 485.99609375 616.896484375 471.669921875 c 0
 629.404296875 457.903320312 640.302734375 439.547851562 625.197265625 425.66015625 c 0
 562.66796875 366.740234375 495.786132812 311.201171875 425.967773438 258.077148438 c 0
 412.349609375 247.723632812 385.775390625 243.049804688 370.16796875 262.48828125 c 0
 355.755859375 280.4375 355.916015625 303.525390625 370.036132812 315.737304688 c 0
 396.8359375 338.110351562 512.827148438 423.563476562 515.004882812 441.385742188 c 1
 431.345703125 480.16796875 338.249023438 512.02734375 250.568359375 462.31640625 c 0
 142.0078125 402.450195312 104.275390625 272.176757812 158.495117188 180.486328125 c 0
 163.168945312 172.610351562 168.666015625 165.046875 174.772460938 157.848632812 c 0
 239.803710938 80.41796875 372.158203125 46.2666015625 460.725585938 114.796875 c 2
 585.2421875 210.07421875 l 2
 598.489257812 220.793945312 618.991210938 223.81640625 636.975585938 208.842773438 c 0
 654.56640625 195.135742188 659.524414062 169.37890625 645.840820312 156.776367188 c 0
EndSplineSet
AlternateSubs2: "'salt' Stylistic Alternatives in Latin lookup 0 subtable" uniE00A
EndChar

StartChar: f
Encoding: 102 102 71
GlifName: f
Width: 705
GlyphClass: 2
Flags: MW
HStem: 274 84.0996<191.66 191.663 191.663 191.702 191.66 576.073> 495.976 84.7959<293.891 407.034>
VStem: 47.2061 92.4678<290.137 290.137> 55.9824 84.0703
LayerCount: 2
Back
Fore
SplineSet
609.002929688 316.049804688 m 0xc0
 609.002929688 293.400390625 594.744140625 274.530273438 576.073242188 274 c 2
 191.663085938 274 l 2
 172.263671875 274 158.002929688 293.510742188 158.002929688 316.049804688 c 0
 158.002929688 338.624023438 172.479492188 358.100585938 191.66015625 358.099609375 c 0
 191.743164062 358.099609375 575.694335938 358.15234375 576.1015625 358.11328125 c 0
 596.09765625 357.372070312 609.002929688 338.23828125 609.002929688 316.049804688 c 0xc0
140.047851562 37.2783203125 m 0
 140.041992188 35.5751953125 140.057617188 33.9873046875 140.052734375 32.3310546875 c 0
 139.990234375 13.8544921875 120.555664062 0 98.0029296875 0 c 0
 74.955078125 0 56.6572265625 14.767578125 55.982421875 31.2783203125 c 0xd0
 55.7666015625 39.62109375 47.23046875 289.399414062 47.2060546875 290.13671875 c 2
 47.197265625 290.379882812 l 1
 47.2138671875 290.623046875 l 2
 57.8408203125 449.92578125 180.719726562 580.771484375 349.727539062 580.771484375 c 0
 515.733398438 580.771484375 624.819335938 580.049804688 624.819335938 580.049804688 c 2
 643.6640625 580.049804688 657.802734375 560.5390625 657.802734375 538 c 0
 657.802734375 515.454101562 643.680664062 495.950195312 624.801757812 495.950195312 c 2
 624.801757812 495.950195312 464.33984375 495.975585938 349.727539062 495.975585938 c 0
 238.053710938 495.975585938 139.673828125 403.323242188 139.673828125 289.463867188 c 0xe0
 139.673828125 185.552734375 139.959960938 61.7626953125 140.047851562 37.2783203125 c 0
EndSplineSet
EndChar

StartChar: g
Encoding: 103 103 72
GlifName: g
Width: 721
GlyphClass: 2
Flags: MW
HStem: -0.171875 84.7959<305.41 398.635 305.41 443.563> 495.976 84.7959<301.888 415.031>
VStem: 55.2002 92.4707<233.601 346.999 233.601 370.383> 581.696 84.1035<42.5967 84.6416>
LayerCount: 2
Back
Fore
SplineSet
357.724609375 580.771484375 m 0
 523.71875 580.771484375 632.80859375 580.049804688 632.81640625 580.049804688 c 0
 651.661132812 580.049804688 665.799804688 560.5390625 665.799804688 538 c 0
 665.799804688 515.454101562 651.678710938 495.950195312 632.798828125 495.950195312 c 2
 632.798828125 495.950195312 472.336914062 495.975585938 357.724609375 495.975585938 c 0
 246.05078125 495.975585938 147.670898438 403.698242188 147.670898438 290.299804688 c 0
 147.670898438 176.901367188 248.020507812 84.6240234375 362.799804688 84.6240234375 c 0
 434.469726562 84.6240234375 526.86328125 84.634765625 581.696289062 84.6416015625 c 1
 581.674804688 313.599609375 l 2
 581.673828125 332.474609375 601.184570312 346.599609375 623.724609375 346.599609375 c 0
 646.26953125 346.599609375 665.774414062 332.477539062 665.774414062 313.599609375 c 2
 665.799804688 42.5966796875 l 2
 665.787109375 20.041015625 651.658203125 0.5498046875 632.81640625 0.5498046875 c 2
 632.81640625 0.5498046875 524.326171875 -0.171875 362.799804688 -0.171875 c 0
 189.319335938 -0.171875 55.2001953125 130.1328125 55.2001953125 290.299804688 c 0
 55.2001953125 450.466796875 188.9375 580.771484375 357.724609375 580.771484375 c 0
EndSplineSet
AlternateSubs2: "'salt' Stylistic Alternatives in Latin lookup 0 subtable" uniE003
EndChar

StartChar: h
Encoding: 104 104 73
GlifName: h
Width: 683
GlyphClass: 2
Flags: MW
HStem: 400.129 84.1924<297.008 399.171>
VStem: 57.9395 84.1562 541.176 84.7959<139.24 249.561>
LayerCount: 2
Back
Fore
SplineSet
339.4375 400.12890625 m 0
 223.745117188 400.12890625 147.674804688 310.233398438 142.095703125 205.099609375 c 1
 142.095703125 33 l 2
 142.095703125 14.125 122.333007812 0 99.66796875 0 c 0
 76.6201171875 0 58.4267578125 14.0322265625 57.7392578125 32.2578125 c 0
 57.62109375 33.376953125 57.0283203125 44.6904296875 57.0283203125 191.719726562 c 0
 57.0283203125 199.560546875 57.326171875 207.138671875 57.939453125 214.826171875 c 0
 57.8974609375 375.0546875 57.95703125 584.419921875 57.95703125 584.419921875 c 2
 58.744140625 605.6640625 77.849609375 618 100.045898438 618 c 0
 122.696289062 618 141.5625 603.850585938 142.095703125 585.071289062 c 2
 142.095703125 397.15625 l 1
 194.440429688 450.836914062 254.579101562 484.321289062 339.4375 484.321289062 c 0
 507.657226562 484.321289062 625.971679688 352.868164062 625.971679688 191.72265625 c 0
 625.971679688 43.708984375 625.36328125 33.228515625 625.260742188 32.2578125 c 0
 624.525390625 12.763671875 605.38671875 0 583.200195312 0 c 0
 560.654296875 0 541.150390625 14.1201171875 541.150390625 33.0029296875 c 2
 541.150390625 33.0029296875 541.17578125 83.4794921875 541.17578125 195 c 0
 541.17578125 304.12109375 458.905273438 400.12890625 339.4375 400.12890625 c 0
EndSplineSet
AlternateSubs2: "'salt' Stylistic Alternatives in Latin lookup 0 subtable" uniE004
EndChar

StartChar: i
Encoding: 105 105 74
GlifName: i
Width: 207
GlyphClass: 2
Flags: MW
VStem: 61.4639 84.0996<28 28.041>
LayerCount: 2
Back
Fore
SplineSet
145.563476562 561.928710938 m 2
 145.563476562 28 l 2
 145.563476562 11.984375 126.052734375 0 103.513671875 0 c 0
 80.939453125 0 61.462890625 12.1630859375 61.4638671875 28 c 0
 61.4638671875 28.08203125 61.4111328125 561.21484375 61.4501953125 561.619140625 c 0
 62.19140625 578.870117188 81.3251953125 590 103.513671875 590 c 0
 126.1640625 590 145.034179688 577.845703125 145.563476562 561.928710938 c 2
EndSplineSet
EndChar

StartChar: j
Encoding: 106 106 75
GlifName: j
Width: 711
GlyphClass: 2
Flags: MW
HStem: 0 84.7959<297.438 410.587 297.438 440.051>
VStem: 567.952 84.0654 568.326 92.4766<290.392 290.392 290.392 343.263>
LayerCount: 2
Back
Fore
SplineSet
567.952148438 543.493164062 m 0xc0
 567.958007812 545.196289062 567.94140625 546.784179688 567.947265625 548.440429688 c 0
 568.009765625 566.916992188 587.444335938 580.771484375 609.997070312 580.771484375 c 0
 633.044921875 580.771484375 651.342773438 566.00390625 652.017578125 549.493164062 c 0xc0
 652.232421875 541.150390625 660.768554688 291.372070312 660.793945312 290.634765625 c 2
 660.802734375 290.391601562 l 1
 660.786132812 290.1484375 l 2
 650.158203125 130.845703125 526.904296875 0 353.197265625 0 c 0
 191.670898438 0 83.1806640625 0.7216796875 83.1806640625 0.7216796875 c 2
 64.3359375 0.7216796875 50.197265625 20.232421875 50.197265625 42.771484375 c 0
 50.197265625 65.3173828125 64.318359375 84.8212890625 83.1982421875 84.8212890625 c 2
 83.1982421875 84.8212890625 241.677734375 84.7958984375 353.197265625 84.7958984375 c 0
 467.9765625 84.7958984375 568.326171875 177.448242188 568.326171875 291.307617188 c 0xa0
 568.326171875 395.21875 568.040039062 519.008789062 567.952148438 543.493164062 c 0xc0
EndSplineSet
EndChar

StartChar: k
Encoding: 107 107 76
GlifName: k
Width: 592
GlyphClass: 2
Flags: MW
VStem: 48.0996 84.0996
LayerCount: 2
Back
Fore
SplineSet
540.336914062 33.1298828125 m 0
 542.547851562 28.6748046875 543.845703125 23.845703125 543.924804688 19.1142578125 c 0
 544.236328125 6.861328125 527.708984375 0 506.603515625 0 c 0
 479.202148438 0 449.555664062 12.080078125 439.107421875 28.0341796875 c 2
 301.0390625 254.661132812 l 1
 157.625976562 28 l 2
 147.181640625 12.0537109375 117.510742188 0 90.1494140625 0 c 0
 72.6416015625 0 59.7529296875 5.255859375 54.9072265625 13.21484375 c 0
 50.181640625 18.0927734375 48.099609375 22.54296875 48.099609375 28 c 0
 48.099609375 28.08203125 48.046875 589.21484375 48.0859375 589.619140625 c 0
 48.8271484375 606.870117188 67.9609375 618 90.1494140625 618 c 0
 112.799804688 618 131.666992188 605.938476562 132.19921875 589.928710938 c 2
 132.19921875 158.904296875 l 1
 166.120117188 214.424804688 208.784179688 281.649414062 248.744140625 344.483398438 c 1
 247.329101562 354.418945312 253.654296875 361.88671875 262.439453125 366.314453125 c 1
 337.421875 484.377929688 404.021484375 589.098632812 404.412109375 589.650390625 c 0
 416.764648438 606.885742188 445.508789062 618 472.7578125 618 c 0
 482.84375 618 491.24609375 616.416992188 497.655273438 613.372070312 c 0
 509.291015625 607.509765625 513.278320312 596.111328125 506.504882812 584.893554688 c 2
 355.952148438 342.1796875 l 1
 375.200195312 311.37109375 538.466796875 36.3193359375 540.336914062 33.1298828125 c 0
EndSplineSet
EndChar

StartChar: l
Encoding: 108 108 77
GlifName: l
Width: 701
GlyphClass: 2
Flags: MW
HStem: 0 84.7959<295.413 408.562 295.413 433.566>
VStem: 45.1973 92.4766<290.392 290.392> 53.9531 84.1055<543.508 548.42>
LayerCount: 2
Back
Fore
SplineSet
138.052734375 548.440429688 m 2xa0
 138.05859375 543.5078125 l 2xa0
 137.965820312 517.567382812 137.673828125 394.965820312 137.673828125 291.307617188 c 0
 137.673828125 177.448242188 238.0234375 84.7958984375 352.802734375 84.7958984375 c 0
 464.322265625 84.7958984375 622.80078125 84.8212890625 622.802734375 84.8212890625 c 0
 641.677734375 84.8212890625 655.802734375 65.3115234375 655.802734375 42.771484375 c 0
 655.802734375 20.2265625 641.66796875 0.7216796875 622.819335938 0.7216796875 c 2
 622.819335938 0.7216796875 514.329101562 0 352.802734375 0 c 0
 179.095703125 0 55.8408203125 130.845703125 45.2138671875 290.1484375 c 2
 45.197265625 290.391601562 l 1xc0
 53.953125 548.419921875 l 2
 54.0146484375 566.815429688 73.451171875 580.771484375 96.0029296875 580.771484375 c 0
 118.560546875 580.771484375 137.989257812 566.918945312 138.052734375 548.440429688 c 2xa0
EndSplineSet
EndChar

StartChar: m
Encoding: 109 109 78
GlifName: m
Width: 1086
GlyphClass: 2
Flags: MW
HStem: 498.129 92.4707<263.913 377.051 239.661 380.867 710.124 823.089>
VStem: 58.9551 84.7949<242.374 350.883 242.374 378.286> 500.519 85.9775<242.375 350.902> 942.25 84.7949<242.375 350.902>
LayerCount: 2
Back
Fore
SplineSet
1027.04492188 297.955078125 m 0
 1027.04492188 139.129882812 1026.32421875 32.4423828125 1026.32421875 32.4345703125 c 0
 1026.32421875 13.9033203125 1006.81347656 0 984.2734375 0 c 0
 961.727539062 0 942.224609375 13.84375 942.224609375 32.3515625 c 2
 942.224609375 32.3515625 942.25 187.711914062 942.25 297.037109375 c 0
 942.25 404.767578125 881.559570312 498.12890625 764.618164062 498.12890625 c 0
 647.674804688 498.12890625 586.49609375 404.767578125 586.49609375 297.037109375 c 0
 586.49609375 187.7109375 586.521484375 32.3525390625 586.521484375 32.3505859375 c 0
 586.521484375 13.8466796875 567.3125 0 543.12890625 0 c 0
 520.268554688 0 500.4921875 13.84375 500.4921875 32.3515625 c 2
 500.4921875 32.3515625 500.518554688 187.711914062 500.518554688 297.037109375 c 0
 500.518554688 404.767578125 439.337890625 498.12890625 322.395507812 498.12890625 c 0
 205.4296875 498.12890625 143.75 404.729492188 143.75 297.037109375 c 0
 143.75 187.7109375 143.775390625 32.3525390625 143.775390625 32.3505859375 c 0
 143.775390625 13.8466796875 124.266601562 0 101.7265625 0 c 0
 79.1806640625 0 59.67578125 13.8994140625 59.67578125 32.4345703125 c 2
 59.67578125 32.4345703125 58.955078125 139.118164062 58.955078125 297.955078125 c 0
 58.955078125 458.6171875 156.92578125 590.599609375 322.395507812 590.599609375 c 0
 431.70703125 590.599609375 493.823242188 531.235351562 543.506835938 446.670898438 c 1
 593.909179688 532.458007812 655.62890625 590.599609375 764.618164062 590.599609375 c 0
 930.091796875 590.599609375 1027.04492188 458.590820312 1027.04492188 297.955078125 c 0
EndSplineSet
EndChar

StartChar: n
Encoding: 110 110 79
GlifName: n
Width: 719
GlyphClass: 2
Flags: MW
HStem: 498.129 92.4707<299.768 419.232>
VStem: 59.0283 84.7959<242.374 350.298 242.374 378.705> 575.176 84.7959<242.375 350.298>
LayerCount: 2
Back
Fore
SplineSet
659.971679688 297.955078125 m 0
 659.971679688 139.129882812 659.25 32.4423828125 659.25 32.4345703125 c 0
 659.25 13.9033203125 639.739257812 0 617.200195312 0 c 0
 594.654296875 0 575.150390625 13.84375 575.150390625 32.3515625 c 2
 575.150390625 32.3515625 575.17578125 187.711914062 575.17578125 297.037109375 c 0
 575.17578125 403.559570312 478.96484375 498.12890625 359.5 498.12890625 c 0
 240.03515625 498.12890625 143.82421875 403.559570312 143.82421875 297.037109375 c 0
 143.82421875 187.7109375 143.849609375 32.3525390625 143.849609375 32.3505859375 c 0
 143.849609375 13.8466796875 124.33984375 0 101.799804688 0 c 0
 79.2548828125 0 59.75 13.8994140625 59.75 32.4345703125 c 2
 59.75 32.4345703125 59.0283203125 139.118164062 59.0283203125 297.955078125 c 0
 59.0283203125 459.454101562 191.932617188 590.599609375 359.5 590.599609375 c 0
 527.067382812 590.599609375 659.971679688 459.454101562 659.971679688 297.955078125 c 0
EndSplineSet
EndChar

StartChar: o
Encoding: 111 111 80
GlifName: o
Width: 736
GlyphClass: 2
Flags: MW
HStem: 0 92.4707<305.075 430.924 305.075 455.809> 492.729 92.4707<305.076 430.925>
VStem: 52.2402 88.7324<239.701 345.498 239.701 373.444> 595.027 88.7324<239.701 345.498>
LayerCount: 2
Back
Fore
SplineSet
368 492.728515625 m 0
 242.15234375 492.728515625 140.97265625 398.396484375 140.97265625 292.599609375 c 0
 140.97265625 186.801757812 242.150390625 92.470703125 368 92.470703125 c 0
 493.84765625 92.470703125 595.02734375 186.801757812 595.02734375 292.599609375 c 0
 595.02734375 398.396484375 493.849609375 492.728515625 368 492.728515625 c 0
368 0 m 0
 192.381835938 0 52.240234375 130.91015625 52.240234375 292.599609375 c 0
 52.240234375 454.2890625 192.381835938 585.19921875 368 585.19921875 c 0
 543.618164062 585.19921875 683.759765625 454.2890625 683.759765625 292.599609375 c 0
 683.759765625 130.91015625 543.618164062 0 368 0 c 0
EndSplineSet
EndChar

StartChar: p
Encoding: 112 112 81
GlifName: p
Width: 746
GlyphClass: 2
Flags: MW
HStem: 0 92.4707<327.224 435.924 310.075 460.809> 492.729 92.4707<310.076 435.925>
VStem: 57.75 84.0996<-98.0801 -91.5293 -98.5571 -90.5322> 600.027 88.7324<239.701 345.498>
LayerCount: 2
Back
Fore
SplineSet
102.826171875 -107.287109375 m 0
 85.546875 -107.430664062 57.75 -105.627929688 57.75 -90.5322265625 c 2
 57.240234375 291.939453125 l 2
 57.240234375 453.994140625 197.381835938 585.19921875 373 585.19921875 c 0
 548.618164062 585.19921875 688.759765625 454.2890625 688.759765625 292.599609375 c 0
 688.759765625 130.91015625 548.618164062 0 373 0 c 0
 281.447265625 0 198.772460938 36.53125 141.842773438 93.640625 c 1
 141.849609375 -91.529296875 l 2
 141.849609375 -105.584960938 118.231445312 -107.158203125 102.826171875 -107.287109375 c 0
373 92.470703125 m 0
 498.84765625 92.470703125 600.02734375 186.801757812 600.02734375 292.599609375 c 0
 600.02734375 398.396484375 498.849609375 492.728515625 373 492.728515625 c 0
 247.15234375 492.728515625 145.97265625 398.396484375 145.97265625 292.599609375 c 0
 145.97265625 186.801757812 247.150390625 92.470703125 373 92.470703125 c 0
EndSplineSet
EndChar

StartChar: q
Encoding: 113 113 82
GlifName: q
Width: 740
GlyphClass: 2
Flags: MW
HStem: 0 92.4707<307.075 415.64> 492.729 92.4707<307.076 432.925>
VStem: 54.2402 88.7324<239.701 345.498 239.701 373.444> 601.15 84.0996<-97.9624 -91.5293>
LayerCount: 2
Back
Fore
SplineSet
685.759765625 291.932617188 m 2
 685.25 -90.5322265625 l 2
 685.25 -105.392578125 658.36328125 -107.284179688 641.41015625 -107.291992188 c 0
 625.619140625 -107.298828125 601.150390625 -105.822265625 601.150390625 -91.529296875 c 2
 601.157226562 93.640625 l 1
 543.174804688 35.4912109375 461.280273438 0 370 0 c 0
 194.381835938 0 54.240234375 130.91015625 54.240234375 292.599609375 c 0
 54.240234375 454.2890625 194.381835938 585.19921875 370 585.19921875 c 0
 545.618164062 585.19921875 685.759765625 453.999023438 685.759765625 291.932617188 c 2
370 492.728515625 m 0
 244.15234375 492.728515625 142.97265625 398.396484375 142.97265625 292.599609375 c 0
 142.97265625 186.801757812 244.150390625 92.470703125 370 92.470703125 c 0
 495.84765625 92.470703125 597.02734375 186.801757812 597.02734375 292.599609375 c 0
 597.02734375 398.396484375 495.849609375 492.728515625 370 492.728515625 c 0
EndSplineSet
EndChar

StartChar: r
Encoding: 114 114 83
GlifName: r
Width: 706
GlyphClass: 2
Flags: MW
HStem: 495.976 84.7959<294.391 407.534>
VStem: 47.7061 92.4678<290.137 290.137> 56.4824 84.0654
LayerCount: 2
Back
Fore
SplineSet
140.547851562 37.2783203125 m 0xa0
 140.541992188 35.5751953125 140.557617188 33.9873046875 140.552734375 32.3310546875 c 0
 140.490234375 13.8544921875 121.055664062 0 98.5029296875 0 c 0
 75.455078125 0 57.1572265625 14.767578125 56.482421875 31.2783203125 c 0xa0
 56.2666015625 39.62109375 47.73046875 289.399414062 47.7060546875 290.13671875 c 2
 47.697265625 290.379882812 l 1
 47.7138671875 290.623046875 l 2
 58.3408203125 449.92578125 181.219726562 580.771484375 350.227539062 580.771484375 c 0
 516.233398438 580.771484375 625.319335938 580.049804688 625.319335938 580.049804688 c 2
 644.1640625 580.049804688 658.302734375 560.5390625 658.302734375 538 c 0
 658.302734375 515.454101562 644.180664062 495.950195312 625.301757812 495.950195312 c 2
 625.301757812 495.950195312 464.83984375 495.975585938 350.227539062 495.975585938 c 0
 238.553710938 495.975585938 140.173828125 403.323242188 140.173828125 289.463867188 c 0xc0
 140.173828125 185.552734375 140.459960938 61.7626953125 140.547851562 37.2783203125 c 0xa0
EndSplineSet
EndChar

StartChar: s
Encoding: 115 115 84
GlifName: s
Width: 717
GlyphClass: 2
Flags: MW
HStem: 0 84.7959<301.74 416.792 301.74 442.631> 247.146 84.7969<495.132 495.132> 493.573 84.7959<300.208 415.26>
VStem: 51.9004 90.5703 572.629 92.4707<147.287 187.863>
LayerCount: 2
Back
Fore
SplineSet
221.088867188 331.221679688 m 0
 221.096679688 331.221679688 335.717773438 331.943359375 498.5 331.943359375 c 0
 511.07421875 331.943359375 524.217773438 332.44140625 537.388671875 332.442382812 c 0
 601.172851562 332.451171875 665.099609375 319.05078125 665.099609375 186.66015625 c 0
 665.099609375 28.23046875 527.76171875 0 357.5 0 c 0
 195.973632812 0 87.4833984375 0.7216796875 87.4833984375 0.7216796875 c 2
 68.638671875 0.7216796875 54.5 20.232421875 54.5 42.771484375 c 0
 54.5 65.3173828125 68.62109375 84.8212890625 87.5009765625 84.8212890625 c 2
 87.5009765625 84.8212890625 245.98046875 84.7958984375 357.5 84.7958984375 c 0
 476.083007812 84.7958984375 572.62890625 108.243164062 572.62890625 186.331054688 c 0
 572.62890625 189.395507812 574.536132812 193.029296875 574.53125 201.23828125 c 0
 574.5234375 218.104492188 566.928710938 247.243164062 495.883789062 247.147460938 c 2
 495.131835938 247.146484375 l 2
 486.711914062 249.450195312 372.5234375 246.42578125 218.5 246.42578125 c 0
 205.92578125 246.42578125 192.782226562 245.927734375 179.611328125 245.926757812 c 0
 115.827148438 245.91796875 51.900390625 259.318359375 51.900390625 391.708984375 c 0
 51.900390625 550.138671875 189.23828125 578.369140625 359.5 578.369140625 c 0
 521.026367188 578.369140625 629.516601562 577.647460938 629.516601562 577.647460938 c 2
 648.361328125 577.647460938 662.5 558.13671875 662.5 535.59765625 c 0
 662.5 513.051757812 648.37890625 493.547851562 629.499023438 493.547851562 c 2
 629.499023438 493.547851562 471.01953125 493.573242188 359.5 493.573242188 c 0
 240.916992188 493.573242188 144.37109375 470.125976562 144.37109375 392.038085938 c 0
 144.37109375 388.9921875 142.545898438 385.5703125 142.470703125 377.598632812 c 0
 142.311523438 360.7265625 149.484375 331.04296875 221.088867188 331.221679688 c 0
EndSplineSet
AlternateSubs2: "'salt' Stylistic Alternatives in Latin lookup 0 subtable" uniE016
EndChar

StartChar: t
Encoding: 116 116 85
GlifName: t
Width: 606
GlyphClass: 2
Flags: MW
HStem: 507.337 82.7129<72 72>
VStem: 259.427 87.1465<32.4482 32.4482>
LayerCount: 2
Back
Fore
SplineSet
40 548.701171875 m 0
 40 570.973632812 54.2578125 589.528320312 72.9287109375 590.049804688 c 2
 288.1640625 590.049804688 l 2
 293.516601562 591.471679688 297.698242188 592 303 592 c 0
 308.107421875 592 314.596679688 590.90234375 317.78515625 590.049804688 c 2
 533 590.049804688 l 2
 551.875 590.049804688 566 570.864257812 566 548.701171875 c 0
 566 526.502929688 551.666015625 507.350585938 533.001953125 507.3515625 c 2
 533.001953125 507.3515625 446.567382812 507.3125 346.573242188 507.286132812 c 1
 346.573242188 32.4501953125 l 2
 346.573242188 13.8896484375 326.35546875 0 303 0 c 0
 279.607421875 0 259.42578125 14.0947265625 259.426757812 32.4482421875 c 2
 259.426757812 32.4482421875 259.286132812 371.899414062 259.346679688 507.266601562 c 1
 156.510742188 507.250976562 73.9921875 507.243164062 72.9404296875 507.336914062 c 0
 52.8720703125 508.068359375 40 526.881835938 40 548.701171875 c 0
EndSplineSet
EndChar

StartChar: u
Encoding: 117 117 86
GlifName: u
Width: 716
GlyphClass: 2
Flags: MW
HStem: 0 92.4707<298.268 417.732 298.268 441.784>
VStem: 57.5283 84.7959<240.301 348.225 240.301 372.063> 573.676 84.7959<240.301 348.226>
LayerCount: 2
Back
Fore
SplineSet
615.700195312 590.599609375 m 0
 638.245117188 590.599609375 657.75 576.729492188 657.75 558.165039062 c 2
 657.75 558.165039062 658.471679688 451.481445312 658.471679688 292.64453125 c 0
 658.471679688 131.145507812 525.567382812 0 358 0 c 0
 190.432617188 0 57.5283203125 131.145507812 57.5283203125 292.64453125 c 0
 57.5283203125 451.481445312 58.25 558.165039062 58.25 558.165039062 c 2
 58.25 576.696289062 77.7607421875 590.599609375 100.299804688 590.599609375 c 0
 122.845703125 590.599609375 142.349609375 576.755859375 142.349609375 558.248046875 c 2
 142.349609375 558.248046875 142.32421875 402.887695312 142.32421875 293.5625 c 0
 142.32421875 187.040039062 238.53515625 92.470703125 358 92.470703125 c 0
 477.46484375 92.470703125 573.67578125 187.040039062 573.67578125 293.5625 c 0
 573.67578125 402.888671875 573.650390625 558.247070312 573.650390625 558.249023438 c 0
 573.650390625 576.752929688 593.16015625 590.599609375 615.700195312 590.599609375 c 0
EndSplineSet
EndChar

StartChar: v
Encoding: 118 118 87
GlifName: v
Width: 611
GlyphClass: 2
Flags: MW
VStem: 470.679 84.0654 471.053 92.4766<294.67 294.67 294.67 347.753>
LayerCount: 2
Back
Fore
SplineSet
209.395507812 31.2734375 m 2x40
 209.344726562 31.41015625 l 1
 48.96484375 555.470703125 l 2
 42.54296875 574.377929688 57.5166015625 590 80.470703125 590 c 0
 103.573242188 590 125.276367188 576.74609375 132.748046875 558.19140625 c 0
 132.912109375 557.801757812 239.782226562 213.776367188 280.186523438 85.158203125 c 1
 384.448242188 96.0966796875 471.052734375 185.9453125 471.052734375 294.75 c 0x40
 471.052734375 400.755859375 470.766601562 527.041992188 470.678710938 552.01953125 c 0
 470.684570312 553.756835938 470.668945312 555.377929688 470.673828125 557.06640625 c 0
 470.736328125 575.916015625 490.170898438 590.049804688 512.723632812 590.049804688 c 0
 535.771484375 590.049804688 554.069335938 575.02734375 554.744140625 558.233398438 c 0x80
 554.959960938 549.747070312 563.49609375 295.66796875 563.520507812 294.91796875 c 2
 563.529296875 294.669921875 l 1
 563.512695312 294.422851562 l 2
 552.885742188 132.376953125 429.877929688 -0.7216796875 259.249023438 -0.7216796875 c 0
 215.546875 -0.7216796875 214.896484375 21.87109375 209.395507812 31.2734375 c 2x40
EndSplineSet
AlternateSubs2: "'salt' Stylistic Alternatives in Latin lookup 0 subtable" uniE015
EndChar

StartChar: w
Encoding: 119 119 88
GlifName: w
Width: 1084
GlyphClass: 2
Flags: MW
HStem: 0 92.4707<261.911 374.876 707.949 821.087>
VStem: 57.9551 84.7949<239.697 348.225 239.697 372.057> 498.504 85.9775<239.697 348.225 239.697 348.226> 941.25 84.7949<239.716 348.226>
LayerCount: 2
Back
Fore
SplineSet
57.955078125 292.64453125 m 0
 57.955078125 451.469726562 58.67578125 558.157226562 58.67578125 558.165039062 c 0
 58.67578125 576.696289062 78.1865234375 590.599609375 100.7265625 590.599609375 c 0
 123.272460938 590.599609375 142.775390625 576.755859375 142.775390625 558.248046875 c 2
 142.775390625 558.248046875 142.75 402.887695312 142.75 293.5625 c 0
 142.75 185.83203125 203.440429688 92.470703125 320.381835938 92.470703125 c 0
 437.325195312 92.470703125 498.50390625 185.83203125 498.50390625 293.5625 c 0
 498.50390625 402.888671875 498.478515625 558.247070312 498.478515625 558.249023438 c 0
 498.478515625 576.752929688 517.6875 590.599609375 541.87109375 590.599609375 c 0
 564.731445312 590.599609375 584.5078125 576.755859375 584.5078125 558.248046875 c 2
 584.5078125 558.248046875 584.481445312 402.887695312 584.481445312 293.5625 c 0
 584.481445312 185.83203125 645.662109375 92.470703125 762.604492188 92.470703125 c 0
 879.5703125 92.470703125 941.25 185.870117188 941.25 293.5625 c 0
 941.25 402.888671875 941.224609375 558.247070312 941.224609375 558.249023438 c 0
 941.224609375 576.752929688 960.733398438 590.599609375 983.2734375 590.599609375 c 0
 1005.81933594 590.599609375 1025.32421875 576.700195312 1025.32421875 558.165039062 c 2
 1025.32421875 558.165039062 1026.04492188 451.481445312 1026.04492188 292.64453125 c 0
 1026.04492188 131.982421875 928.07421875 0 762.604492188 0 c 0
 653.29296875 0 591.176757812 59.3642578125 541.493164062 143.928710938 c 1
 491.090820312 58.1416015625 429.37109375 0 320.381835938 0 c 0
 154.908203125 0 57.955078125 132.008789062 57.955078125 292.64453125 c 0
EndSplineSet
EndChar

StartChar: x
Encoding: 120 120 89
GlifName: x
Width: 651
GlyphClass: 2
Flags: W
LayerCount: 2
Back
Fore
SplineSet
606.431640625 555.869140625 m 1
 379.991210938 295.049804688 l 1
 495.56640625 163.809570312 606.038085938 34.5947265625 606.159179688 34.4521484375 c 2
 606.390625 34.1787109375 l 1
 606.580078125 33.2998046875 l 2
 609.032226562 28.5341796875 610.408203125 23.5185546875 610.442382812 18.515625 c 0
 610.567382812 6.5869140625 594.310546875 0 573.5234375 0 c 0
 545.766601562 0 516.630859375 12.6533203125 505.65625 28.283203125 c 2
 325.438476562 232.438476562 l 1
 145.22265625 28.283203125 l 2
 133.553710938 11.6640625 104.506835938 0 77.35546875 0 c 0
 66.587890625 0 57.7041015625 1.8125 51.171875 5.287109375 c 0
 40.41796875 11.431640625 37.298828125 22.712890625 44.298828125 33.2998046875 c 1
 44.48828125 34.1787109375 l 1
 44.71875 34.4521484375 l 1
 44.71875 34.4521484375 156.840820312 165.599609375 270.883789062 295.049804688 c 1
 44.4462890625 555.869140625 l 1
 44.2314453125 556.921875 l 2
 42.0185546875 561.446289062 40.740234375 566.147460938 40.6103515625 570.834960938 c 0
 40.0927734375 583.157226562 56.2470703125 590 77.35546875 590 c 0
 105.109375 590 134.265625 577.306640625 145.193359375 561.7265625 c 0
 149.465820312 556.840820312 233.012695312 462.096679688 325.438476562 357.673828125 c 1
 420.193359375 464.73046875 501.422851562 556.852539062 505.685546875 561.7265625 c 0
 517.296875 578.282226562 546.380859375 590 573.5234375 590 c 0
 584.0234375 590 592.6796875 588.299804688 599.125976562 585.001953125 c 0
 610.176757812 578.967773438 613.391601562 567.680664062 606.646484375 556.921875 c 1
 606.431640625 555.869140625 l 1
EndSplineSet
EndChar

StartChar: y
Encoding: 121 121 90
GlifName: y
Width: 681
GlyphClass: 2
Flags: MW
HStem: -65.3223 84.7959<273.86 386.999 272.318 411.341> 106.477 83.9941<282.829 384.992>
VStem: 56.0283 84.7959<341.039 451.36 341.039 472.932> 539.904 84.1104<187 187>
LayerCount: 2
Back
Fore
SplineSet
342.5625 190.470703125 m 0
 458.254882812 190.470703125 534.325195312 280.366210938 539.904296875 385.5 c 1
 539.904296875 557.599609375 l 2
 539.904296875 576.474609375 559.666992188 590.599609375 582.33203125 590.599609375 c 0
 605.379882812 590.599609375 623.573242188 576.541992188 624.260742188 558.283203125 c 0
 624.37890625 557.161132812 624.971679688 545.826171875 624.971679688 398.528320312 c 0
 624.971679688 390.671875 624.673828125 383.081054688 624.060546875 375.37890625 c 0
 624.1015625 217.466796875 624.12890625 188.181640625 624.014648438 186.658203125 c 0
 624.307617188 180.219726562 624.380859375 176.83203125 624.396484375 171.708007812 c 0
 624.916015625 2.98828125 492.852539062 -65.322265625 329.830078125 -65.322265625 c 0
 217.890625 -65.322265625 200.016601562 -66.677734375 195.376953125 -63.5380859375 c 0
 178.098632812 -58.5517578125 169.154296875 -42.2333984375 169.154296875 -22.55078125 c 0
 169.154296875 -0.0048828125 183.495117188 19.4990234375 202.984375 19.4990234375 c 2
 202.984375 19.4990234375 214.805664062 19.4736328125 329.830078125 19.4736328125 c 0
 444.166992188 19.4736328125 540.283203125 56.7392578125 540.283203125 169.522460938 c 2
 540.28125 183.67578125 l 2
 539.826171875 186.979492188 539.954101562 185.845703125 539.904296875 187.5859375 c 2
 539.904296875 193.606445312 l 1
 487.559570312 139.948242188 427.420898438 106.4765625 342.5625 106.4765625 c 0
 174.342773438 106.4765625 56.0283203125 237.875976562 56.0283203125 398.955078125 c 0
 56.0283203125 546.909179688 56.63671875 557.384765625 56.7392578125 558.354492188 c 0
 57.474609375 577.841796875 76.61328125 590.599609375 98.7998046875 590.599609375 c 0
 121.345703125 590.599609375 140.849609375 576.479492188 140.849609375 557.596679688 c 2
 140.849609375 557.596679688 140.82421875 507.120117188 140.82421875 395.599609375 c 0
 140.82421875 286.478515625 223.094726562 190.470703125 342.5625 190.470703125 c 0
EndSplineSet
AlternateSubs2: "'salt' Stylistic Alternatives in Latin lookup 0 subtable" uniE00D
EndChar

StartChar: z
Encoding: 122 122 91
GlifName: z
Width: 719
GlyphClass: 2
Flags: MW
HStem: 0 84.7959<301.208 416.26 301.208 441.263> 247.147 84.7959 493.573 84.7959<302.74 417.792>
VStem: 52.9004 92.4707<147.287 188.191 147.287 267.046> 573.629 92.4707<390.176 431.082>
LayerCount: 2
Back
Fore
SplineSet
52.900390625 186.66015625 m 0
 52.900390625 347.431640625 146.791015625 331.943359375 219.5 331.943359375 c 0
 382.298828125 331.943359375 496.890625 331.221679688 496.890625 331.221679688 c 2
 595.530273438 330.97265625 573.62890625 388.313476562 573.62890625 392.038085938 c 0
 573.62890625 470.125976562 477.083007812 493.573242188 358.5 493.573242188 c 0
 246.979492188 493.573242188 88.501953125 493.547851562 88.5 493.547851562 c 0
 69.625 493.547851562 55.5 513.057617188 55.5 535.59765625 c 0
 55.5 558.142578125 69.634765625 577.647460938 88.4833984375 577.647460938 c 2
 88.4833984375 577.647460938 196.973632812 578.369140625 358.5 578.369140625 c 0
 528.762695312 578.369140625 666.099609375 550.139648438 666.099609375 391.708984375 c 0
 666.099609375 230.9375 572.208984375 246.42578125 499.5 246.42578125 c 0
 364.811523438 246.42578125 261.924804688 247.014648438 231.499023438 247.134765625 c 0
 228.579101562 247.138671875 225.455078125 247.142578125 222.116210938 247.147460938 c 0
 123.465820312 247.28125 145.37109375 190.051757812 145.37109375 186.331054688 c 0
 145.37109375 108.243164062 241.916992188 84.7958984375 360.5 84.7958984375 c 0
 472.020507812 84.7958984375 630.498046875 84.8212890625 630.5 84.8212890625 c 0
 649.375 84.8212890625 663.5 65.3115234375 663.5 42.771484375 c 0
 663.5 20.2265625 649.365234375 0.7216796875 630.516601562 0.7216796875 c 2
 630.516601562 0.7216796875 522.026367188 0 360.5 0 c 0
 190.237304688 0 52.900390625 28.2294921875 52.900390625 186.66015625 c 0
222.938476562 247.154296875 m 2
 222.938476562 247.154296875 225.060546875 247.146484375 228.387695312 247.146484375 c 1
 225.694335938 247.155273438 223.864257812 247.154296875 222.938476562 247.154296875 c 2
EndSplineSet
AlternateSubs2: "'salt' Stylistic Alternatives in Latin lookup 0 subtable" uniE017
EndChar

StartChar: braceleft
Encoding: 123 123 92
GlifName: braceleft
Width: 324
GlyphClass: 2
Flags: MW
HStem: -5.17188 84.7959<218.943 247.455> 500.976 84.7959<195.357 247.455 176.155 256.895>
VStem: 93.6113 83.5762 93.6133 92.7129
LayerCount: 2
Back
Fore
SplineSet
247.455078125 -5.171875 m 1xe0
 102.68359375 -5.171875 93.53125 99.4287109375 93.611328125 227.848632812 c 1xe0
 77.263671875 245.587890625 63.30078125 260.74609375 59.63671875 264.73828125 c 0
 49.142578125 270.055664062 43.544921875 281.0390625 43.544921875 292.6484375 c 0
 43.544921875 304.8671875 50.513671875 315.935546875 59.63671875 320.55859375 c 0
 63.72265625 325.008789062 79.43359375 342.063476562 93.61328125 357.44921875 c 1
 93.767578125 484.993164062 104.85546875 585.771484375 247.455078125 585.771484375 c 0
 273.888671875 585 280.455078125 555.685546875 280.455078125 543.025390625 c 0
 280.455078125 520.479492188 266.333984375 500.975585938 247.455078125 500.975585938 c 0
 143.259765625 500.975585938 186.326171875 316.08203125 186.326171875 290.299804688 c 0xd0
 186.326171875 277.805664062 177.314453125 234.796875 177.1875 189.764648438 c 0
 177.02734375 133.090820312 190.431640625 79.6240234375 247.455078125 79.6240234375 c 0
 266.330078125 79.6240234375 280.455078125 60.1142578125 280.455078125 37.57421875 c 0
 280.455078125 24.9140625 272.888671875 0 247.455078125 -5.171875 c 1xe0
EndSplineSet
EndChar

StartChar: bar
Encoding: 124 124 93
GlifName: bar
Width: 209
GlyphClass: 2
Flags: MW
VStem: 62.4648 84.0996<-22.002 -22 -22 -21.9609>
LayerCount: 2
Back
Fore
SplineSet
146.564453125 650.071289062 m 2
 146.564453125 -22 l 2
 146.564453125 -40.875 127.053710938 -55 104.514648438 -55 c 0
 81.9404296875 -55 62.4638671875 -40.6669921875 62.46484375 -22.001953125 c 0
 62.46484375 -21.919921875 62.412109375 649.692382812 62.4501953125 650.095703125 c 0
 63.1923828125 670.09765625 82.326171875 683 104.514648438 683 c 0
 127.165039062 683 146.034179688 668.7421875 146.564453125 650.071289062 c 2
EndSplineSet
EndChar

StartChar: braceright
Encoding: 125 125 94
GlifName: braceright
Width: 326
GlyphClass: 2
Flags: MW
HStem: -5.17188 84.7959<77.5449 106.057 68.1074 149.931> 500.976 84.7959<77.5449 129.643>
VStem: 138.674 92.7129 147.812 83.5762
LayerCount: 2
Back
Fore
SplineSet
77.544921875 -5.171875 m 1xd0
 222.31640625 -5.171875 231.46875 99.4287109375 231.388671875 227.848632812 c 1xd0
 247.736328125 245.587890625 261.69921875 260.74609375 265.36328125 264.73828125 c 0
 275.857421875 270.055664062 281.455078125 281.0390625 281.455078125 292.6484375 c 0
 281.455078125 304.8671875 274.486328125 315.935546875 265.36328125 320.55859375 c 0
 261.27734375 325.008789062 245.56640625 342.063476562 231.38671875 357.44921875 c 1
 231.232421875 484.993164062 220.14453125 585.771484375 77.544921875 585.771484375 c 0
 51.111328125 585 44.544921875 555.685546875 44.544921875 543.025390625 c 0
 44.544921875 520.479492188 58.666015625 500.975585938 77.544921875 500.975585938 c 0
 181.740234375 500.975585938 138.673828125 316.08203125 138.673828125 290.299804688 c 0xe0
 138.673828125 277.805664062 147.685546875 234.796875 147.8125 189.764648438 c 0
 147.97265625 133.090820312 134.568359375 79.6240234375 77.544921875 79.6240234375 c 0
 58.669921875 79.6240234375 44.544921875 60.1142578125 44.544921875 37.57421875 c 0
 44.544921875 24.9140625 52.111328125 0 77.544921875 -5.171875 c 1xd0
EndSplineSet
EndChar

StartChar: asciitilde
Encoding: 126 126 95
GlifName: asciitilde
Width: 479
GlyphClass: 2
Flags: MW
VStem: 59.0898 65.1025 354.807 65.1025
LayerCount: 2
Back
Fore
SplineSet
258.045898438 371.41796875 m 1
 273.430664062 358.49609375 267.466796875 354.83203125 272.05078125 337.721679688 c 0
 276.400390625 321.489257812 288.625 307.932617188 321.987304688 316.872070312 c 0
 356.790039062 326.197265625 358.481445312 346.185546875 354.806640625 359.896484375 c 0
 352.220703125 369.546875 357.005859375 390.247070312 364.391601562 396.651367188 c 0
 368.024414062 399.80078125 373.387695312 398.206054688 375.70703125 395.130859375 c 0
 377.081054688 395.702148438 378.584960938 396.291015625 380.01953125 396.67578125 c 0
 394.817382812 400.640625 414.965820312 395.788085938 419.909179688 377.340820312 c 0
 442.092773438 294.548828125 377.0625 257.880859375 340.423828125 248.0625 c 0
 310.208984375 239.967773438 252.336914062 235.184570312 220.954101562 286.58203125 c 1
 205.568359375 299.50390625 211.533203125 303.16796875 206.948242188 320.278320312 c 0
 202.599609375 336.510742188 190.374023438 350.067382812 157.012695312 341.127929688 c 0
 122.208984375 331.802734375 120.518554688 311.814453125 124.192382812 298.103515625 c 0
 126.778320312 288.453125 121.993164062 267.752929688 114.607421875 261.348632812 c 0
 110.975585938 258.19921875 105.612304688 259.793945312 103.291992188 262.869140625 c 0
 101.91796875 262.297851562 100.415039062 261.708984375 98.9794921875 261.32421875 c 0
 84.1826171875 257.359375 64.033203125 262.211914062 59.08984375 280.659179688 c 0
 36.9072265625 363.451171875 101.9375 400.119140625 138.576171875 409.9375 c 0
 168.790039062 418.032226562 226.662109375 422.815429688 258.045898438 371.41796875 c 1
EndSplineSet
EndChar

StartChar: exclamdown
Encoding: 161 161 97
GlifName: exclamdown
Width: 210
GlyphClass: 2
Flags: MW
HStem: 482.5 102.5<91.6587 119.658>
VStem: 55.625 98.75<520.037 547.463 520.037 547.56> 62.9043 84.1133<27 27>
LayerCount: 2
Back
Fore
SplineSet
154.375 533.75 m 0xc0
 154.375 506.323242188 133.690429688 482.5 105.625 482.5 c 0
 77.6923828125 482.5 55.625 506.130859375 55.625 533.75 c 0
 55.625 561.369140625 77.6923828125 585 105.625 585 c 0
 133.690429688 585 154.375 561.176757812 154.375 533.75 c 0xc0
62.904296875 27.6787109375 m 2xa0
 62.904296875 423.75 l 2
 62.904296875 442.625 82.4150390625 456.75 104.954101562 456.75 c 0
 127.528320312 456.75 147.004882812 442.416015625 147.00390625 423.752929688 c 0
 147.00390625 423.673828125 147.056640625 28.0546875 147.017578125 27.6513671875 c 0
 146.276367188 7.6552734375 127.142578125 -5.25 104.954101562 -5.25 c 0
 82.3046875 -5.25 63.4345703125 9.0078125 62.904296875 27.6787109375 c 2xa0
EndSplineSet
EndChar

StartChar: cent
Encoding: 162 162 98
GlifName: cent
Width: 541
GlyphClass: 2
Flags: MW
HStem: 72.0439 66.0547<328.07 328.07> 451.608 66.0547<328.07 328.07>
VStem: 44.0254 71.8525<255.84 333.566 255.84 352.48> 243.933 84.1377
LayerCount: 2
Back
Fore
SplineSet
243.879882812 449.438476562 m 1
 173.33984375 436.815429688 115.877929688 372.279296875 115.877929688 294.853515625 c 0
 115.877929688 216.826171875 174.5625 152.647460938 243.932617188 140.259765625 c 1
 243.904296875 231.690429688 243.879882812 359.630859375 243.879882812 449.438476562 c 1
328.0703125 517.663085938 m 1
 418.690429688 517.526367188 469.806640625 517.173828125 470.991210938 517.166015625 c 0
 486.083984375 517.166015625 496.974609375 501.69921875 496.974609375 484.37890625 c 0
 496.974609375 467.055664062 486.099609375 451.590820312 470.973632812 451.590820312 c 2
 328.0703125 451.608398438 l 1
 328.0703125 138.098632812 l 1
 470.974609375 138.116210938 l 2
 486.098632812 138.116210938 496.974609375 122.649414062 496.974609375 105.328125 c 0
 496.974609375 88.005859375 486.084960938 72.541015625 470.991210938 72.541015625 c 2
 470.991210938 72.541015625 413.934570312 72.1708984375 328.0703125 72.0439453125 c 1
 328.0703125 28 l 2
 328.0703125 9.125 308.559570312 -5 286.020507812 -5 c 0
 263.446289062 -5 243.969726562 9.333984375 243.970703125 27.998046875 c 2
 243.954101562 73.318359375 l 1
 131.458984375 85.5478515625 44.025390625 180.215820312 44.025390625 294.853515625 c 0
 44.025390625 410.107421875 132.711914062 504.264648438 243.895507812 516.381835938 c 1
 243.911132812 546.846679688 243.918945312 561.075195312 243.918945312 561.075195312 c 2
 244.729492188 582.952148438 263.8203125 595 286.020507812 595 c 0
 308.669921875 595 327.540039062 580.7421875 328.0703125 562.071289062 c 2
 328.0703125 517.663085938 l 1
EndSplineSet
EndChar

StartChar: sterling
Encoding: 163 163 99
GlifName: sterling
Width: 693
GlyphClass: 2
Flags: MW
HStem: -5 84.0996<79.5 613.571> 247.622 84.1777<150.819 291.006> 500.426 84.7959<297.441 400.459>
LayerCount: 2
Back
Fore
SplineSet
234.6484375 331.799804688 m 2
 241.3125 332.288085938 248.006835938 332.521484375 255.099609375 332.521484375 c 0
 407.680664062 332.521484375 417.489257812 331.895507812 418.28125 331.810546875 c 0
 438.125976562 331.075195312 451.099609375 311.936523438 451.099609375 289.75 c 0
 451.099609375 266.700195312 436.895507812 248.37890625 418.200195312 247.686523438 c 0
 416.97265625 247.568359375 332.924804688 247.622070312 249.086914062 247.622070312 c 0
 163.436523438 244.65234375 178.056640625 175.569335938 150.096679688 79.099609375 c 1
 613.571289062 79.099609375 l 2
 632.353515625 78.56640625 646.5 59.6962890625 646.5 37.0498046875 c 0
 646.5 14 632.298828125 -4.3203125 613.596679688 -5.0146484375 c 0
 611.228515625 -5.2412109375 79.5498046875 -5 79.5 -5 c 0
 60.833984375 -5.0009765625 46.5 14.4814453125 46.5 37.0498046875 c 0
 46.5 119.1015625 57.8623046875 194.258789062 90.1064453125 247.694335938 c 1
 80.099609375 247.700195312 l 2
 61.43359375 247.69921875 47.099609375 267.181640625 47.099609375 289.75 c 0
 47.099609375 452.674804688 180.465820312 585.221679688 344.69921875 585.221679688 c 0
 506.2109375 585.221679688 534.76171875 584.5 534.76171875 584.5 c 2
 553.522460938 584.5 567.69921875 564.989257812 567.69921875 542.450195312 c 0
 567.69921875 519.904296875 553.578125 500.400390625 534.697265625 500.400390625 c 2
 534.697265625 500.400390625 456.219726562 500.42578125 344.69921875 500.42578125 c 0
 250.182617188 500.42578125 182.516601562 427.275390625 150.819335938 331.799804688 c 1
 234.6484375 331.799804688 l 2
EndSplineSet
EndChar

StartChar: currency
Encoding: 164 164 100
GlifName: currency
Width: 511
GlyphClass: 2
Flags: MW
HStem: 68.1504 31<48.1904 83.0127> 123.013 56.3896<238.716 272.263> 405.797 56.3896<238.738 272.284 238.738 289.439> 486.049 31
VStem: 78.5098 54.2871<273.845 301.479 262.774 311.328> 378.203 54.2871<283.721 311.354 273.871 322.425>
LayerCount: 2
Back
Fore
SplineSet
386.640625 91.2412109375 m 2
 347.173828125 147.561523438 l 1
 320.077148438 131.829101562 289.025390625 123.012695312 255.5 123.012695312 c 0
 221.932617188 123.012695312 189.4609375 132.677734375 163.827148438 147.561523438 c 1
 124.359375 91.2412109375 l 2
 115.357421875 78.9130859375 93.587890625 68.150390625 72.4375 68.150390625 c 0
 63.912109375 68.150390625 56.791015625 69.92578125 51.5634765625 73.3271484375 c 0
 43.361328125 78.6650390625 40.841796875 88.43359375 46.7001953125 96.9775390625 c 2
 48.1904296875 99.150390625 l 2
 52.1220703125 99.150390625 97.28125 169.837890625 112.815429688 192.325195312 c 1
 91.0830078125 220.724609375 78.509765625 255.08984375 78.509765625 292.599609375 c 0
 78.509765625 330.056640625 91.8427734375 365.245117188 112.42578125 392.361328125 c 1
 92.9228515625 420.806640625 71.080078125 452.6640625 46.7001953125 488.221679688 c 0
 44.6796875 491.16796875 43.4833984375 494.415039062 43.3935546875 497.732421875 c 0
 43.05859375 510.231445312 56.5712890625 517.048828125 72.4375 517.048828125 c 0
 93.5869140625 517.048828125 115.359375 506.283203125 124.359375 493.958007812 c 2
 163.827148438 437.637695312 l 1
 190.922851562 453.370117188 221.975585938 462.186523438 255.5 462.186523438 c 0
 289.068359375 462.186523438 321.5390625 452.521484375 347.173828125 437.637695312 c 1
 386.640625 493.958007812 l 2
 395.642578125 506.286132812 417.412109375 517.048828125 438.5625 517.048828125 c 0
 447.087890625 517.048828125 454.208984375 515.2734375 459.436523438 511.872070312 c 0
 467.638671875 506.534179688 470.158203125 496.765625 464.299804688 488.221679688 c 2
 462.809570312 486.048828125 l 2
 458.87890625 486.048828125 413.71875 415.361328125 398.184570312 392.874023438 c 1
 419.91796875 364.474609375 432.490234375 330.109375 432.490234375 292.599609375 c 0
 432.490234375 255.142578125 419.157226562 219.954101562 398.57421875 192.836914062 c 1
 417.498046875 165.236328125 439.3046875 133.431640625 464.299804688 96.9775390625 c 0
 466.3203125 94.03125 467.516601562 90.7841796875 467.606445312 87.466796875 c 0
 467.94140625 74.9677734375 454.428710938 68.150390625 438.5625 68.150390625 c 0
 417.421875 68.150390625 395.592773438 78.9814453125 386.640625 91.2412109375 c 2
132.796875 292.599609375 m 0
 132.796875 232.948242188 187.62109375 179.40234375 255.5 179.40234375 c 0
 303.161132812 179.40234375 344.387695312 205.801757812 364.716796875 242.178710938 c 1
 296.423828125 341.796875 238.051757812 426.950195312 364.728515625 242.19921875 c 1
 373.34375 257.624023438 378.203125 274.841796875 378.203125 292.599609375 c 0
 378.203125 352.25 323.37890625 405.796875 255.5 405.796875 c 0
 207.83984375 405.796875 166.614257812 379.397460938 146.284179688 343.022460938 c 1
 238.346679688 208.735351562 336.075195312 66.177734375 146.271484375 342.999023438 c 1
 137.655273438 327.57421875 132.796875 310.357421875 132.796875 292.599609375 c 0
398.557617188 192.815429688 m 1
 398.43359375 192.651367188 398.30859375 192.48828125 398.184570312 192.325195312 c 0
 419.415039062 161.592773438 455.524414062 109.43359375 462.734375 99.203125 c 2
 462.734375 99.203125 433.19921875 142.284179688 398.557617188 192.815429688 c 1
112.443359375 392.384765625 m 1
 112.815429688 392.874023438 l 1
 91.5849609375 423.606445312 55.4765625 475.765625 48.265625 485.99609375 c 2
 48.265625 485.99609375 76.6826171875 444.547851562 112.443359375 392.384765625 c 1
EndSplineSet
EndChar

StartChar: yen
Encoding: 165 165 101
GlifName: yen
Width: 696
GlyphClass: 2
Flags: MW
HStem: -32.4004 21G<551.115 573.535> 21.5186 47.0059 81.5195 47.0059 103 92.4707<270.068 369.125>
VStem: 46.5137 84.7969<346.039 456.36 346.039 475.872> 520.391 84.1562
LayerCount: 2
Back
Fore
SplineSet
520.390625 390.5 m 1xdc
 520.390625 562.599609375 l 2
 520.390625 581.474609375 540.154296875 595.599609375 562.818359375 595.599609375 c 0
 585.8671875 595.599609375 604.059570312 581.328125 604.747070312 562.7890625 c 0
 604.865234375 561.651367188 605.45703125 550.143554688 605.45703125 400.599609375 c 0
 605.45703125 392.625 605.161132812 384.916992188 604.546875 377.09765625 c 0
 604.567382812 295.758789062 604.584960938 200.84375 604.581054688 128.525390625 c 1
 630.486328125 128.525390625 l 2
 641.861328125 128.525390625 649.486328125 117.095703125 649.486328125 105 c 0
 649.486328125 92.876953125 641.752929688 81.4736328125 630.490234375 81.4755859375 c 2
 630.490234375 81.4755859375 618.25 81.4677734375 604.576171875 81.4609375 c 1
 604.572265625 68.5244140625 l 1
 630.486328125 68.5244140625 l 2
 641.861328125 68.5244140625 649.486328125 57.0947265625 649.486328125 45 c 0
 649.486328125 32.875 641.752929688 21.474609375 630.489257812 21.474609375 c 2
 604.545898438 21.4599609375 l 1
 604.53125 6.8193359375 604.534179688 1.611328125 604.481445312 0.0595703125 c 0
 603.770507812 -19.1259765625 584.629882812 -32.400390625 562.439453125 -32.400390625 c 0
 539.790039062 -32.400390625 520.923828125 -18.2509765625 520.390625 0.5283203125 c 2
 520.390625 21.4287109375 l 1
 489.283203125 21.42578125 473.506835938 21.361328125 469.81640625 21.5185546875 c 0
 459.087890625 22.3134765625 451.986328125 33.2724609375 451.986328125 45 c 0
 451.986328125 57.2001953125 459.6328125 68.2041015625 470.915039062 68.5244140625 c 2
 520.390625 68.5244140625 l 1
 520.390625 81.4287109375 l 1
 489.283203125 81.4267578125 473.505859375 81.3623046875 469.81640625 81.51953125 c 0
 459.087890625 82.314453125 451.986328125 93.2744140625 451.986328125 105 c 0
 451.986328125 117.201171875 459.6328125 128.205078125 470.915039062 128.525390625 c 2
 520.390625 128.525390625 l 1xec
 520.390625 191.655273438 l 1
 468.575195312 137.057617188 410.264648438 103 327.986328125 103 c 0
 164.828125 103 46.513671875 236.700195312 46.513671875 400.599609375 c 0
 46.513671875 551.14453125 47.123046875 561.802734375 47.2255859375 562.791015625 c 0
 47.9609375 582.6171875 67.099609375 595.599609375 89.28515625 595.599609375 c 0
 111.831054688 595.599609375 131.3359375 581.479492188 131.3359375 562.596679688 c 2
 131.3359375 562.596679688 131.310546875 512.120117188 131.310546875 400.599609375 c 0
 131.310546875 291.478515625 212.149414062 195.470703125 327.986328125 195.470703125 c 0
 440.16015625 195.470703125 514.811523438 285.366210938 520.390625 390.5 c 1xdc
EndSplineSet
EndChar

StartChar: brokenbar
Encoding: 166 166 102
GlifName: brokenbar
Width: 208
GlyphClass: 2
Flags: MW
VStem: 62.2373 84.0996<27.9961 28 28 28.0352>
LayerCount: 2
Back
Fore
SplineSet
146.336914062 300.071289062 m 2
 146.336914062 28 l 2
 146.336914062 9.125 126.826171875 -5 104.287109375 -5 c 0
 81.712890625 -5 62.236328125 9.3349609375 62.2373046875 27.99609375 c 0
 62.2373046875 28.07421875 62.1845703125 299.6953125 62.2236328125 300.102539062 c 0
 62.96484375 320.091796875 82.0986328125 333 104.287109375 333 c 0
 126.936523438 333 145.806640625 318.7421875 146.336914062 300.071289062 c 2
145.791015625 672.071289062 m 2
 145.791015625 400 l 2
 145.791015625 381.125 126.280273438 367 103.741210938 367 c 0
 81.1669921875 367 61.6904296875 381.334960938 61.69140625 399.99609375 c 0
 61.69140625 400.07421875 61.638671875 671.6953125 61.677734375 672.102539062 c 0
 62.4189453125 692.091796875 81.552734375 705 103.741210938 705 c 0
 126.390625 705 145.260742188 690.7421875 145.791015625 672.071289062 c 2
EndSplineSet
EndChar

StartChar: section
Encoding: 167 167 103
GlifName: section
Width: 701
GlyphClass: 2
Flags: MW
HStem: -5 84.7959<298.74 410.631 298.74 435.093> 141.3 66.9951<335.733 367.544 335.733 386.509> 246.465 85.04 376.904 66.9951<333.885 368.811> 498.573 84.7959<290.369 402.26>
VStem: 48.9004 92.4707<392.467 434.149 392.467 474.305> 559.629 92.4707<144.22 185.903>
LayerCount: 2
Back
Fore
SplineSet
198.999023438 331.84765625 m 1
 217.471679688 397.034179688 278.838867188 443.899414062 351.5 443.899414062 c 0
 424.55078125 443.899414062 485.4765625 396.251953125 503.909179688 332.17578125 c 1
 510.999023438 332.311523438 517.0625 332.434570312 523.8125 332.442382812 c 0
 587.774414062 332.520507812 652.099609375 319.271484375 652.099609375 184.471679688 c 0
 652.099609375 23.65625 515.685546875 -5 354.5 -5 c 0
 192.973632812 -5 84.4833984375 -4.2783203125 84.4833984375 -4.2783203125 c 2
 65.638671875 -4.2783203125 51.5 15.232421875 51.5 37.771484375 c 0
 51.5 60.3173828125 65.62109375 79.8212890625 84.5009765625 79.8212890625 c 2
 84.5009765625 79.8212890625 242.98046875 79.7958984375 354.5 79.7958984375 c 0
 466.76171875 79.7958984375 559.62890625 103.96875 559.62890625 184.471679688 c 0
 559.62890625 187.333984375 560.721679688 188.938476562 561.264648438 194.463867188 c 0
 562.828125 210.346679688 560.568359375 240.982421875 501.901367188 246.51171875 c 1
 480.89453125 184.565429688 421.518554688 141.299804688 351.5 141.299804688 c 0
 281.081054688 141.299804688 222.03515625 185.4140625 201.177734375 246.270507812 c 1
 192.333984375 246.109375 185.225585938 245.93359375 176.958007812 245.926757812 c 0
 113.06640625 245.875976562 48.900390625 259.265625 48.900390625 393.897460938 c 0
 48.900390625 554.712890625 185.314453125 583.369140625 346.5 583.369140625 c 0
 508.026367188 583.369140625 616.516601562 582.647460938 616.516601562 582.647460938 c 2
 635.361328125 582.647460938 649.5 563.13671875 649.5 540.59765625 c 0
 649.5 518.051757812 635.37890625 498.547851562 616.499023438 498.547851562 c 2
 616.499023438 498.547851562 458.01953125 498.573242188 346.5 498.573242188 c 0
 234.23828125 498.573242188 141.37109375 474.400390625 141.37109375 393.897460938 c 0
 141.37109375 391.037109375 140.278320312 389.422851562 139.734375 383.885742188 c 0
 138.171875 367.9609375 140.600585938 337.251953125 198.999023438 331.84765625 c 1
431.931640625 331.916992188 m 1
 416.056640625 358.51171875 386.122070312 376.904296875 351.5 376.904296875 c 0
 316.26953125 376.904296875 285.989257812 357.255859375 270.827148438 331.504882812 c 1
 308.471679688 331.666015625 364.912109375 331.849609375 431.931640625 331.916992188 c 1
275.552734375 246.46484375 m 1
 292.440429688 223.462890625 319.966796875 208.294921875 351.5 208.294921875 c 0
 383.587890625 208.294921875 411.608398438 224.634765625 427.771484375 246.915039062 c 1
 389.861328125 246.744140625 338.805664062 246.549804688 275.552734375 246.46484375 c 1
EndSplineSet
EndChar

StartChar: dieresis
Encoding: 168 168 104
GlifName: dieresis
Width: 374
GlyphClass: 2
Flags: MW
HStem: 606.25 98.75<99.5366 126.963 247.037 274.463>
VStem: 62 102.5<640.967 668.966> 209.5 102.5<640.967 668.966>
LayerCount: 2
Back
Fore
SplineSet
113.25 606.25 m 0
 85.8232421875 606.25 62 626.934570312 62 655 c 0
 62 682.932617188 85.630859375 705 113.25 705 c 0
 140.869140625 705 164.5 682.932617188 164.5 655 c 0
 164.5 626.934570312 140.676757812 606.25 113.25 606.25 c 0
260.75 606.25 m 0
 233.323242188 606.25 209.5 626.934570312 209.5 655 c 0
 209.5 682.932617188 233.130859375 705 260.75 705 c 0
 288.369140625 705 312 682.932617188 312 655 c 0
 312 626.934570312 288.176757812 606.25 260.75 606.25 c 0
EndSplineSet
EndChar

StartChar: copyright
Encoding: 169 169 105
GlifName: copyright
Width: 717
GlyphClass: 2
Flags: MW
HStem: -5 92.4707<297.183 419.817 297.183 444.066> 140.064 47.3975<305.7 360.03 305.7 372.539> 393.138 47.3975<305.7 360.03> 497.729 92.4707<297.183 419.817>
VStem: 47.7402 88.7324<238.379 346.82 238.379 374.826> 180.85 51.2363<261.947 318.653 261.947 331.729> 580.527 88.7324<238.379 346.82>
LayerCount: 2
Back
Fore
SplineSet
136.47265625 292.599609375 m 0
 136.47265625 184.158203125 235.865234375 87.470703125 358.5 87.470703125 c 0
 481.133789062 87.470703125 580.52734375 184.158203125 580.52734375 292.599609375 c 0
 580.52734375 401.040039062 481.134765625 497.728515625 358.5 497.728515625 c 0
 235.866210938 497.728515625 136.47265625 401.040039062 136.47265625 292.599609375 c 0
47.740234375 292.599609375 m 0
 47.740234375 457.052734375 187.3671875 590.19921875 358.5 590.19921875 c 0
 529.6328125 590.19921875 669.259765625 457.052734375 669.259765625 292.599609375 c 0
 669.259765625 128.146484375 529.6328125 -5 358.5 -5 c 0
 187.3671875 -5 47.740234375 128.146484375 47.740234375 292.599609375 c 0
467.166992188 440.174804688 m 0
 478.51171875 440.174804688 486.150390625 428.745117188 486.150390625 416.650390625 c 0
 486.150390625 404.553710938 478.526367188 393.125 467.149414062 393.125 c 2
 467.149414062 393.125 387.909179688 393.137695312 332.150390625 393.137695312 c 0
 279.249023438 393.137695312 232.0859375 347.005859375 232.0859375 290.299804688 c 0
 232.0859375 233.59375 279.249023438 187.461914062 332.150390625 187.461914062 c 0
 387.91015625 187.461914062 467.1484375 187.474609375 467.150390625 187.474609375 c 0
 478.525390625 187.474609375 486.150390625 176.045898438 486.150390625 163.94921875 c 0
 486.150390625 151.854492188 478.51171875 140.424804688 467.166992188 140.424804688 c 2
 467.166992188 140.424804688 412.926757812 140.064453125 332.150390625 140.064453125 c 0
 248.666992188 140.064453125 180.849609375 207.44140625 180.849609375 290.299804688 c 0
 180.849609375 373.158203125 248.666992188 440.53515625 332.150390625 440.53515625 c 0
 412.915039062 440.53515625 467.159179688 440.174804688 467.166992188 440.174804688 c 0
EndSplineSet
EndChar

StartChar: ordfeminine
Encoding: 170 170 106
GlifName: ordfeminine
Width: 326
GlyphClass: 2
Flags: MW
HStem: 490.18 38.8652<142.358 177.602> 666.135 38.8652<142.358 183.642>
VStem: 50.9844 37.5557<579.613 615.566 579.613 627.329> 238.902 35.9355<494.024 498.84 494.024 501.705>
LayerCount: 2
Back
Fore
SplineSet
274.837890625 498.83984375 m 2
 274.837890625 489.208984375 261.342773438 489.791992188 256.9375 489.732421875 c 0
 252.650390625 489.674804688 238.90234375 488.715820312 238.90234375 498.495117188 c 0
 238.90234375 504.9140625 238.903320312 513.763671875 238.904296875 518.645507812 c 1
 218.208007812 500.502929688 192.203125 490.1796875 163 490.1796875 c 0
 101.430664062 490.1796875 50.984375 538.111328125 50.984375 597.58984375 c 0
 50.984375 657.067382812 101.430664062 705 163 705 c 0
 224.569335938 705 275.015625 657.075195312 275.015625 597.581054688 c 2
 274.837890625 498.83984375 l 2
88.5400390625 597.58984375 m 0
 88.5400390625 561.63671875 121.715820312 529.044921875 163 529.044921875 c 0
 204.283203125 529.044921875 237.459960938 561.63671875 237.459960938 597.58984375 c 0
 237.459960938 633.54296875 204.284179688 666.134765625 163 666.134765625 c 0
 121.716796875 666.134765625 88.5400390625 633.54296875 88.5400390625 597.58984375 c 0
EndSplineSet
EndChar

StartChar: guillemotleft
Encoding: 171 171 107
GlifName: guillemotleft
Width: 596
GlyphClass: 2
Flags: MW
HStem: 147.532 64.9297<292.169 295.805> 473.538 64.9297<292.169 295.805>
LayerCount: 2
Back
Fore
SplineSet
269.5 343 m 0
 269.5 365.959960938 283.739257812 388.202148438 300.151367188 394.811523438 c 0
 311.419921875 402.498046875 513.694335938 537.787109375 513.720703125 537.8046875 c 2
 514.391601562 538.252929688 l 1
 515.168945312 538.467773438 l 2
 532.607421875 543.282226562 549.5 532.795898438 549.5 513.58984375 c 0
 549.5 495.053710938 534.077148438 478.227539062 518.8046875 473.538085938 c 1
 349.360351562 343 l 1
 518.8046875 212.461914062 l 1
 535.5078125 207.333007812 549.5 190.333007812 549.5 172.41015625 c 0
 549.5 153.203125 532.607421875 142.717773438 515.168945312 147.532226562 c 2
 514.391601562 147.747070312 l 1
 513.720703125 148.1953125 l 1
 513.720703125 148.1953125 309.684570312 284.685546875 300.151367188 291.188476562 c 0
 282.489257812 298.301757812 269.5 320.685546875 269.5 343 c 0
46.5 343 m 0
 46.5 365.959960938 60.7392578125 388.202148438 77.1513671875 394.811523438 c 0
 88.419921875 402.498046875 290.694335938 537.787109375 290.720703125 537.8046875 c 2
 291.391601562 538.252929688 l 1
 292.168945312 538.467773438 l 2
 309.607421875 543.282226562 326.5 532.795898438 326.5 513.58984375 c 0
 326.5 495.053710938 311.077148438 478.227539062 295.8046875 473.538085938 c 1
 126.360351562 343 l 1
 295.8046875 212.461914062 l 1
 312.5078125 207.333007812 326.5 190.333007812 326.5 172.41015625 c 0
 326.5 153.203125 309.607421875 142.717773438 292.168945312 147.532226562 c 2
 291.391601562 147.747070312 l 1
 290.720703125 148.1953125 l 1
 290.720703125 148.1953125 86.6845703125 284.685546875 77.1513671875 291.188476562 c 0
 59.4892578125 298.301757812 46.5 320.685546875 46.5 343 c 0
EndSplineSet
EndChar

StartChar: logicalnot
Encoding: 172 172 108
GlifName: logicalnot
Width: 603
GlyphClass: 2
Flags: MW
HStem: 266.904 84.0996<90.4971 90.5 90.5 90.5381 90.4971 461.309>
VStem: 461.4 84.0996<177.946 177.946>
LayerCount: 2
Back
Fore
SplineSet
461.30859375 266.904296875 m 1
 90.5 266.904296875 l 2
 71.625 266.904296875 57.5 286.415039062 57.5 308.954101562 c 0
 57.5 331.528320312 71.833984375 351.004882812 90.4970703125 351.00390625 c 0
 90.5791015625 351.00390625 512.192382812 351.056640625 512.598632812 351.017578125 c 0
 532.595703125 350.276367188 545.5 331.142578125 545.5 308.954101562 c 2
 545.5 177.954101562 l 2
 545.5 159.079101562 525.989257812 144.954101562 503.450195312 144.954101562 c 0
 480.875976562 144.954101562 461.399414062 159.29296875 461.400390625 177.946289062 c 2
 461.400390625 177.946289062 461.31640625 230.647460938 461.30859375 266.904296875 c 1
EndSplineSet
EndChar

StartChar: uni00AD
Encoding: 173 173 109
GlifName: uni00A_D_
Width: 524
GlyphClass: 2
Flags: MW
HStem: 266.904 84.0996<89.4971 89.5 89.5 89.5371 89.4971 434.571>
LayerCount: 2
Back
Fore
SplineSet
434.571289062 266.904296875 m 2
 89.5 266.904296875 l 2
 70.625 266.904296875 56.5 286.415039062 56.5 308.954101562 c 0
 56.5 331.528320312 70.8349609375 351.004882812 89.4970703125 351.00390625 c 0
 89.5771484375 351.00390625 434.192382812 351.056640625 434.600585938 351.017578125 c 0
 454.59375 350.276367188 467.5 331.142578125 467.5 308.954101562 c 0
 467.5 286.3046875 453.2421875 267.434570312 434.571289062 266.904296875 c 2
EndSplineSet
EndChar

StartChar: registered
Encoding: 174 174 110
GlifName: registered
Width: 717
GlyphClass: 2
Flags: MW
HStem: -5 92.4707<297.183 419.817 297.183 444.066> 393.181 47.3975<325.2 379.53> 497.729 92.4707<297.183 419.817>
VStem: 47.7402 88.7324<238.379 346.82 238.379 374.826> 200.353 51.2334<290.175 290.175> 580.527 88.7324<238.379 346.82>
LayerCount: 2
Back
Fore
SplineSet
136.47265625 292.599609375 m 0
 136.47265625 184.158203125 235.865234375 87.470703125 358.5 87.470703125 c 0
 481.133789062 87.470703125 580.52734375 184.158203125 580.52734375 292.599609375 c 0
 580.52734375 401.040039062 481.134765625 497.728515625 358.5 497.728515625 c 0
 235.866210938 497.728515625 136.47265625 401.040039062 136.47265625 292.599609375 c 0
47.740234375 292.599609375 m 0
 47.740234375 457.052734375 187.3671875 590.19921875 358.5 590.19921875 c 0
 529.6328125 590.19921875 669.259765625 457.052734375 669.259765625 292.599609375 c 0
 669.259765625 128.146484375 529.6328125 -5 358.5 -5 c 0
 187.3671875 -5 47.740234375 128.146484375 47.740234375 292.599609375 c 0
251.775390625 159.176757812 m 0
 251.737304688 147.827148438 240.358398438 140.193359375 228.25 140.193359375 c 0
 215.581054688 140.193359375 205.502929688 148.530273438 204.74609375 158.348632812 c 0
 204.590820312 164.033203125 200.370117188 289.657226562 200.352539062 290.174804688 c 2
 200.34375 290.422851562 l 1
 200.360351562 290.669921875 l 2
 205.749023438 372.821289062 267.952148438 440.578125 351.650390625 440.578125 c 0
 432.426757812 440.578125 486.666992188 440.217773438 486.666992188 440.217773438 c 2
 498.01171875 440.217773438 505.650390625 428.788085938 505.650390625 416.693359375 c 0
 505.650390625 404.596679688 498.026367188 393.16796875 486.649414062 393.16796875 c 2
 486.649414062 393.16796875 407.409179688 393.180664062 351.650390625 393.180664062 c 0
 298.749023438 393.180664062 251.5859375 347.048828125 251.5859375 290.342773438 c 0
 251.5859375 240.165039062 251.724609375 180.399414062 251.7734375 164.291992188 c 0
 251.766601562 162.40625 251.78125 160.90234375 251.775390625 159.176757812 c 0
EndSplineSet
EndChar

StartChar: macron
Encoding: 175 175 111
GlifName: macron
Width: 864
GlyphClass: 2
Flags: MW
HStem: 620.886 84.1143<95 95>
LayerCount: 2
Back
Fore
SplineSet
95.9287109375 705 m 2
 768 705 l 2
 786.875 705 801 685.489257812 801 662.950195312 c 0
 801 640.375976562 786.666992188 620.899414062 768.001953125 620.900390625 c 0
 767.919921875 620.900390625 96.3076171875 620.84765625 95.904296875 620.885742188 c 0
 75.90234375 621.627929688 63 640.76171875 63 662.950195312 c 0
 63 685.599609375 77.2578125 704.469726562 95.9287109375 705 c 2
EndSplineSet
EndChar

StartChar: degree
Encoding: 176 176 112
GlifName: degree
Width: 353
GlyphClass: 2
Flags: MW
HStem: 459.818 43.1953<152.571 200.427 152.571 211.709> 662.166 43.1953<152.573 200.429>
VStem: 48.4316 41.6895<561.686 603.494 561.686 616.568> 262.879 41.6895<561.686 603.494>
LayerCount: 2
Back
Fore
SplineSet
90.12109375 582.58984375 m 0
 90.12109375 540.782226562 128.641601562 503.013671875 176.5 503.013671875 c 0
 224.353515625 503.013671875 262.87890625 540.782226562 262.87890625 582.58984375 c 0
 262.87890625 624.397460938 224.358398438 662.166015625 176.5 662.166015625 c 0
 128.646484375 662.166015625 90.12109375 624.397460938 90.12109375 582.58984375 c 0
48.431640625 582.58984375 m 0
 48.431640625 650.545898438 106.081054688 705.361328125 176.5 705.361328125 c 0
 246.918945312 705.361328125 304.568359375 650.546875 304.568359375 582.58984375 c 0
 304.568359375 514.633789062 246.918945312 459.818359375 176.5 459.818359375 c 0
 106.081054688 459.818359375 48.431640625 514.6328125 48.431640625 582.58984375 c 0
EndSplineSet
EndChar

StartChar: plusminus
Encoding: 177 177 113
GlifName: plusminus
Width: 581
GlyphClass: 2
Flags: MW
HStem: -5 84.0996<79.2471 79.25 79.25 79.2881 79.2471 501.321> 325 84.0996<79.748 79.748 79.748 79.75 79.748 248.7>
VStem: 248.7 84.1152<155 155>
LayerCount: 2
Back
Fore
SplineSet
501.321289062 -5 m 2
 79.25 -5 l 2
 60.375 -5 46.25 14.5107421875 46.25 37.0498046875 c 0
 46.25 59.6240234375 60.583984375 79.1005859375 79.2470703125 79.099609375 c 0
 79.3291015625 79.099609375 500.942382812 79.15234375 501.348632812 79.11328125 c 0
 521.345703125 78.3720703125 534.25 59.23828125 534.25 37.0498046875 c 0
 534.25 14.400390625 519.9921875 -4.4697265625 501.321289062 -5 c 2
501.821289062 325 m 2
 332.88671875 325 l 1
 332.90234375 232.666992188 332.91015625 157.049804688 332.815429688 155.994140625 c 0
 332.071289062 135.918945312 312.939453125 123.049804688 290.75 123.049804688 c 0
 268.099609375 123.049804688 249.233398438 137.19921875 248.700195312 155.978515625 c 2
 248.700195312 325 l 1
 79.75 325 l 2
 60.875 325 46.75 344.510742188 46.75 367.049804688 c 0
 46.75 389.624023438 61.083984375 409.100585938 79.748046875 409.099609375 c 2
 79.748046875 409.099609375 159.259765625 409.137695312 248.700195312 409.166015625 c 1
 248.700195312 578.049804688 l 2
 248.700195312 596.924804688 268.2109375 611.049804688 290.75 611.049804688 c 0
 313.32421875 611.049804688 332.80078125 596.715820312 332.799804688 578.051757812 c 2
 332.799804688 578.051757812 332.837890625 498.5859375 332.865234375 409.186523438 c 1
 425.170898438 409.202148438 500.75 409.209960938 501.806640625 409.115234375 c 0
 521.880859375 408.37109375 534.75 389.239257812 534.75 367.049804688 c 0
 534.75 344.400390625 520.4921875 325.530273438 501.821289062 325 c 2
EndSplineSet
EndChar

StartChar: uni00B2
Encoding: 178 178 114
GlifName: uni00B_2
Width: 406
GlyphClass: 2
Flags: MW
HStem: 405.475 47.7441 510.895 47.3984<117.613 135.733> 657.607 47.3984<176.87 233.501>
VStem: 49.9502 51.2354<467.484 481.697 467.484 521.299> 304.814 51.2354<591.708 634.334>
LayerCount: 2
Back
Fore
SplineSet
336.266601562 406.181640625 m 2
 336.266601562 406.181640625 282.026367188 405.821289062 201.25 405.821289062 c 0
 185.958984375 405.821289062 171.153320312 405.483398438 157.159179688 405.474609375 c 0
 98.2548828125 405.434570312 49.9501953125 411.995117188 49.9501953125 479.556640625 c 0
 49.9501953125 563.041992188 99.4765625 558.29296875 135.75 558.29296875 c 0
 216.526367188 558.29296875 270.766601562 557.931640625 270.766601562 557.931640625 c 2
 293.977539062 557.931640625 304.814453125 576.145507812 304.814453125 607.26953125 c 0
 304.814453125 661.3984375 262.252929688 657.607421875 204.75 657.607421875 c 0
 148.990234375 657.607421875 69.751953125 657.594726562 69.75 657.594726562 c 0
 58.375 657.594726562 50.75 669.024414062 50.75 681.120117188 c 0
 50.75 693.21484375 58.388671875 704.64453125 69.7333984375 704.64453125 c 2
 69.7333984375 704.64453125 123.973632812 705.005859375 204.75 705.005859375 c 0
 285.134765625 705.005859375 356.049804688 692.024414062 356.049804688 607.26953125 c 0
 356.049804688 531.883789062 320.6171875 510.534179688 270.75 510.534179688 c 0
 189.973632812 510.534179688 135.733398438 510.89453125 135.733398438 510.89453125 c 2
 84.6865234375 510.89453125 101.185546875 483.836914062 101.185546875 479.556640625 c 0
 101.185546875 455.411132812 142.713867188 453.21875 201.25 453.21875 c 0
 257.009765625 453.21875 336.248046875 453.231445312 336.25 453.231445312 c 0
 347.625 453.231445312 355.25 441.802734375 355.25 429.70703125 c 0
 355.25 417.611328125 347.641601562 406.181640625 336.266601562 406.181640625 c 2
EndSplineSet
EndChar

StartChar: uni00B3
Encoding: 179 179 115
GlifName: uni00B_3
Width: 442
GlyphClass: 2
Flags: MW
HStem: 404.529 47.3975<215.634 269.964 215.634 285.255> 531.09 47.0498<262.814 263.187 263.187 268.728> 657.603 47.3975<215.634 269.964>
VStem: 343.578 51.2354<526.412 583.118>
LayerCount: 2
Back
Fore
SplineSet
66.115234375 578.139648438 m 2
 263.186523438 578.139648438 l 2
 274.741210938 578.139648438 282.186523438 566.076171875 282.186523438 554.115234375 c 0
 282.186523438 541.852539062 274.265625 531.08984375 263.189453125 531.08984375 c 0
 262.438476562 531.08984375 67.88671875 531 64.765625 531.15234375 c 0
 54.4970703125 531.913085938 47.1865234375 542.892578125 47.1865234375 554.615234375 c 0
 47.1865234375 566.814453125 54.9453125 577.822265625 66.115234375 578.139648438 c 2
108.497070312 704.639648438 m 2
 108.497070312 704.639648438 162.737304688 705 243.513671875 705 c 0
 326.997070312 705 394.813476562 637.623046875 394.813476562 554.764648438 c 0
 394.813476562 471.90625 326.997070312 404.529296875 243.513671875 404.529296875 c 0
 162.737304688 404.529296875 108.497070312 404.889648438 108.497070312 404.889648438 c 2
 97.15234375 404.889648438 89.513671875 416.319335938 89.513671875 428.4140625 c 0
 89.513671875 440.510742188 97.1376953125 451.939453125 108.514648438 451.939453125 c 2
 108.514648438 451.939453125 187.754882812 451.926757812 243.513671875 451.926757812 c 0
 296.415039062 451.926757812 343.578125 498.05859375 343.578125 554.764648438 c 0
 343.578125 611.470703125 296.415039062 657.602539062 243.513671875 657.602539062 c 0
 187.75390625 657.602539062 108.515625 657.58984375 108.513671875 657.58984375 c 0
 97.138671875 657.58984375 89.513671875 669.018554688 89.513671875 681.115234375 c 0
 89.513671875 693.209960938 97.1220703125 704.639648438 108.497070312 704.639648438 c 2
EndSplineSet
EndChar

StartChar: acute
Encoding: 180 180 116
GlifName: acute
Width: 238
GlyphClass: 2
Flags: MW
HStem: 602.5 102.5<113.211 162.302>
LayerCount: 2
Back
Fore
SplineSet
46.4873046875 584.283203125 m 0
 48.044921875 603.352539062 74.6640625 636.857421875 88.5107421875 656.2734375 c 1
 101.654296875 683.42578125 132.138671875 705 159.418945312 705 c 0
 165.185546875 705 170.384765625 703.983398438 174.877929688 701.984375 c 0
 192.822265625 694.000976562 195.919921875 672.625 186.1328125 651.63671875 c 0
 173.7578125 625.09765625 143.848632812 602.5 116.28515625 602.5 c 0
 110.13671875 602.5 103.333007812 604.294921875 99.8876953125 605.875976562 c 1
 88.97265625 577.990234375 104.811523438 575.369140625 126.84765625 561.75390625 c 2
 147.057617188 549.265625 l 1
 123.528320312 552.547851562 l 2
 93.765625 556.700195312 43.955078125 565.2421875 46.4873046875 584.283203125 c 0
EndSplineSet
EndChar

StartChar: mu
Encoding: 181 181 117
GlifName: mu
Width: 710
GlyphClass: 2
Flags: MW
HStem: -5 92.4707<313.544 413.109 296.955 436.494>
VStem: 59.5273 84.8291 565.708 84.7959<238.269 348.36>
LayerCount: 2
Back
Fore
SplineSet
59.52734375 497.241210938 m 0
 59.5517578125 535.604492188 60.2607421875 561.823242188 60.2822265625 562.662109375 c 0
 60.2822265625 581.422851562 79.79296875 595.599609375 102.33203125 595.599609375 c 0
 124.876953125 595.599609375 144.381835938 581.478515625 144.381835938 562.598632812 c 2
 144.381835938 562.598632812 144.356445312 404.119140625 144.356445312 292.599609375 c 0
 144.356445312 183.938476562 238.876953125 87.470703125 355.032226562 87.470703125 c 0
 471.186523438 87.470703125 565.708007812 183.938476562 565.708007812 292.599609375 c 0
 565.708007812 404.120117188 565.682617188 562.59765625 565.682617188 562.599609375 c 0
 565.682617188 581.474609375 585.192382812 595.599609375 607.732421875 595.599609375 c 0
 630.276367188 595.599609375 649.782226562 581.46484375 649.782226562 562.616210938 c 2
 649.782226562 562.616210938 650.50390625 454.125976562 650.50390625 292.599609375 c 0
 650.50390625 128.366210938 517.956054688 -5 355.032226562 -5 c 0
 272.056640625 -5 197.040039062 29.9296875 143.627929688 84.833984375 c 1
 143.627929688 -37 l 2
 143.627929688 -55.875 124.1171875 -70 101.578125 -70 c 0
 79.0029296875 -70 59.5263671875 -55.666015625 59.5283203125 -37.001953125 c 0
 59.5283203125 -36.8251953125 59.45703125 496.501953125 59.52734375 497.241210938 c 0
EndSplineSet
EndChar

StartChar: paragraph
Encoding: 182 182 118
GlifName: paragraph
Width: 498
GlyphClass: 2
Flags: MW
HStem: 510.9 84.1094
VStem: 51.9775 275.643 243.521 84.0996<27.998 27.998> 362.521 84.0996<27.998 27.998>
LayerCount: 2
Back
Fore
SplineSet
446.620117188 562.071289062 m 2xd0
 446.620117188 28 l 2
 446.620117188 9.125 427.108398438 -5 404.5703125 -5 c 0
 381.995117188 -5 362.518554688 9.333984375 362.520507812 27.998046875 c 2
 362.520507812 27.998046875 362.384765625 377.59375 362.44140625 510.900390625 c 1
 327.620117188 510.900390625 l 1
 327.620117188 28 l 2
 327.620117188 9.125 308.108398438 -5 285.5703125 -5 c 0
 262.995117188 -5 243.518554688 9.333984375 243.520507812 27.998046875 c 2xb0
 243.520507812 27.998046875 243.470703125 154.276367188 243.444335938 283.134765625 c 1
 84.6298828125 286.71875 52.2177734375 406.4296875 51.9775390625 419.9921875 c 0
 51.947265625 422.173828125 51.392578125 427.8203125 51.380859375 437.56640625 c 0
 51.3310546875 481.133789062 63.8154296875 594.998046875 200.564453125 595 c 0
 200.673828125 595 404.202148438 595.05859375 404.72265625 595.009765625 c 0
 428.709960938 594.494140625 446.098632812 580.431640625 446.620117188 562.071289062 c 2xd0
EndSplineSet
EndChar

StartChar: periodcentered
Encoding: 183 183 119
GlifName: periodcentered
Width: 210
GlyphClass: 2
Flags: MW
HStem: 213.75 102.5<90.3423 118.341>
VStem: 55.625 98.75<251.287 278.713>
LayerCount: 2
Back
Fore
SplineSet
55.625 265 m 0
 55.625 292.426757812 76.3095703125 316.25 104.375 316.25 c 0
 132.307617188 316.25 154.375 292.619140625 154.375 265 c 0
 154.375 237.380859375 132.307617188 213.75 104.375 213.75 c 0
 76.3095703125 213.75 55.625 237.573242188 55.625 265 c 0
EndSplineSet
EndChar

StartChar: cedilla
Encoding: 184 184 120
GlifName: cedilla
Width: 226
GlyphClass: 2
Flags: MW
HStem: -55.25 102.5<99.3369 116.092 99.3369 127.167> 87.7422 13.5273
VStem: 64.6191 107.208
LayerCount: 2
Back
Fore
SplineSet
171.827148438 67.6884765625 m 0
 179.111328125 48.75 168.043945312 14.314453125 163.3671875 -4.61328125 c 1
 162.823242188 -32.5205078125 140.963867188 -55.25 113.369140625 -55.25 c 0
 85.3046875 -55.25 64.619140625 -31.4267578125 64.619140625 -4 c 0
 64.619140625 23.4267578125 85.3046875 47.25 113.369140625 47.25 c 0
 118.814453125 47.25 125.7890625 45.7607421875 129.260742188 44.57421875 c 1
 126.088867188 70.0830078125 106.83203125 74.8505859375 79.95703125 87.7421875 c 2
 51.755859375 101.26953125 l 1
 82.7685546875 97.2080078125 l 2
 116.5859375 92.7783203125 166.28515625 84.314453125 171.827148438 67.6884765625 c 0
EndSplineSet
EndChar

StartChar: uni00B9
Encoding: 185 185 121
GlifName: uni00B_9
Width: 206
GlyphClass: 2
Flags: MW
HStem: 400 305<134.437 140.289>
VStem: 110.716 47.0498<413.365 418.998>
LayerCount: 2
Back
Fore
SplineSet
134.436523438 705 m 0
 146.63671875 705 157.4453125 697.353515625 157.765625 686.071289062 c 2
 157.765625 419 l 2
 157.765625 407.625 146.3359375 400 134.241210938 400 c 0
 122.1171875 400 110.715820312 407.731445312 110.715820312 418.998046875 c 2
 110.715820312 418.998046875 110.67578125 545.342773438 110.671875 625.48828125 c 1
 86.2958984375 601.112304688 l 2
 78.251953125 593.067382812 64.7783203125 595.759765625 56.2255859375 604.311523438 c 0
 47.6533203125 612.884765625 45.0576171875 626.413085938 53.0244140625 634.379882812 c 0
 53.0712890625 634.426757812 107.963867188 689.325195312 108.346679688 689.69921875 c 0
 112.869140625 694.5078125 118.959960938 706.211914062 134.436523438 705 c 0
EndSplineSet
EndChar

StartChar: ordmasculine
Encoding: 186 186 122
GlifName: ordmasculine
Width: 321
GlyphClass: 2
Flags: MW
HStem: 490.18 38.8652<139.858 181.142 139.858 191.285> 666.135 38.8652<139.858 181.142>
VStem: 48.4844 37.5557<579.613 615.566 579.613 627.329> 234.96 37.5557<579.613 615.566>
LayerCount: 2
Back
Fore
SplineSet
86.0400390625 597.58984375 m 0
 86.0400390625 561.63671875 119.215820312 529.044921875 160.5 529.044921875 c 0
 201.783203125 529.044921875 234.959960938 561.63671875 234.959960938 597.58984375 c 0
 234.959960938 633.54296875 201.784179688 666.134765625 160.5 666.134765625 c 0
 119.216796875 666.134765625 86.0400390625 633.54296875 86.0400390625 597.58984375 c 0
48.484375 597.58984375 m 0
 48.484375 657.067382812 98.9306640625 705 160.5 705 c 0
 222.069335938 705 272.515625 657.068359375 272.515625 597.58984375 c 0
 272.515625 538.112304688 222.069335938 490.1796875 160.5 490.1796875 c 0
 98.9306640625 490.1796875 48.484375 538.111328125 48.484375 597.58984375 c 0
EndSplineSet
EndChar

StartChar: guillemotright
Encoding: 187 187 123
GlifName: guillemotright
Width: 599
GlyphClass: 2
Flags: MW
HStem: 147.532 64.9297<78.6953 82.3311> 473.538 64.9297<78.6953 82.3311>
LayerCount: 2
Back
Fore
SplineSet
328 343 m 0
 328 320.040039062 313.760742188 297.797851562 297.348632812 291.188476562 c 0
 286.080078125 283.501953125 83.8056640625 148.212890625 83.779296875 148.1953125 c 2
 83.1083984375 147.747070312 l 1
 82.3310546875 147.532226562 l 2
 64.892578125 142.717773438 48 153.204101562 48 172.41015625 c 0
 48 190.946289062 63.4228515625 207.772460938 78.6953125 212.461914062 c 1
 248.139648438 343 l 1
 78.6953125 473.538085938 l 1
 61.9921875 478.666992188 48 495.666992188 48 513.58984375 c 0
 48 532.796875 64.892578125 543.282226562 82.3310546875 538.467773438 c 2
 83.1083984375 538.252929688 l 1
 83.779296875 537.8046875 l 1
 83.779296875 537.8046875 287.815429688 401.314453125 297.348632812 394.811523438 c 0
 315.010742188 387.698242188 328 365.314453125 328 343 c 0
551 343 m 0
 551 320.040039062 536.760742188 297.797851562 520.348632812 291.188476562 c 0
 509.080078125 283.501953125 306.805664062 148.212890625 306.779296875 148.1953125 c 2
 306.108398438 147.747070312 l 1
 305.331054688 147.532226562 l 2
 287.892578125 142.717773438 271 153.204101562 271 172.41015625 c 0
 271 190.946289062 286.422851562 207.772460938 301.6953125 212.461914062 c 1
 471.139648438 343 l 1
 301.6953125 473.538085938 l 1
 284.9921875 478.666992188 271 495.666992188 271 513.58984375 c 0
 271 532.796875 287.892578125 543.282226562 305.331054688 538.467773438 c 2
 306.108398438 538.252929688 l 1
 306.779296875 537.8046875 l 1
 306.779296875 537.8046875 510.815429688 401.314453125 520.348632812 394.811523438 c 0
 538.010742188 387.698242188 551 365.314453125 551 343 c 0
EndSplineSet
EndChar

StartChar: onequarter
Encoding: 188 188 124
GlifName: onequarter
Width: 595
GlyphClass: 2
Flags: MW
HStem: 114.614 47.3975<429 429> 252.688 47.3936<429 429>
VStem: 112.347 47.0508<331.865 337.498> 455.504 47.0498<13.998 13.998>
LayerCount: 2
Back
Fore
SplineSet
486.530273438 587.331054688 m 2
 123.6875 25.2880859375 l 2
 112.84765625 8.4970703125 87.0166015625 -5 64.3623046875 -5 c 0
 56.9736328125 -5 50.6953125 -3.5234375 45.8232421875 -0.5458984375 c 0
 34.8818359375 6.1416015625 33.728515625 19.16015625 41.185546875 30.7109375 c 0
 41.22265625 30.767578125 403.729492188 592.376953125 404.041992188 592.788085938 c 0
 416.055664062 610.516601562 440.8203125 623 463.328125 623 c 0
 470.704101562 623 476.952148438 621.55078125 481.801757812 618.590820312 c 0
 492.713867188 611.9296875 493.704101562 598.954101562 486.530273438 587.331054688 c 2
502.56640625 278.33984375 m 2
 502.56640625 161.6640625 l 1
 539.56640625 161.6640625 l 2
 550.94140625 161.6640625 558.56640625 150.234375 558.56640625 138.138671875 c 0
 558.56640625 126.015625 550.830078125 114.612304688 539.572265625 114.614257812 c 2
 539.572265625 114.614257812 523.456054688 114.595703125 502.553710938 114.583007812 c 1
 502.553710938 14 l 2
 502.553710938 2.625 491.123046875 -5 479.028320312 -5 c 0
 466.904296875 -5 455.501953125 2.7333984375 455.50390625 13.998046875 c 2
 455.50390625 13.998046875 455.482421875 60.0830078125 455.469726562 114.568359375 c 1
 440.125976562 114.5703125 429.76953125 114.6015625 429.42578125 114.614257812 c 0
 382.413085938 114.608398438 361.373046875 114.19921875 286.0078125 114.5078125 c 2
 285.467773438 114.509765625 l 1
 284.94140625 114.626953125 l 2
 280.892578125 115.529296875 277.57421875 116.760742188 274.87890625 118.598632812 c 0
 259.889648438 128.815429688 274.952148438 146.779296875 284.142578125 160.177734375 c 0
 335.241210938 234.676757812 380.63671875 297.90234375 429.342773438 300.081054688 c 0
 444.76171875 300.770507812 456.826171875 300.447265625 466.333007812 299.473632812 c 0
 499.678710938 296.059570312 503.130859375 283.37109375 502.56640625 278.33984375 c 2
455.4765625 252.9453125 m 1
 447.083984375 252.904296875 440.240234375 252.829101562 429.631835938 252.6875 c 0
 412.365234375 252.459960938 389.291992188 231.904296875 342.486328125 163.77734375 c 1
 351.799804688 161.44921875 379.778320312 162.01171875 429.557617188 162.01171875 c 2
 429.557617188 162.01171875 434.493164062 162.017578125 455.4609375 162.020507812 c 1
 455.45703125 199.33203125 455.473632812 231.282226562 455.4765625 252.9453125 c 1
136.067382812 623.5 m 0
 148.267578125 623.5 159.077148438 615.853515625 159.397460938 604.571289062 c 2
 159.397460938 337.5 l 2
 159.397460938 326.124023438 147.965820312 318.5 135.872070312 318.5 c 0
 123.747070312 318.5 112.346679688 326.231445312 112.346679688 337.498046875 c 2
 112.346679688 337.498046875 112.306640625 463.844726562 112.302734375 543.98828125 c 1
 87.9267578125 519.612304688 l 2
 79.8828125 511.568359375 66.4091796875 514.259765625 57.857421875 522.811523438 c 0
 49.283203125 531.384765625 46.6884765625 544.913085938 54.6552734375 552.879882812 c 0
 54.7021484375 552.926757812 109.59375 607.825195312 109.977539062 608.19921875 c 0
 114.5 613.0078125 120.590820312 624.711914062 136.067382812 623.5 c 0
EndSplineSet
EndChar

StartChar: onehalf
Encoding: 189 189 125
GlifName: onehalf
Width: 675
GlyphClass: 2
Flags: MW
HStem: -5.34668 47.7451 100.074 47.3984<395.761 413.881> 246.787 47.3984<455.018 511.648>
VStem: 116.716 47.0508<331.865 337.498> 328.098 51.2354<56.6631 70.8765 56.6631 110.479> 582.962 51.2354<180.887 223.514>
LayerCount: 2
Back
Fore
SplineSet
490.899414062 587.331054688 m 2
 128.056640625 25.2880859375 l 2
 117.216796875 8.4970703125 91.3857421875 -5 68.7314453125 -5 c 0
 61.3427734375 -5 55.064453125 -3.5234375 50.1923828125 -0.5458984375 c 0
 39.2509765625 6.1416015625 38.09765625 19.16015625 45.5546875 30.7109375 c 0
 45.591796875 30.767578125 408.098632812 592.376953125 408.411132812 592.788085938 c 0
 420.424804688 610.516601562 445.189453125 623 467.697265625 623 c 0
 475.073242188 623 481.321289062 621.55078125 486.170898438 618.590820312 c 0
 497.083007812 611.9296875 498.073242188 598.954101562 490.899414062 587.331054688 c 2
614.4140625 -4.638671875 m 2
 614.4140625 -4.638671875 560.173828125 -5 479.397460938 -5 c 0
 464.106445312 -5 449.30078125 -5.337890625 435.306640625 -5.3466796875 c 0
 376.40234375 -5.38671875 328.09765625 1.173828125 328.09765625 68.736328125 c 0
 328.09765625 152.221679688 377.624023438 147.47265625 413.897460938 147.47265625 c 0
 494.673828125 147.47265625 548.9140625 147.111328125 548.9140625 147.111328125 c 2
 572.124023438 147.111328125 582.961914062 165.32421875 582.961914062 196.44921875 c 0
 582.961914062 250.578125 540.399414062 246.787109375 482.897460938 246.787109375 c 0
 427.137695312 246.787109375 347.8984375 246.774414062 347.897460938 246.774414062 c 0
 336.521484375 246.774414062 328.897460938 258.204101562 328.897460938 270.298828125 c 0
 328.897460938 282.39453125 336.53515625 293.82421875 347.880859375 293.82421875 c 2
 347.880859375 293.82421875 402.120117188 294.185546875 482.897460938 294.185546875 c 0
 563.282226562 294.185546875 634.197265625 281.204101562 634.197265625 196.44921875 c 0
 634.197265625 121.0625 598.763671875 99.712890625 548.897460938 99.712890625 c 0
 468.120117188 99.712890625 413.880859375 100.07421875 413.880859375 100.07421875 c 2
 362.833984375 100.07421875 379.333007812 73.0166015625 379.333007812 68.736328125 c 0
 379.333007812 44.58984375 420.861328125 42.3984375 479.397460938 42.3984375 c 0
 535.157226562 42.3984375 614.395507812 42.4111328125 614.397460938 42.4111328125 c 0
 625.772460938 42.4111328125 633.397460938 30.9814453125 633.397460938 18.88671875 c 0
 633.397460938 6.791015625 625.7890625 -4.638671875 614.4140625 -4.638671875 c 2
140.436523438 623.5 m 0
 152.63671875 623.5 163.446289062 615.853515625 163.766601562 604.571289062 c 2
 163.766601562 337.5 l 2
 163.766601562 326.124023438 152.334960938 318.5 140.241210938 318.5 c 0
 128.116210938 318.5 116.715820312 326.231445312 116.715820312 337.498046875 c 2
 116.715820312 337.498046875 116.67578125 463.844726562 116.671875 543.98828125 c 1
 92.2958984375 519.612304688 l 2
 84.251953125 511.568359375 70.7783203125 514.259765625 62.2265625 522.811523438 c 0
 53.65234375 531.384765625 51.0576171875 544.913085938 59.0244140625 552.879882812 c 0
 59.0712890625 552.926757812 113.962890625 607.825195312 114.346679688 608.19921875 c 0
 118.869140625 613.0078125 124.959960938 624.711914062 140.436523438 623.5 c 0
EndSplineSet
EndChar

StartChar: threequarters
Encoding: 190 190 126
GlifName: threequarters
Width: 681
GlyphClass: 2
Flags: MW
HStem: 114.614 47.3975<516 516> 252.688 47.3936<516 516> 322.529 47.3975<165.515 219.845 165.515 235.136> 449.09 47.0498<212.745 213.067 213.067 218.608> 575.603 47.3975<165.515 219.845>
VStem: 293.459 51.2354<444.412 501.118> 542.87 47.0498<13.998 13.998>
LayerCount: 2
Back
Fore
SplineSet
573.897460938 587.331054688 m 2
 211.0546875 25.2880859375 l 2
 200.21484375 8.4970703125 174.3828125 -5 151.728515625 -5 c 0
 144.340820312 -5 138.061523438 -3.5234375 133.189453125 -0.5458984375 c 0
 122.248046875 6.1416015625 121.095703125 19.16015625 128.552734375 30.7109375 c 0
 128.58984375 30.767578125 491.096679688 592.376953125 491.408203125 592.788085938 c 0
 503.421875 610.516601562 528.186523438 623 550.694335938 623 c 0
 558.0703125 623 564.318359375 621.55078125 569.168945312 618.590820312 c 0
 580.080078125 611.9296875 581.071289062 598.954101562 573.897460938 587.331054688 c 2
589.932617188 278.33984375 m 2
 589.932617188 161.6640625 l 1
 626.932617188 161.6640625 l 2
 638.307617188 161.6640625 645.932617188 150.234375 645.932617188 138.138671875 c 0
 645.932617188 126.015625 638.196289062 114.612304688 626.938476562 114.614257812 c 2
 626.938476562 114.614257812 610.823242188 114.595703125 589.919921875 114.583007812 c 1
 589.919921875 14 l 2
 589.919921875 2.625 578.490234375 -5 566.39453125 -5 c 0
 554.270507812 -5 542.868164062 2.7333984375 542.870117188 13.998046875 c 2
 542.870117188 13.998046875 542.849609375 60.0830078125 542.8359375 114.568359375 c 1
 527.493164062 114.5703125 517.13671875 114.6015625 516.79296875 114.614257812 c 0
 469.779296875 114.608398438 448.740234375 114.19921875 373.374023438 114.5078125 c 2
 372.833984375 114.509765625 l 1
 372.307617188 114.626953125 l 2
 368.258789062 115.529296875 364.94140625 116.760742188 362.245117188 118.598632812 c 0
 347.255859375 128.815429688 362.318359375 146.779296875 371.509765625 160.177734375 c 0
 422.608398438 234.676757812 468.00390625 297.90234375 516.708984375 300.081054688 c 0
 532.12890625 300.770507812 544.193359375 300.447265625 553.69921875 299.473632812 c 0
 587.044921875 296.059570312 590.497070312 283.37109375 589.932617188 278.33984375 c 2
542.84375 252.9453125 m 1
 534.451171875 252.904296875 527.606445312 252.829101562 516.999023438 252.6875 c 0
 499.731445312 252.459960938 476.658203125 231.904296875 429.853515625 163.77734375 c 1
 439.166992188 161.44921875 467.14453125 162.01171875 516.924804688 162.01171875 c 2
 516.924804688 162.01171875 521.860351562 162.017578125 542.827148438 162.020507812 c 1
 542.823242188 199.33203125 542.840820312 231.282226562 542.84375 252.9453125 c 1
53.99609375 496.139648438 m 2
 213.067382812 496.139648438 l 2
 224.622070312 496.139648438 232.067382812 484.076171875 232.067382812 472.115234375 c 0
 232.067382812 459.852539062 224.145507812 449.08984375 213.0703125 449.08984375 c 0
 212.418945312 449.08984375 55.6181640625 449.006835938 52.662109375 449.151367188 c 0
 42.365234375 449.9140625 35.0673828125 460.892578125 35.0673828125 472.615234375 c 0
 35.0673828125 484.814453125 42.826171875 495.822265625 53.99609375 496.139648438 c 2
96.3408203125 622.639648438 m 2
 96.3408203125 622.639648438 112.626953125 623 193.39453125 623 c 0
 276.877929688 623 344.694335938 555.623046875 344.694335938 472.764648438 c 0
 344.694335938 389.90625 276.877929688 322.529296875 193.39453125 322.529296875 c 0
 112.626953125 322.529296875 96.3408203125 322.889648438 96.3408203125 322.889648438 c 2
 85.064453125 322.889648438 77.39453125 334.319335938 77.39453125 346.4140625 c 0
 77.39453125 358.510742188 85.0185546875 369.939453125 96.396484375 369.939453125 c 2
 96.396484375 369.939453125 137.635742188 369.926757812 193.39453125 369.926757812 c 0
 246.295898438 369.926757812 293.458984375 416.05859375 293.458984375 472.764648438 c 0
 293.458984375 529.470703125 246.295898438 575.602539062 193.39453125 575.602539062 c 0
 137.634765625 575.602539062 96.3974609375 575.58984375 96.39453125 575.58984375 c 0
 85.01953125 575.58984375 77.39453125 587.018554688 77.39453125 599.115234375 c 0
 77.39453125 611.209960938 84.96484375 622.639648438 96.3408203125 622.639648438 c 2
EndSplineSet
EndChar

StartChar: questiondown
Encoding: 191 191 127
GlifName: questiondown
Width: 601
GlyphClass: 2
Flags: MW
HStem: -5 74.3242<258.083 346.132 258.083 367.636> 212.942 73.7256<70.6191 354.493 70.6191 132.409> 496.041 89.5498<333.864 358.362 333.862 358.368>
VStem: 302.38 86.3252<528.853 552.778 528.853 552.875> 309.776 73.7393
LayerCount: 2
Back
Fore
SplineSet
309.776367188 286.744140625 m 1xe8
 309.776367188 447.60546875 l 2
 309.776367188 464.379882812 327.021484375 476.685546875 346.639648438 476.685546875 c 0
 366.287109375 476.685546875 383.502929688 464.196289062 383.501953125 447.610351562 c 0
 383.501953125 447.568359375 383.538085938 250.018554688 383.515625 249.75 c 0
 382.985351562 228.481445312 370.859375 213.407226562 354.493164062 212.942382812 c 2
 132.409179688 212.942382812 l 1
 160.21875 130.162109375 217.98828125 69.32421875 298.177734375 69.32421875 c 0
 394.0859375 69.32421875 530.375976562 69.345703125 530.377929688 69.345703125 c 0
 547.153320312 69.345703125 559.458007812 52.1015625 559.458007812 32.4833984375 c 0
 559.458007812 12.8642578125 547.140625 -4.3798828125 530.39453125 -4.3798828125 c 2
 530.39453125 -4.3798828125 437.09375 -5 298.177734375 -5 c 0
 156.5546875 -5 41.5419921875 109.298828125 41.5419921875 249.805664062 c 0
 41.5419921875 269.453125 54.0302734375 286.668945312 70.619140625 286.66796875 c 2
 70.619140625 286.66796875 230.047851562 286.767578125 309.776367188 286.744140625 c 1xe8
388.705078125 540.81640625 m 0xf0
 388.705078125 516.889648438 370.655273438 496.041015625 346.080078125 496.041015625 c 0
 321.647460938 496.041015625 302.379882812 516.702148438 302.379882812 540.81640625 c 0
 302.379882812 564.934570312 321.64453125 585.590820312 346.080078125 585.590820312 c 0
 370.64453125 585.590820312 388.705078125 564.739257812 388.705078125 540.81640625 c 0xf0
EndSplineSet
EndChar

StartChar: Agrave
Encoding: 192 192 128
GlifName: A_grave
Width: 740
GlyphClass: 2
Flags: MW
HStem: 0 92.4707<307.075 415.64> 492.729 92.4707<307.076 432.925> 656 102.5<324.054 381.81>
VStem: 54.2402 88.7324<239.701 345.498 239.701 373.444> 301.286 105.872 601.15 84.0996<7.87988 14.4707>
LayerCount: 2
Back
Fore
SplineSet
685.759765625 292.580078125 m 2
 685.25 15.185546875 l 2
 685.25 0.57421875 658.36328125 -1.28515625 641.41015625 -1.2919921875 c 0
 625.619140625 -1.298828125 601.150390625 0.177734375 601.150390625 14.470703125 c 2
 601.157226562 93.640625 l 1
 543.174804688 35.4912109375 461.279296875 0 370 0 c 0
 194.381835938 0 54.240234375 130.91015625 54.240234375 292.599609375 c 0
 54.240234375 454.2890625 194.381835938 585.19921875 370 585.19921875 c 0
 545.618164062 585.19921875 685.759765625 454.291992188 685.759765625 292.580078125 c 2
370 492.728515625 m 0
 244.15234375 492.728515625 142.97265625 398.396484375 142.97265625 292.599609375 c 0
 142.97265625 186.801757812 244.150390625 92.470703125 370 92.470703125 c 0
 495.84765625 92.470703125 597.02734375 186.801757812 597.02734375 292.599609375 c 0
 597.02734375 398.396484375 495.849609375 492.728515625 370 492.728515625 c 0
407.158203125 709.7734375 m 1
 422.595703125 688.678710938 448.668945312 657.0390625 450.282226562 637.783203125 c 0
 452.883789062 618.723632812 401.759765625 610.19921875 371.221679688 606.047851562 c 2
 347.075195312 602.765625 l 1
 367.81640625 615.25390625 l 2
 390.889648438 629.146484375 406.392578125 632.216796875 395.482421875 659.375976562 c 1
 390.111328125 656.973632812 384.96484375 656 378.655273438 656 c 0
 350.370117188 656 319.676757812 678.596679688 306.977539062 705.13671875 c 0
 303.216796875 712.993164062 301.295898438 720.676757812 301.286132812 727.791992188 c 0
 301.259765625 745.462890625 313.715820312 758.5 334.391601562 758.5 c 0
 362.8671875 758.5 394.34375 735.569335938 407.158203125 709.7734375 c 1
EndSplineSet
EndChar

